<?xml version="1.0" encoding="UTF-8"?>
<svg width="155px" height="154px" viewBox="0 0 155 154" version="1.1" xmlns="http://www.w3.org/2000/svg" xmlns:xlink="http://www.w3.org/1999/xlink">
    <title>cocinero</title>
    <g id="Page-1" stroke="none" stroke-width="1" fill="none" fill-rule="evenodd">
        <g id="Fortship" transform="translate(-723.000000, -2165.000000)" fill="#FFFFFF" fill-rule="nonzero">
            <g id="cocinero" transform="translate(723.000000, 2165.000000)">
                <path d="M120.970783,66.3405597 C113.430016,71.1330782 109.282861,79.7720155 110.276324,88.6181847 L77.5369717,109.493183 L44.7924547,88.6310293 C45.8076348,79.7801413 41.6502413,71.1302286 34.0876654,66.3585421 C29.16784,62.9854586 23.1852648,61.5013792 17.2492514,62.1814874 C11.5801063,62.7335188 6.45401947,65.7722698 3.26830955,70.469408 C0.0825996359,75.1665463 -0.83062783,81.0324022 0.777563609,86.4680034 C2.36873007,92.1946273 5.99421364,97.1527208 10.9813326,100.422346 C18.2678672,105.618025 27.9001047,106.209868 35.7740894,101.945712 L61.1892477,119.894717 L37.0033969,135.321047 C34.6936917,136.780867 33.076692,139.108801 32.5210349,141.774137 C31.9653778,144.439472 32.5184238,147.215033 34.0540919,149.468058 C35.5836965,151.716044 37.959708,153.255804 40.6450034,153.739259 C43.3302989,154.222713 46.0981448,153.609042 48.3228399,152.036973 L77.5369717,131.429142 L106.751103,152.052386 C109.75348,154.237137 113.716841,154.613031 117.08018,153.032018 C120.443519,151.451006 122.667851,148.16645 122.877101,144.472003 C123.086351,140.777556 121.246987,137.265265 118.083459,135.318478 L93.8692002,119.904992 L119.302437,101.948281 C127.175447,106.213935 136.807643,105.62409 144.095193,100.430053 C154.709592,93.3038845 158.175413,79.8581869 151.814522,70.4559604 C145.45363,61.053734 131.608425,59.2143913 120.970783,66.3405597 L120.970783,66.3405597 Z M45.3322136,147.857349 C43.0373907,149.393861 39.9294126,148.829588 38.3282598,146.585737 C37.5752951,145.480858 37.3044066,144.119696 37.5773962,142.812794 C37.8503858,141.505892 38.6439664,140.364734 39.7770866,139.649668 L65.7294213,123.095584 L73.0613626,128.269377 L45.3322136,147.857349 Z M117.489466,142.81457 C117.903518,144.809185 117.049152,146.852776 115.335315,147.967171 C113.621477,149.081567 111.39684,149.040047 109.726234,147.862487 L37.3133064,96.7410918 C36.4078611,96.1024269 35.1934197,96.1107009 34.2968543,96.7616431 C28.0310973,100.829214 19.8828511,100.590466 13.8686557,96.1630861 C9.91755833,93.585117 7.04010334,89.6696298 5.76968849,85.1424436 C4.53849521,81.1371545 5.19246505,76.7929618 7.54911237,73.3220817 C9.90575969,69.8512017 13.7127645,67.6252522 17.907809,67.2653688 C22.6030444,66.7411754 27.3301487,67.9276507 31.2132552,70.6049575 C37.5882126,74.4969974 40.8575082,81.9220847 39.4103604,89.2218796 C39.1381175,90.2933923 39.5853665,91.418014 40.5208693,92.0142895 L115.296857,139.647099 C116.430154,140.362598 117.221782,141.506194 117.489466,142.81457 L117.489466,142.81457 Z M141.19754,96.1579483 C135.181443,100.584191 127.03225,100.820887 120.766759,96.7513675 C119.870193,96.1004253 118.655752,96.0921512 117.750307,96.7308162 L89.1792371,116.907069 L82.330238,112.539915 L114.545326,91.9886003 C115.478688,91.3930149 115.925635,90.2712198 115.655835,89.2013283 C114.237872,81.9022605 117.505001,74.4914339 123.863271,70.5844062 C132.127523,65.043258 142.752252,66.2660612 147.527441,73.3023175 C152.302629,80.3385739 149.45921,90.6168001 141.19754,96.1579483 L141.19754,96.1579483 Z" id="Shape"></path>
                <path d="M105.60891,88 L112.912559,51.3744 C125.251044,50.2975642 134.544672,39.6479935 133.975171,27.2387467 C133.40567,14.8294998 123.175924,5.08132248 110.790986,5.14596597 C105.603583,5.1275405 100.564977,6.88383554 96.5069261,10.1249273 C92.2153458,3.79144366 85.0757958,0 77.4409894,0 C69.8061831,0 62.6666331,3.79144366 58.3750527,10.1249273 C54.3170021,6.88383554 49.2783961,5.1275405 44.0909925,5.14596597 C31.7516612,5.14482329 21.5923563,14.8754457 21.0248345,27.2388235 C20.4573126,39.6022013 29.6821876,50.2279897 41.9694197,51.3641076 L49.273069,88 L54.3012223,86.9913422 L52.8646071,79.7660587 L102.017372,79.7660587 L100.580756,86.9707573 L105.60891,88 Z M93.2257995,74.6198454 L95.3730262,59.5465867 L90.2935651,58.8158244 L88.0437231,74.6198454 L80.0063738,74.6198454 L80.0063738,46.3156723 L74.875605,46.3156723 L74.875605,74.6198454 L66.8382558,74.6198454 L64.5884137,58.8158244 L59.5089526,59.5465867 L61.6561794,74.6198454 L51.8384533,74.6198454 L46.6050692,48.3741576 C46.3612199,47.1759487 45.3102392,46.3154227 44.0909925,46.3156723 C34.1732339,46.3156723 26.1333019,38.2515387 26.1333019,28.3039258 C26.1333019,18.3563129 34.1732339,10.2921793 44.0909925,10.2921793 C49.0330692,10.2794746 53.7574567,12.3304169 57.1308413,15.9530139 C57.7096357,16.5669217 58.5520363,16.8566982 59.3846461,16.7282978 C60.2172559,16.5998974 60.9339603,16.0696845 61.3021563,15.3097372 C64.2926506,9.09782054 70.5635119,5.15029523 77.4409894,5.15029523 C84.3184669,5.15029523 90.5893283,9.09782054 93.5798225,15.3097372 C93.9480185,16.0696845 94.6647229,16.5998974 95.4973327,16.7282978 C96.3299425,16.8566982 97.1723432,16.5669217 97.7511375,15.9530139 C101.124522,12.3304169 105.84891,10.2794746 110.790986,10.2921793 C120.708745,10.2921793 128.748677,18.3563129 128.748677,28.3039258 C128.748677,38.2515387 120.708745,46.3156723 110.790986,46.3156723 C109.57174,46.3154227 108.520759,47.1759487 108.27691,48.3741576 L103.043525,74.6198454 L93.2257995,74.6198454 Z" id="Shape"></path>
            </g>
        </g>
    </g>
</svg>