<svg version="1.2" baseProfile="tiny-ps" xmlns="http://www.w3.org/2000/svg" viewBox="0 0 499 410" width="499" height="410">
	<title>Capa 1</title>
	<style>
		tspan { white-space:pre }
		.shp0 { fill: #ffffff } 
		.shp1 { fill: #c3c3c3 } 
	</style>
	<g id="Capa 1">
		<g id="Folder 1">
			<path id="&lt;Path&gt;" class="shp0" d="M251.2 409.76C244.35 409.76 237.51 407.2 232.27 402.06L36.58 210.34C13.3 187.55 0.36 157.12 0.1 124.64C-0.13 92.14 12.35 61.49 35.29 38.37C58.2 15.2 88.82 2.34 121.48 2.1L122.43 2.1C154.74 2.1 185.17 14.5 208.21 37.07C223.73 50.75 242.7 66.56 249.28 70.8C255.85 66.62 274.14 50.49 289.09 36.32C311.85 13.31 342.47 0.44 375.14 0.19C407.54 -0.11 438.61 12.37 461.86 35.18C485.16 57.97 498.1 88.41 498.35 120.89C498.58 153.39 486.1 184.03 463.17 207.16L270.37 401.8C265.12 407.12 258.16 409.76 251.2 409.76Z" />
			<path id="&lt;Path&gt;" class="shp1" d="M263.64 302.9L234.82 302.9C226.65 302.9 220 296.29 220 288.15L220 243.9L175.5 243.9C167.32 243.9 160.69 237.3 160.69 229.19L160.69 200.51C160.69 192.39 167.32 185.78 175.5 185.78L220 185.78L220 141.53C220 133.39 226.65 126.8 234.82 126.8L263.64 126.8C271.81 126.8 278.45 133.39 278.45 141.53L278.45 185.78L322.95 185.78C331.13 185.78 337.78 192.39 337.78 200.51L337.78 229.19C337.78 237.3 331.13 243.9 322.95 243.9L278.45 243.9L278.45 288.15C278.45 296.29 271.81 302.9 263.64 302.9Z" />
		</g>
	</g>
</svg>