<?xml version="1.0" encoding="UTF-8"?>
<svg width="226px" height="226px" viewBox="0 0 226 226" version="1.1" xmlns="http://www.w3.org/2000/svg" xmlns:xlink="http://www.w3.org/1999/xlink">
    <title>cake (1) copy</title>
    <defs>
        <filter x="-14.9%" y="-29.6%" width="129.9%" height="159.2%" filterUnits="objectBoundingBox" id="filter-1">
            <feOffset dx="20" dy="20" in="SourceAlpha" result="shadowOffsetOuter1"></feOffset>
            <feGaussianBlur stdDeviation="25" in="shadowOffsetOuter1" result="shadowBlurOuter1"></feGaussianBlur>
            <feColorMatrix values="0 0 0 0 0   0 0 0 0 0   0 0 0 0 0  0 0 0 0.2 0" type="matrix" in="shadowBlurOuter1" result="shadowMatrixOuter1"></feColorMatrix>
            <feMerge>
                <feMergeNode in="shadowMatrixOuter1"></feMergeNode>
                <feMergeNode in="SourceGraphic"></feMergeNode>
            </feMerge>
        </filter>
    </defs>
    <g id="Page-1" stroke="none" stroke-width="1" fill="none" fill-rule="evenodd">
        <g id="Fortship" transform="translate(-544.000000, -2396.000000)" fill="#FFFFFF" fill-rule="nonzero">
            <g id="Group-3" filter="url(#filter-1)" transform="translate(573.000000, 2478.000000)">
                <g id="cake-(1)-copy" transform="translate(70.000000, 17.000000)">
                    <path d="M23.2211328,2.41038246 C23.0131016,2.28777271 22.7616484,2.26310857 22.5337109,2.34284319 C20.1941797,3.16162696 17.8618672,3.97379351 15.9931953,4.62375644 C15.4041562,3.97696539 14.6111875,3.5197218 13.717375,3.35232285 C13.4850625,1.99984214 12.6301875,0.83171356 11.3712266,0.202203817 L11.1402812,0.0867581506 C10.7352656,-0.115804971 10.2424219,0.0484220956 10.03975,0.453603026 C9.83713281,0.858783956 10.0013594,1.35157453 10.4065937,1.55413765 L10.6375391,1.66958332 C11.344375,2.02302971 11.8466797,2.6488207 12.0457422,3.38546358 C10.31275,3.78211323 8.99538281,5.27886001 8.8703125,7.09919372 C6.19767969,8.02800907 3.36071094,9.01517616 0.549335937,9.99917136 C0.22028125,10.1142889 0,10.4248602 0,10.7733847 L0,10.7733847 L0,19.5234115 L0.0007109375,19.5234115 C0.000765625,19.8627485 0.212023437,20.1802104 0.550539062,20.2980623 L22.5349141,27.9543358 C22.6226328,27.9849609 22.7137969,28 22.8046875,28 C22.9027422,28 23.0003594,27.9824453 23.0927812,27.9477733 C23.1149844,27.9423045 23.1428203,27.9361248 23.1755781,27.9285232 C23.6290469,27.823687 24.8335937,27.5451627 25.9236797,26.6490505 C27.3014219,25.5165236 28,23.8550576 28,21.7109182 L28,10.7733847 C28,10.5468684 27.9456953,5.19447694 23.2211328,2.41038246 Z M12.9609375,4.92180423 C14.3178984,4.92180423 15.421875,6.02578418 15.421875,7.38274927 C15.421875,8.73971437 14.3178984,9.84369432 12.9609375,9.84369432 C11.6039766,9.84369432 10.5,8.73971437 10.5,7.38274927 C10.5,6.02578418 11.6039766,4.92180423 12.9609375,4.92180423 Z M9.09704688,8.75721443 C9.66344531,10.3447427 11.1812969,11.4843244 12.9609375,11.4843244 C15.2225391,11.4843244 17.0625,9.64435777 17.0625,7.38274927 C17.0625,6.92173224 16.9848984,6.47876213 16.8440234,6.06483117 C18.5564531,5.46911841 20.6182266,4.75106933 22.7052656,4.02093428 C26.3167188,6.38776185 26.359375,10.7285955 26.359375,10.7733847 C26.359375,14.5782245 23.6180547,16.8582627 22.6903906,17.5205304 L18.1537891,15.9327286 C17.9029375,15.8449549 17.6249609,15.8840566 17.408125,16.0380024 C17.1912891,16.1917841 17.0625,16.4411599 17.0625,16.7069966 L17.0625,20.0702882 C17.0625,20.5226099 16.6945078,20.8906032 16.2421875,20.8906032 C15.7898672,20.8906032 15.421875,20.5226099 15.421875,20.0702882 L15.421875,15.5585556 C15.421875,15.2092108 15.2006641,14.898202 14.870625,14.7836313 L3.31389844,10.7708144 C5.2749375,10.0863435 7.224,9.40827111 9.09704688,8.75721443 Z M13.78125,18.7804249 L1.640625,14.5648807 L1.640625,11.9265288 L13.78125,16.142073 L13.78125,18.7804249 Z M1.640625,16.3015969 L13.8253828,20.5324537 C14.0423281,21.6691915 15.0431641,22.5312332 16.2421875,22.5312332 C16.8530469,22.5312332 17.4122266,22.3070138 17.8428906,21.9372158 L21.984375,23.3867124 L21.984375,26.0253924 L1.640625,18.9404957 L1.640625,16.3015969 Z M21.984375,21.6484649 L18.6670313,20.4874457 C18.6903281,20.3517656 18.703125,20.2125308 18.703125,20.0703429 L18.703125,17.8633127 L21.984375,19.0117537 L21.984375,21.6484649 Z M26.359375,21.7109182 C26.359375,23.9548626 25.4625,25.3929295 23.625,26.0845644 L23.625,18.8703861 C24.2274375,18.4449707 25.3856094,17.5149522 26.359375,16.0742603 L26.359375,21.7109182 Z" id="Shape"></path>
                    <circle id="Oval" cx="22" cy="7" r="1"></circle>
                    <circle id="Oval" cx="23" cy="11" r="1"></circle>
                    <circle id="Oval" cx="21" cy="14" r="1"></circle>
                    <circle id="Oval" cx="19" cy="10" r="1"></circle>
                </g>
            </g>
        </g>
    </g>
</svg>