<?xml version="1.0" encoding="UTF-8"?>
<svg width="49px" height="52px" viewBox="0 0 49 52" version="1.1" xmlns="http://www.w3.org/2000/svg" xmlns:xlink="http://www.w3.org/1999/xlink">
    <title>refresh</title>
    <g id="Page-1" stroke="none" stroke-width="1" fill="none" fill-rule="evenodd">
        <g id="Fortship" transform="translate(-114.000000, -3316.000000)" fill="#29388C" fill-rule="nonzero">
            <g id="refresh" transform="translate(114.000000, 3316.000000)">
                <path d="M42.4494105,0.751412429 C41.4368556,0.751412429 40.6160481,1.55729915 40.6160481,2.55144759 L40.6160481,9.12679134 C31.1773521,0.154881179 16.1180418,0.394295242 6.98001853,9.66130696 C2.67349128,14.0286624 0.271009815,19.8725804 0.282889427,25.9513773 C0.282889427,26.9455257 1.10374115,27.7514124 2.11629605,27.7514124 C3.12885095,27.7514124 3.94955108,26.9455257 3.94955108,25.9513773 C3.95180693,15.0161663 12.9824087,6.15309993 24.1201903,6.15531477 C29.7766834,6.15636946 35.1725719,8.48986555 38.9918353,12.5863773 L30.8702341,15.2449281 C29.9083821,15.5591195 29.387925,16.5793187 29.7079336,17.5236859 C30.0279422,18.4680531 31.0670302,18.9790491 32.0288822,18.6648577 L43.028842,15.0648929 C43.7797182,14.8193616 44.2853511,14.1283304 44.2828894,13.3513421 L44.2828894,2.55134212 C44.2828894,1.55729915 43.4619654,0.751412429 42.4494105,0.751412429 Z" id="Path"></path>
                <path d="M46.4496932,23.7514124 C45.4371358,23.7514124 44.6163262,24.557296 44.6163262,25.5514406 C44.6140704,36.4866088 35.5834465,45.3496406 24.4456377,45.3474257 C18.7891309,45.346371 13.3932292,43.0128841 9.5739565,38.9163883 L17.6955775,36.257848 C18.6574318,35.9436578 19.1778902,34.9234625 18.8578808,33.979099 C18.5378714,33.0347355 17.4987809,32.5237414 16.5369266,32.8379316 L5.53693989,36.4378824 C4.7860619,36.6834127 4.28042774,37.3744412 4.28288943,38.1514265 L4.28288943,48.9513843 C4.28288943,49.9455289 5.103708,50.7514124 6.11626537,50.7514124 C7.12882274,50.7514124 7.94963229,49.9455289 7.94963229,48.9513843 L7.94963229,42.3759608 C17.3883513,51.3478359 32.4478058,51.1085282 41.585744,41.8414472 C45.8922817,37.4741088 48.2947691,31.6302137 48.2828894,25.5514406 C48.2828894,24.557296 47.4622505,23.7514124 46.4496932,23.7514124 Z" id="Path"></path>
            </g>
        </g>
    </g>
</svg>