<?xml version="1.0" encoding="UTF-8"?>
<svg width="40px" height="61px" viewBox="0 0 40 61" version="1.1" xmlns="http://www.w3.org/2000/svg" xmlns:xlink="http://www.w3.org/1999/xlink">
    <title>refrigerator-with-freezer</title>
    <g id="Page-1" stroke="none" stroke-width="1" fill="none" fill-rule="evenodd">
        <g id="Fortship" transform="translate(-113.000000, -3657.000000)" fill="#29388C" fill-rule="nonzero">
            <g id="refrigerator-with-freezer" transform="translate(113.000000, 3657.000000)">
                <path d="M35.2918149,0 L4.70462633,0 C2.11032028,0 0,2.11178459 0,4.69996503 L0,53.0541438 C0,55.6458795 2.11032028,57.7541089 4.70462633,57.7541089 L4.78291815,57.7541089 C4.7366548,57.9531997 4.70462633,58.1522905 4.70462633,58.3691572 C4.70462633,59.8232311 5.886121,61 7.33807829,61 L8.79359431,61 C10.2491103,61 11.4270463,59.8232311 11.4270463,58.3691572 C11.4270463,58.1522905 11.3950178,57.9531997 11.3451957,57.7541089 L28.9857651,57.7541089 C28.9359431,57.9531997 28.9074733,58.1522905 28.9074733,58.3691572 C28.9074733,59.8232311 30.0854093,61 31.5373665,61 L32.9928826,61 C34.4483986,61 35.6263345,59.8232311 35.6263345,58.3691572 C35.6263345,58.1451801 35.5907473,57.9354237 35.5409253,57.7292225 C38.0177936,57.5976804 40,55.5605548 40,53.0541438 L40,4.69996503 C39.9964413,2.11178459 37.8825623,0 35.2918149,0 Z M4.70462633,4.02803357 L35.2918149,4.02803357 C35.6619217,4.02803357 35.9608541,4.33022497 35.9608541,4.69996503 L35.9608541,21.5480242 L4.03202847,21.5480242 L4.03202847,4.69996503 C4.03202847,4.33022497 4.33451957,4.02803357 4.70462633,4.02803357 Z M35.2918149,53.7225201 L4.70462633,53.7225201 C4.33451957,53.7225201 4.03202847,53.4203287 4.03202847,53.0541438 L4.03202847,25.579613 L35.9644128,25.579613 L35.9644128,53.0541438 C35.9608541,53.4203287 35.658363,53.7225201 35.2918149,53.7225201 Z" id="Shape"></path>
                <rect id="Rectangle" x="8" y="8" width="4" height="6"></rect>
                <rect id="Rectangle" x="8" y="28" width="4" height="9"></rect>
            </g>
        </g>
    </g>
</svg>