<svg id="Layer_1" data-name="Layer 1" xmlns="http://www.w3.org/2000/svg" xmlns:xlink="http://www.w3.org/1999/xlink" viewBox="0 0 387.03 96.48"><defs><style>.cls-1{fill:#51338b;}.cls-2{fill:url(#NUTRICIA_Gradient_5);}.cls-3{fill:url(#NUTRICIA_Gradient_5-2);}.cls-4{fill:url(#NUTRICIA_Gradient_5-4);}.cls-5{fill:#2b3c90;}.cls-6{fill:url(#Icon_Gradient_5);}</style><radialGradient id="NUTRICIA_Gradient_5" cx="-811.22" cy="630.69" r="0.11" gradientTransform="matrix(1030.37, 0, 0, -636.19, 836037.9, 401240.01)" gradientUnits="userSpaceOnUse"><stop offset="0.45" stop-color="#51338b" stop-opacity="0.5"/><stop offset="1" stop-color="#51338b"/></radialGradient><radialGradient id="NUTRICIA_Gradient_5-2" cx="-811.22" cy="630.69" r="0.11" xlink:href="#NUTRICIA_Gradient_5"/><radialGradient id="NUTRICIA_Gradient_5-4" cx="-811.22" cy="630.69" r="0.11" xlink:href="#NUTRICIA_Gradient_5"/><linearGradient id="Icon_Gradient_5" x1="1.17" y1="37.03" x2="101.75" y2="37.03" gradientUnits="userSpaceOnUse"><stop offset="0" stop-color="#2b3c90"/><stop offset="0.47" stop-color="#51338b" stop-opacity="0.8"/><stop offset="0.56" stop-color="#53338d" stop-opacity="0.65"/><stop offset="0.83" stop-color="#583292" stop-opacity="0.22"/><stop offset="0.95" stop-color="#5a3294" stop-opacity="0.05"/></linearGradient></defs><path class="cls-1" d="M270,74V41.08h15.74c7.41,0,13.32,1.74,13.32,8.27a8.67,8.67,0,0,1-4.3,7.18c3.56.92,5.47,4,5.47,7.56,0,7.36-5.63,9.93-14.18,9.93Zm10.79-13.78v6.09h4.7c2.66,0,4.68-.56,4.68-3,0-2.87-2.51-3.06-5.95-3.06Zm0-11.47v5.5h4.48c2.15,0,3.7-1,3.7-2.89,0-2.59-2.1-2.61-4.38-2.61Z"/><path class="cls-1" d="M319.65,74l-.45-2.57c-2.71,2.51-5.45,3.26-9,3.26-4.53,0-8.57-2.24-8.57-7.24,0-10.89,17.05-5.95,17.05-10.43,0-1.74-2.08-2-3.09-2-1.33,0-3.11.27-3.34,2.34h-9.15c0-5.08,3.62-8.06,13.08-8.06,11.34,0,12,4.21,12,9.92V70.49a3.14,3.14,0,0,0,1.28,3.08V74Zm-1-10.62c-3.09,1.51-7.21.78-7.21,3.9,0,1.17,1.15,2,3,2C317.81,69.3,318.91,66.69,318.67,63.4Z"/><path class="cls-1" d="M341.17,75.24a1.52,1.52,0,0,0,.59,1.05,3.12,3.12,0,0,0,2.07.6c2.74,0,3.85-1.23,3.85-4.65v-2a9.23,9.23,0,0,1-6.88,2.6c-6.62,0-10.41-5.21-10.41-11.34,0-5.9,2.83-12.17,10.68-12.17a9,9,0,0,1,7.28,3.86V50.05h8.38v19.3c0,7.18-.83,12.8-12.63,12.8-8.46,0-12-3.38-12.49-6.91ZM339.9,61.62c0,2.38,1.17,4.62,3.75,4.66,2.92.14,4-2.38,4-5s-1-5.16-4-5.16S339.9,58.51,339.9,61.62Z"/><path class="cls-1" d="M371.84,49.35c8.49,0,13.67,5,13.67,12.46,0,8.77-5.93,12.9-13.62,12.9s-13.63-4.22-13.63-12.39C358.26,54,363.76,49.35,371.84,49.35Zm-4.07,12.46c0,4.52,1.7,6.48,4.12,6.48,2.57,0,4.12-2,4.12-6.48,0-3.53-1.55-6.19-4-6C368.74,55.77,367.77,59.09,367.77,61.81Z"/><polygon class="cls-1" points="367.38 47.48 373.73 47.48 381.5 40.77 372.21 40.77 367.38 47.48"/><circle class="cls-1" cx="246.67" cy="57.98" r="5.69"/><polygon class="cls-2" points="103.7 73.99 103.7 47.04 113.8 47.04 113.8 41.12 86.33 41.12 86.33 47.04 96.43 47.04 96.43 73.99 103.7 73.99"/><path class="cls-3" d="M29.67,52.58a22.5,22.5,0,0,0,2.84,5L44.33,74h6.61V41.08h-6.7V63.29h-.09a23.32,23.32,0,0,0-3-5.26l-11.64-17H22.82V74h6.75V52.58Z"/><rect class="cls-3" x="186.34" y="41.12" width="7.27" height="32.87"/><path class="cls-4" d="M208.19,41.08C202.09,50.71,198.92,63,197.11,74h7.3c.38-2.61.89-5.3,1.5-8h12.57a73.76,73.76,0,0,1,1.45,8h8C226,62.73,223,51.13,216.8,41.08ZM207,60.58a71.52,71.52,0,0,1,5.17-14h.09a72,72,0,0,1,5.16,14Z"/><path class="cls-3" d="M173.85,46.38a14.25,14.25,0,0,1,6.61,1.77l2.37-6a22.17,22.17,0,0,0-9.4-1.9c-11,0-16.3,8.51-16.3,17.69,0,9.68,6.29,16.86,16.3,16.86a23.16,23.16,0,0,0,9.45-2.28l-2-5.64a13.06,13.06,0,0,1-6.56,1.77c-5.17,0-9.69-4-9.69-10.9C164.67,52.53,167,46.38,173.85,46.38Z"/><path class="cls-3" d="M55.21,41.12V61C55.21,71.48,62,74.83,72,74.83a64.11,64.11,0,0,0,11.5-1.11V41.12H76.44V68.78a17.62,17.62,0,0,1-4.09.51c-5.13,0-9.88-1.86-9.88-7.68V41.12Z"/><rect class="cls-3" x="146.11" y="41.12" width="7.26" height="32.87"/><path class="cls-3" d="M141.44,50.44c0-8.29-7.65-9.41-14.16-9.41H116.61V73.9h7.27V60.77h2.28c.74,0,1.44.14,2.19,1.63L134.4,74h8.7l-8.89-15C138.5,58.07,141.44,55,141.44,50.44Zm-13.6,5h-4V46.75h3.53c2.89,0,6.48.47,6.48,4.24S130.63,55.46,127.84,55.46Z"/><path class="cls-5" d="M11,93.86a.51.51,0,0,1,.52.52.52.52,0,0,1-.52.52H6a.54.54,0,0,1-.56-.55v-10a.56.56,0,1,1,1.11,0v9.55Z"/><path class="cls-5" d="M14.43,94.48a.55.55,0,0,1-.55.55.56.56,0,0,1-.56-.55V84.31a.57.57,0,0,1,.56-.56.56.56,0,0,1,.55.56Z"/><path class="cls-5" d="M18.17,94.48a.56.56,0,0,1-1.12,0v-10a.56.56,0,0,1,.56-.56h5.26a.51.51,0,0,1,0,1h-4.7V89h3.6a.51.51,0,0,1,0,1h-3.6Z"/><path class="cls-5" d="M25.44,94.9a.55.55,0,0,1-.56-.55V84.44a.56.56,0,0,1,.56-.56H30.7a.51.51,0,0,1,0,1H26v3.94h3.6a.51.51,0,1,1,0,1H26v4h4.88a.51.51,0,1,1,0,1Z"/><path class="cls-5" d="M36.35,91.22H33.07a.45.45,0,0,1,0-.89h3.28a.45.45,0,0,1,0,.89Z"/><path class="cls-5" d="M36.64,84.93a.53.53,0,0,1,0-1.05h7a.53.53,0,1,1,0,1.05H40.69v9.55a.55.55,0,0,1-.56.55.54.54,0,0,1-.55-.55V84.93Z"/><path class="cls-5" d="M46.64,94.48a.56.56,0,0,1-1.12,0v-10a.56.56,0,0,1,.56-.56h3.26A3.06,3.06,0,0,1,52.47,87a3,3,0,0,1-2.94,3.13l3,4a.57.57,0,0,1,.12.35.55.55,0,0,1-.56.55.57.57,0,0,1-.48-.26l-3.32-4.63H46.64Zm0-5.36h2.73a2.11,2.11,0,0,0,0-4.22H46.64Z"/><path class="cls-5" d="M55.89,91.64l-1.2,3a.57.57,0,0,1-.54.39.57.57,0,0,1-.5-.8l4-10.1a.54.54,0,0,1,.53-.38.59.59,0,0,1,.54.38l4,10.1a.65.65,0,0,1,0,.25.57.57,0,0,1-1.11.18l-1.18-3Zm2.28-6-1.94,5h3.89Z"/><path class="cls-5" d="M72.2,84.29V94.48a.54.54,0,0,1-.55.55.56.56,0,0,1-.46-.22l-5.77-8.7v8.38a.54.54,0,0,1-.54.54.54.54,0,0,1-.54-.54V84.29a.55.55,0,0,1,.54-.54.54.54,0,0,1,.44.23l5.8,8.71v-8.4a.55.55,0,0,1,.54-.54A.54.54,0,0,1,72.2,84.29Z"/><path class="cls-5" d="M78,84.67c-1.72,0-2.37.85-2.37,1.78,0,2.72,6.19,1.56,6.19,5.51,0,2-1.41,3.17-3.93,3.17a4.26,4.26,0,0,1-3.82-2,.64.64,0,0,1-.08-.3.52.52,0,0,1,.52-.52.53.53,0,0,1,.46.26,3.3,3.3,0,0,0,2.92,1.56c1.8,0,2.82-.72,2.82-2.16,0-3.07-6.2-1.63-6.2-5.51,0-1.5,1.1-2.8,3.49-2.8a4.11,4.11,0,0,1,3.51,1.69.6.6,0,0,1,.1.31.52.52,0,0,1-.53.52.51.51,0,0,1-.42-.21A3.28,3.28,0,0,0,78,84.67Z"/><path class="cls-5" d="M84.91,94.48a.54.54,0,0,1-.55.55.55.55,0,0,1-.56-.55v-10a.56.56,0,0,1,.56-.56h5.25a.51.51,0,0,1,0,1h-4.7V89h3.61a.51.51,0,1,1,0,1H84.91Z"/><path class="cls-5" d="M91.53,89.4c0-3.88,1.93-5.75,5.11-5.75s5.11,1.87,5.11,5.75-1.93,5.73-5.11,5.73S91.53,93.25,91.53,89.4Zm1.15,0c0,3.19,1.46,4.72,4,4.72s4-1.53,4-4.72-1.46-4.73-4-4.73S92.68,86.19,92.68,89.4Z"/><path class="cls-5" d="M104.9,94.48a.56.56,0,0,1-1.12,0v-10a.56.56,0,0,1,.56-.56h3.26A3.06,3.06,0,0,1,110.73,87a3,3,0,0,1-2.93,3.13l3,4a.52.52,0,0,1,.12.35.55.55,0,0,1-.56.55.54.54,0,0,1-.47-.26l-3.33-4.63H104.9Zm0-5.36h2.73a2.11,2.11,0,0,0,0-4.22H104.9Z"/><path class="cls-5" d="M117.07,92.81l-3.43-6.37v8a.54.54,0,0,1-.54.54.54.54,0,0,1-.54-.54V84.29a.55.55,0,0,1,.54-.54.54.54,0,0,1,.49.31l4,7.42,4-7.42a.53.53,0,0,1,.49-.31.55.55,0,0,1,.54.54v10.2A.54.54,0,0,1,122,95a.54.54,0,0,1-.54-.54v-8l-3.44,6.37a.56.56,0,0,1-.49.31A.53.53,0,0,1,117.07,92.81Z"/><path class="cls-5" d="M126.31,94.48a.56.56,0,0,1-1.12,0V84.31a.56.56,0,0,1,1.12,0Z"/><path class="cls-5" d="M136.62,84.29V94.48a.54.54,0,0,1-.55.55.56.56,0,0,1-.46-.22l-5.77-8.7v8.38a.54.54,0,0,1-.54.54.54.54,0,0,1-.54-.54V84.29a.55.55,0,0,1,.54-.54.54.54,0,0,1,.44.23l5.8,8.71v-8.4a.55.55,0,0,1,.54-.54A.54.54,0,0,1,136.62,84.29Z"/><path class="cls-5" d="M146.65,92.81V90.43h-2.74a.51.51,0,0,1,0-1h3.31a.52.52,0,0,1,.51.5v2.87a.84.84,0,0,1-.21.54,4.84,4.84,0,0,1-3.92,1.8c-3.18,0-5.11-1.7-5.11-5.73s1.93-5.75,5.11-5.75a4.49,4.49,0,0,1,3.69,1.74.57.57,0,0,1,.11.34.52.52,0,0,1-.52.53.51.51,0,0,1-.43-.22,3.53,3.53,0,0,0-2.85-1.37c-2.52,0-4,1.52-4,4.73,0,3.41,1.44,4.72,4,4.72A3.78,3.78,0,0,0,146.65,92.81Z"/><path class="cls-5" d="M161.86,84.29V94.48a.54.54,0,0,1-.55.55.56.56,0,0,1-.46-.22l-5.77-8.7v8.38a.54.54,0,0,1-.54.54.54.54,0,0,1-.54-.54V84.29a.55.55,0,0,1,.54-.54A.57.57,0,0,1,155,84l5.79,8.71v-8.4a.55.55,0,0,1,.54-.54A.54.54,0,0,1,161.86,84.29Z"/><path class="cls-5" d="M164.32,91.55V84.31a.56.56,0,0,1,1.12,0v7.24c0,1.29.47,2.53,2.73,2.53s2.72-1.24,2.72-2.53V84.31a.56.56,0,0,1,.56-.56.55.55,0,0,1,.55.56v7.24c0,1.8-.73,3.58-3.83,3.58S164.32,93.35,164.32,91.55Z"/><path class="cls-5" d="M174.15,84.93a.53.53,0,0,1,0-1.05h7a.53.53,0,0,1,0,1.05H178.2v9.55a.56.56,0,0,1-1.12,0V84.93Z"/><path class="cls-5" d="M184.47,94.48a.56.56,0,0,1-1.12,0v-10a.56.56,0,0,1,.56-.56h3.26A3.06,3.06,0,0,1,190.3,87a3,3,0,0,1-2.93,3.13l3,4a.52.52,0,0,1,.12.35.55.55,0,0,1-.56.55.54.54,0,0,1-.47-.26l-3.33-4.63h-1.65Zm0-5.36h2.73a2.11,2.11,0,0,0,0-4.22h-2.68Z"/><path class="cls-5" d="M193.41,94.48a.56.56,0,0,1-1.11,0V84.31a.56.56,0,1,1,1.11,0Z"/><path class="cls-5" d="M195.64,84.93a.53.53,0,0,1,0-1.05h7a.53.53,0,0,1,0,1.05h-2.92v9.55a.54.54,0,0,1-.55.55.55.55,0,0,1-.56-.55V84.93Z"/><path class="cls-5" d="M206,94.48a.56.56,0,0,1-1.12,0V84.31a.56.56,0,0,1,1.12,0Z"/><path class="cls-5" d="M208,89.4c0-3.88,1.93-5.75,5.11-5.75s5.11,1.87,5.11,5.75-1.93,5.73-5.11,5.73S208,93.25,208,89.4Zm1.15,0c0,3.19,1.45,4.72,4,4.72s4-1.53,4-4.72-1.45-4.73-4-4.73S209.14,86.19,209.14,89.4Z"/><path class="cls-5" d="M227.94,84.29V94.48a.55.55,0,0,1-.56.55.58.58,0,0,1-.46-.22l-5.76-8.7v8.38a.54.54,0,0,1-.54.54.54.54,0,0,1-.54-.54V84.29a.54.54,0,0,1,.54-.54.54.54,0,0,1,.44.23l5.8,8.71v-8.4a.54.54,0,0,1,.54-.54A.55.55,0,0,1,227.94,84.29Z"/><path class="cls-6" d="M14.63,74A45.68,45.68,0,0,1,8.81,51.6c0-25.95,21.67-47,48.4-47a48.45,48.45,0,0,1,44.54,28.57A52.24,52.24,0,0,0,53.39.12C24.55.12,1.17,23.91,1.17,53.26A53.85,53.85,0,0,0,5.27,74Z"/></svg>