<?xml version="1.0" encoding="UTF-8"?>
<svg width="53px" height="47px" viewBox="0 0 53 47" version="1.1" xmlns="http://www.w3.org/2000/svg" xmlns:xlink="http://www.w3.org/1999/xlink">
    <title>coffee-cup</title>
    <g id="Page-1" stroke="none" stroke-width="1" fill="none" fill-rule="evenodd">
        <g id="Fortship" transform="translate(-851.000000, -3659.000000)" fill="#29388C" fill-rule="nonzero">
            <g id="coffee-cup" transform="translate(851.711461, 3659.706215)">
                <path d="M41.6220962,15.2937853 L0.288539144,15.2937853 L0.288539144,26.1685992 C0.288539144,37.2656757 9.21612096,46.2937853 20.1900284,46.2937853 C27.2783768,46.2937853 33.5125687,42.5257541 37.0386917,36.8672883 L41.6220962,36.8672883 C47.5035965,36.8672883 52.2885391,32.0284655 52.2885391,26.0807374 C52.2885391,20.1326081 47.5035965,15.2937853 41.6220962,15.2937853 Z M40.091121,24.5373371 L41.6220962,24.5373371 C42.4631607,24.5373371 43.1479141,25.229801 43.1479141,26.0803361 C43.1479141,26.9312726 42.4631607,27.6237365 41.6220962,27.6237365 L40.0387528,27.6237365 C40.0728714,27.1427027 40.091121,26.657657 40.091121,26.1685992 L40.091121,24.5373371 Z M20.1900284,43.2126014 C10.8962661,43.2126014 3.33541414,35.5666114 3.33541414,26.1685992 L3.33541414,18.3749692 L37.044246,18.3749692 L37.044246,26.1685992 C37.044246,35.5666114 29.4833939,43.2126014 20.1900284,43.2126014 Z M41.6220962,33.7861043 L38.6093399,33.7861043 C39.0112259,32.7955519 39.338527,31.7664845 39.5817215,30.7049204 L41.6220962,30.7049204 C44.143306,30.7049204 46.1947891,28.6303368 46.1947891,26.0803361 C46.1947891,23.5307367 44.143306,21.4561531 41.6220962,21.4561531 L40.0915177,21.4561531 L40.0915177,18.3749692 L41.6220962,18.3749692 C45.8234513,18.3749692 49.2416641,21.8316724 49.2416641,26.0803361 C49.2416641,30.3294011 45.8234513,33.7861043 41.6220962,33.7861043 Z" id="Shape"></path>
                <path d="M9.28853914,12.2937853 L12.2885391,12.2937853 C12.2885391,11.6473732 12.4174453,11.3901356 12.6303359,10.9638783 C12.9084609,10.4084167 13.2885391,9.64763345 13.2885391,8.29430574 C13.2885391,6.9405877 12.9084609,6.17980444 12.6303359,5.62395251 C12.4174453,5.19769528 12.2885391,4.9404576 12.2885391,4.29404552 C12.2885391,3.64763345 12.4174453,3.39000545 12.6303359,2.96374822 C12.9084609,2.40828661 13.2885391,1.64750335 13.2885391,0.293785311 L10.2885391,0.293785311 C10.2885391,0.940197383 10.1600235,1.19743506 9.94674224,1.62408262 C9.66900784,2.17954422 9.28853914,2.94032749 9.28853914,4.29404552 C9.28853914,5.64737324 9.66900784,6.4081565 9.94674224,6.96400843 C10.1600235,7.39026567 10.2885391,7.64750335 10.2885391,8.29430574 C10.2885391,8.94032749 10.1600235,9.19756507 9.94674224,9.6238224 C9.66939854,10.1792839 9.28853914,10.9400672 9.28853914,12.2937853 Z" id="Path"></path>
                <path d="M17.2885391,12.2937853 L20.2885391,12.2937853 C20.2885391,11.6473732 20.4170547,11.3901356 20.630336,10.9638783 C20.9080704,10.4084167 21.2885391,9.64763345 21.2885391,8.29430574 C21.2885391,6.9405877 20.9080704,6.17980444 20.630336,5.62395251 C20.4170547,5.19769528 20.2885391,4.9404576 20.2885391,4.29404552 C20.2885391,3.64763345 20.4170547,3.39000545 20.630336,2.96374822 C20.9080704,2.40828661 21.2885391,1.64750335 21.2885391,0.293785311 L18.2885391,0.293785311 C18.2885391,0.940197383 18.1596328,1.19743506 17.9467422,1.62408262 C17.6690078,2.17954422 17.2885391,2.94032749 17.2885391,4.29404552 C17.2885391,5.64737324 17.6690078,6.4081565 17.9463516,6.96400843 C18.1596328,7.39026567 18.2885391,7.64750335 18.2885391,8.29430574 C18.2885391,8.94032749 18.1596328,9.19756507 17.9467422,9.6238224 C17.6690078,10.1792839 17.2885391,10.9400672 17.2885391,12.2937853 Z" id="Path"></path>
                <path d="M26.2885391,12.2937853 L29.2885391,12.2937853 C29.2885391,11.6473732 29.4170547,11.3901356 29.630336,10.9638783 C29.9080703,10.4084167 30.2885391,9.64763345 30.2885391,8.29430574 C30.2885391,6.9405877 29.9080703,6.17980444 29.630336,5.62395251 C29.4170547,5.19769528 29.2885391,4.9404576 29.2885391,4.29404552 C29.2885391,3.64763345 29.4170547,3.39000545 29.630336,2.96374822 C29.9080703,2.40828661 30.2885391,1.64750335 30.2885391,0.293785311 L27.2885391,0.293785311 C27.2885391,0.940197383 27.1596329,1.19743506 26.9467422,1.62408262 C26.6690079,2.17954422 26.2885391,2.94032749 26.2885391,4.29404552 C26.2885391,5.64737324 26.6690079,6.4081565 26.9463516,6.96400843 C27.1596329,7.39026567 27.2885391,7.64750335 27.2885391,8.29430574 C27.2885391,8.94032749 27.1596329,9.19756507 26.9467422,9.6238224 C26.6690079,10.1792839 26.2885391,10.9400672 26.2885391,12.2937853 Z" id="Path"></path>
            </g>
        </g>
    </g>
</svg>