<?xml version="1.0" encoding="UTF-8"?>
<svg width="53px" height="56px" viewBox="0 0 53 56" version="1.1" xmlns="http://www.w3.org/2000/svg" xmlns:xlink="http://www.w3.org/1999/xlink">
    <title>hot</title>
    <g id="Page-1" stroke="none" stroke-width="1" fill="none" fill-rule="evenodd">
        <g id="Fortship" transform="translate(-852.000000, -3311.000000)" fill="#29388C" fill-rule="nonzero">
            <g id="hot" transform="translate(852.000000, 3311.000000)">
                <path d="M12.3,41.4545608 L12.3,18.7837838 C12.3,17.7986892 11.49405,17 10.5,17 C9.50595,17 8.7,17.7986892 8.7,18.7837838 L8.7,41.4545608 C7.1122875,42.1441047 6,43.7156182 6,45.5405405 C6,47.9994865 8.0187,50 10.5,50 C12.9813,50 15,47.9994865 15,45.5405405 C15,43.7156182 13.8877125,42.1441047 12.3,41.4545608 Z" id="Path"></path>
                <path d="M17.5,37.6726875 L17.5,7 C17.5,3.14015625 14.3598437,0 10.5,0 C6.64015625,0 3.5,3.14015625 3.5,7 L3.5,37.6726875 C1.26503125,39.6638594 0,42.4696563 0,45.5 C0,51.2897656 4.71023437,56 10.5,56 C16.2897656,56 21,51.2897656 21,45.5 C21,42.4696563 19.7349688,39.6638594 17.5,37.6726875 Z M10.5,52.5 C6.64015625,52.5 3.5,49.3598438 3.5,45.5 C3.5,43.2778281 4.52090625,41.2363438 6.30109375,39.899125 C6.74110937,39.5685938 7,39.0502656 7,38.5 L7,7 C7,5.07007813 8.57007813,3.5 10.5,3.5 C12.4299219,3.5 14,5.07007813 14,7 L14,38.4998906 C14,39.0502656 14.2588906,39.5685938 14.6989062,39.8990156 C16.4790938,41.2363438 17.5,43.2778281 17.5,45.5 C17.5,49.3598438 14.3598437,52.5 10.5,52.5 Z" id="Shape"></path>
                <g id="Group-10" transform="translate(26.000000, 0.000000)">
                    <path d="M13,6.98646783 C9.4725116,6.98646783 6.60266885,9.8967309 6.60266885,13.4739022 C6.60266885,17.0510736 9.4725116,19.9613366 13,19.9613366 C16.5274884,19.9613366 19.3973312,17.0510736 19.3973312,13.4739022 C19.3973312,9.8967309 16.5274884,6.98646783 13,6.98646783 Z M13,17.3663629 C10.883523,17.3663629 9.16160131,15.6201888 9.16160131,13.4739022 C9.16160131,11.3276157 10.883523,9.58144159 13,9.58144159 C15.116477,9.58144159 16.8383987,11.3276157 16.8383987,13.4739022 C16.8383987,15.6201888 15.116477,17.3663629 13,17.3663629 Z" id="Shape"></path>
                    <path d="M13.4921024,4.49130075 C14.307393,4.49130075 14.9684096,3.88421247 14.9684096,3.13543637 L14.9684096,1.35586438 C14.9684096,0.607088274 14.307393,0 13.4921024,0 C12.6768118,0 12.0157952,0.607088274 12.0157952,1.35586438 L12.0157952,3.13543637 C12.0157952,3.88421247 12.6768118,4.49130075 13.4921024,4.49130075 Z" id="Path"></path>
                    <path d="M13.4921024,21.4584369 C12.6768118,21.4584369 12.0157952,22.0655252 12.0157952,22.8143013 L12.0157952,24.5938733 C12.0157952,25.3426494 12.6768118,25.9497376 13.4921024,25.9497376 C14.307393,25.9497376 14.9684096,25.3426494 14.9684096,24.5938733 L14.9684096,22.8143013 C14.9684096,22.0655252 14.307393,21.4584369 13.4921024,21.4584369 Z" id="Path"></path>
                    <path d="M4.14215686,12.9748688 C4.14215686,12.1480952 3.54350037,11.4777686 2.80512394,11.4777686 L1.05026822,11.4777686 C0.311891787,11.4777686 -0.286764706,12.1480952 -0.286764706,12.9748688 C-0.286764706,13.8016424 0.311891787,14.4719691 1.05026822,14.4719691 L2.80512394,14.4719691 C3.54350037,14.4719691 4.14215686,13.8016424 4.14215686,12.9748688 Z" id="Path"></path>
                    <path d="M24.9497318,11.4777686 L23.1948761,11.4777686 C22.4564996,11.4777686 21.8578431,12.1480952 21.8578431,12.9748688 C21.8578431,13.8016424 22.4564996,14.4719691 23.1948761,14.4719691 L24.9497318,14.4719691 C25.6881082,14.4719691 26.2867647,13.8016424 26.2867647,12.9748688 C26.2867647,12.1480952 25.6881082,11.4777686 24.9497318,11.4777686 Z" id="Path"></path>
                    <path d="M5.56549431,7.13379411 C6.02780932,7.60269943 6.77763735,7.60277448 7.24002637,7.13379411 C7.70248939,6.66488879 7.70248939,5.90456873 7.24002637,5.43566341 L6.16353619,4.3440026 C5.70114717,3.87502224 4.95139315,3.87502224 4.48900413,4.3440026 C4.02654111,4.81290792 4.02654111,5.57322799 4.48900413,6.0421333 L5.56549431,7.13379411 Z" id="Path"></path>
                    <path d="M21.4180029,19.3150004 C20.9557757,18.8460263 20.2062842,18.8460263 19.744057,19.3150004 C19.2817559,19.7838994 19.2817559,20.5442092 19.744057,21.0131083 L20.8201703,22.1047544 C21.0512839,22.339279 21.3542321,22.4565037 21.6571063,22.4565037 C22.702148,22.4565037 23.2418322,21.1652303 22.4940422,20.4067216 L21.4180029,19.3150004 Z" id="Path"></path>
                    <path d="M5.56549431,19.3150051 L4.48900413,20.4066659 C4.02654111,20.8755712 4.02654111,21.6358913 4.48900413,22.1047966 C4.95131914,22.5737019 5.70114717,22.573777 6.16353619,22.1047966 L7.24002637,21.0131358 C7.70248939,20.5442305 7.70248939,19.7839104 7.24002637,19.3150051 C6.77763735,18.8460247 6.02788333,18.8460247 5.56549431,19.3150051 Z" id="Path"></path>
                    <path d="M20.5823208,7.48550124 C20.8852625,7.48550124 21.1881303,7.36827649 21.419239,7.13375193 L22.4953294,6.04210578 C22.9576208,5.57320676 22.9576208,4.8128969 22.4953294,4.34399788 C22.0331121,3.87502381 21.2836365,3.87502381 20.8214191,4.34399788 L19.7453287,5.43564403 C18.9974806,6.19430284 19.5373753,7.48550124 20.5823208,7.48550124 L20.5823208,7.48550124 Z" id="Path"></path>
                </g>
                <path d="M50.9826934,37.8829797 L48.9146807,37.8829797 L49.9487278,36.9020294 C50.4580491,36.4189383 50.4580491,35.6356162 49.9487278,35.1525251 C49.4394879,34.6693566 48.6137662,34.6693566 48.1045264,35.1525251 L45.2263594,37.8829797 L43.619499,37.8829797 C43.4124777,37.2256881 43.0450556,36.633886 42.56043,36.1477794 L43.3652051,34.8255417 L47.2972247,33.8261121 C47.9929468,33.6492828 48.4058484,32.9708831 48.2193662,32.3109627 C48.0329655,31.6511196 47.3180899,31.2593425 46.6222048,31.4361718 L45.2095695,31.7952428 L46.2437796,30.0960733 C46.6037848,29.5043486 46.3900801,28.747779 45.7663264,28.4061822 C45.1427358,28.0646628 44.3450517,28.2673167 43.984965,28.8591188 L42.9509994,30.5579016 L42.5725742,29.2181124 C42.3861735,28.558192 41.6712979,28.166415 40.9754128,28.3433216 C40.2796908,28.5201509 39.8667892,29.1985506 40.0532714,29.8584711 L41.1067165,33.5880459 L40.303001,34.9085826 C39.6041003,34.7506966 38.8888987,34.7505419 38.1891829,34.9085826 L37.3854674,33.5880459 L38.4389125,29.8584711 C38.6253132,29.1985506 38.2124931,28.5201509 37.5168526,28.3433216 C36.8211305,28.166415 36.1060919,28.5581147 35.9196097,29.2180351 L35.5411845,30.557747 L34.5072189,28.8588868 C34.1470507,28.2671621 33.3495296,28.0643535 32.7258575,28.4059503 C32.1021038,28.7474697 31.8883991,29.5041166 32.2484043,30.0958414 L33.2826959,31.7950881 L31.8701421,31.4360172 C31.1742571,31.2591106 30.4592999,31.6508876 30.2729807,32.3107307 C30.08658,32.9707284 30.4994001,33.6490509 31.1950407,33.8258801 L35.1271418,34.825387 L35.9319169,36.1475475 C35.4472914,36.633654 35.0797877,37.2253788 34.8728479,37.8827477 L33.266069,37.8827477 L30.387902,35.1523704 C29.8786622,34.669202 29.0529405,34.669202 28.5437006,35.1523704 C28.0343793,35.6354616 28.0343793,36.4187836 28.5437006,36.9018748 L29.5774217,37.8829797 L27.509409,37.8829797 C26.7892356,37.8829797 26.2053377,38.4368953 26.2053377,39.1200888 C26.2053377,39.8032824 26.7892356,40.357198 27.509409,40.357198 L29.5774217,40.357198 L28.5434561,41.3381482 C27.719446,42.1196919 28.3142656,43.4499709 29.4655161,43.4499709 C29.7992768,43.4499709 30.1329561,43.3291981 30.387576,43.0875752 L33.2658245,40.357198 L34.8726034,40.357198 C35.0796247,41.0144895 35.4470468,41.6062916 35.9316724,42.0923982 L35.1269788,43.4145586 L31.1948777,44.4140655 C30.4991556,44.5908948 30.0863355,45.2692172 30.2728177,45.929215 C30.4591369,46.5891354 31.1735235,46.9808351 31.8699791,46.8039285 L33.2826144,46.4448575 L32.2483228,48.1441816 C31.7442177,48.9728128 32.3832127,50 33.3765891,50 C33.8272272,50 34.2656397,49.7780162 34.5072189,49.3811361 L35.5411845,47.682276 L35.9196097,49.0219879 C36.0757722,49.5747437 36.6026171,49.939227 37.1784461,49.939227 C38.035873,49.939227 38.6607677,49.1669616 38.4389125,48.3816293 L37.3854674,44.6521317 L38.1891829,43.331595 C38.8880836,43.4894811 39.6032852,43.4896357 40.303001,43.331595 L41.1067165,44.6521317 L40.0533529,48.3817066 C39.8314162,49.1673482 40.4567184,49.9393043 41.3138193,49.9393043 C41.8895668,49.9393043 42.4164932,49.5747437 42.5726557,49.0220652 L42.9509994,47.6823533 L43.984965,49.3811361 C44.2265442,49.7780935 44.6648752,50 45.1155948,50 C46.1079116,50 46.7485367,48.9737406 46.2438611,48.1441816 L45.209651,46.4450122 L46.6223678,46.8040831 C47.3177638,46.981067 48.033047,46.58929 48.2195292,45.9293696 C48.4059299,45.2693719 47.9931098,44.5910495 47.2973877,44.4142202 L43.3652866,43.4147133 L42.5605115,42.0924755 C43.0451371,41.606369 43.4126407,41.0146442 43.6195805,40.3572753 L45.2265224,40.3572753 L48.1046894,43.0876525 C48.3593093,43.3292754 48.6930701,43.4500482 49.0267493,43.4500482 C50.1779998,43.4500482 50.7729009,42.1197693 49.9488093,41.3382255 L48.9147622,40.357198 L50.9826934,40.357198 C51.7029483,40.357198 52.2867647,39.8032824 52.2867647,39.1200888 C52.2867647,38.4368953 51.7029483,37.8829797 50.9826934,37.8829797 L50.9826934,37.8829797 Z M37.0315904,38.8782416 C37.0315904,37.8116811 37.9146682,36.9440228 39,36.9440228 C40.0853318,36.9440228 40.9684096,37.8116811 40.9684096,38.8782416 C40.9684096,39.9448021 40.0853318,40.8124605 39,40.8124605 C37.9146682,40.8124605 37.0315904,39.9448021 37.0315904,38.8782416 Z" id="Shape"></path>
            </g>
        </g>
    </g>
</svg>