<svg xmlns="http://www.w3.org/2000/svg" xmlns:xlink="http://www.w3.org/1999/xlink" viewBox="0 0 2500 1406.25"><defs><style>.cls-1{isolation:isolate;}.cls-2{fill:#edecec;}.cls-3,.cls-6,.cls-8{mix-blend-mode:multiply;}.cls-3,.cls-5{fill:url(#linear-gradient);}.cls-4,.cls-5,.cls-7,.cls-9{mix-blend-mode:screen;}.cls-6,.cls-7{fill:url(#linear-gradient-3);}.cls-8,.cls-9{fill:url(#linear-gradient-5);}.cls-10{mix-blend-mode:hard-light;font-size:20.7px;stroke-width:0.79px;letter-spacing:0em;}.cls-10,.cls-12,.cls-16,.cls-23,.cls-27{fill:#fff;}.cls-10,.cls-23{stroke:#fff;stroke-miterlimit:10;}.cls-10,.cls-23,.cls-55{font-family:Montserrat-LightItalic, Montserrat;font-weight:300;font-style:italic;}.cls-11{letter-spacing:-0.01em;}.cls-12{font-size:49.04px;}.cls-12,.cls-16,.cls-27,.cls-31{font-family:Montserrat-SemiBold, Montserrat;font-weight:600;}.cls-13{letter-spacing:-0.01em;}.cls-14{letter-spacing:0em;}.cls-15{letter-spacing:0em;}.cls-16{font-size:43.13px;}.cls-17{letter-spacing:-0.01em;}.cls-18{letter-spacing:-0.02em;}.cls-19{letter-spacing:0em;}.cls-20{letter-spacing:-0.01em;}.cls-21{letter-spacing:0em;}.cls-22{letter-spacing:-0.02em;}.cls-23{font-size:18.21px;stroke-width:0.69px;letter-spacing:0.01em;}.cls-24{letter-spacing:-0.01em;}.cls-25{letter-spacing:0em;}.cls-26{fill:url(#Degradado_sin_nombre_86);}.cls-27{font-size:123.58px;}.cls-28{letter-spacing:0.01em;}.cls-29{letter-spacing:-0.02em;}.cls-30{letter-spacing:0em;}.cls-31{font-size:45.89px;fill:#333689;letter-spacing:0.03em;}.cls-32{letter-spacing:0.03em;}.cls-33{letter-spacing:0.03em;}.cls-34{letter-spacing:0.02em;}.cls-35{letter-spacing:0.01em;}.cls-36{letter-spacing:0.02em;}.cls-37{letter-spacing:0.02em;}.cls-38{letter-spacing:0.03em;}.cls-39{letter-spacing:0.02em;}.cls-40{letter-spacing:0.02em;}.cls-41{letter-spacing:0.02em;}.cls-42{letter-spacing:0.03em;}.cls-43{letter-spacing:0.01em;}.cls-44{letter-spacing:0.02em;}.cls-45{letter-spacing:0.02em;}.cls-46{letter-spacing:0.02em;}.cls-47{letter-spacing:0.04em;}.cls-48,.cls-55{font-size:59.25px;fill:#443c84;}.cls-48{font-family:Montserrat-Bold, Montserrat;font-weight:700;letter-spacing:0em;}.cls-49,.cls-55{letter-spacing:0em;}.cls-50{letter-spacing:-0.02em;}.cls-51{letter-spacing:-0.01em;}.cls-52{letter-spacing:0.01em;}.cls-53{letter-spacing:-0.02em;}.cls-54{letter-spacing:-0.01em;}.cls-56{letter-spacing:0em;}.cls-57{letter-spacing:-0.02em;}.cls-58{letter-spacing:-0.02em;}</style><linearGradient id="linear-gradient" x1="153.54" y1="967" x2="729.78" y2="967" gradientUnits="userSpaceOnUse"><stop offset="0" stop-color="#4c2f88"/><stop offset="0.73" stop-color="#33358b"/><stop offset="1" stop-color="#29388c"/></linearGradient><linearGradient id="linear-gradient-3" x1="645.35" y1="967" x2="1221.59" y2="967" xlink:href="#linear-gradient"/><linearGradient id="linear-gradient-5" x1="1139.84" y1="967" x2="1716.09" y2="967" xlink:href="#linear-gradient"/><linearGradient id="Degradado_sin_nombre_86" x1="-1" y1="155.54" x2="2500" y2="155.54" gradientUnits="userSpaceOnUse"><stop offset="0.48" stop-color="#502882"/><stop offset="0.99" stop-color="#2e2f84"/></linearGradient></defs><g class="cls-1"><g id="Capa_1" data-name="Capa 1"><rect class="cls-2" x="-0.5" y="-0.38" width="2500.5" height="1407"/><circle class="cls-3" cx="441.66" cy="967" r="288.12"/><g class="cls-4"><circle class="cls-5" cx="441.66" cy="967" r="288.12"/></g><circle class="cls-6" cx="933.47" cy="967" r="288.12"/><g class="cls-4"><circle class="cls-7" cx="933.47" cy="967" r="288.12"/></g><circle class="cls-8" cx="1427.97" cy="967" r="288.12"/><g class="cls-4"><circle class="cls-9" cx="1427.97" cy="967" r="288.12"/></g><text class="cls-10" transform="translate(498.1 994.35)">2<tspan class="cls-11" x="11.76" y="0">, 3, 4</tspan></text><text class="cls-12" transform="translate(211.38 959.05)">Mejo<tspan class="cls-13" x="123.43" y="0">r</tspan><tspan x="143.64" y="0">a el est</tspan><tspan class="cls-14" x="321.7" y="0">a</tspan><tspan x="351.72" y="0">do </tspan><tspan x="0" y="58.85">nut</tspan><tspan class="cls-15" x="87.78" y="58.85">r</tspan><tspan x="108.14" y="58.85">icional</tspan></text><text class="cls-16" transform="translate(780.76 925.7)">Mejo<tspan class="cls-17" x="108.55" y="0">r</tspan><tspan x="126.32" y="0">a la </tspan><tspan class="cls-18" x="0" y="51.75">t</tspan><tspan x="17.51" y="51.75">ole</tspan><tspan class="cls-17" x="84.62" y="51.75">r</tspan><tspan x="102.38" y="51.75">a</tspan><tspan class="cls-19" x="128.56" y="51.75">n</tspan><tspan x="158.32" y="51.75">cia al </tspan><tspan x="0" y="103.51">t</tspan><tspan class="cls-20" x="18.29" y="103.51">r</tspan><tspan class="cls-21" x="36.05" y="103.51">atamien</tspan><tspan class="cls-22" x="220.94" y="103.51">t</tspan><tspan class="cls-21" x="238.45" y="103.51">o</tspan></text><text class="cls-23" transform="translate(1061.45 1012.08)">2<tspan class="cls-24" x="10.34" y="0">, 3, 4</tspan></text><text class="cls-16" transform="translate(1270.87 959.02)">Mejo<tspan class="cls-17" x="108.55" y="0">r</tspan><tspan x="126.32" y="0">a la calid</tspan><tspan class="cls-19" x="320.74" y="0">a</tspan><tspan class="cls-25" x="347.13" y="0">d </tspan><tspan x="0" y="51.75">de vida</tspan></text><text class="cls-23" transform="translate(1444.75 997.66)">2<tspan class="cls-24" x="10.34" y="0">, 3, 4</tspan></text><rect class="cls-26" x="-1" y="29.14" width="2501" height="252.79"/><text class="cls-27" transform="translate(629.25 204.17)">Sopo<tspan class="cls-28" x="321.92" y="0">r</tspan><tspan class="cls-29" x="375.67" y="0">t</tspan><tspan x="425.84" y="0">e Nut</tspan><tspan class="cls-30" x="773.46" y="0">r</tspan><tspan x="824.75" y="0">icional</tspan></text><text class="cls-31" transform="translate(252 413.78)">L<tspan class="cls-32" x="28.86" y="0">a dieta puede seguir sie</tspan><tspan class="cls-33" x="620.09" y="0">n</tspan><tspan class="cls-34" x="652.9" y="0">do insuficien</tspan><tspan class="cls-35" x="973.78" y="0">t</tspan><tspan class="cls-34" x="993.55" y="0">e a pesar de en</tspan><tspan class="cls-36" x="1368.62" y="0">r</tspan><tspan class="cls-34" x="1388.81" y="0">ique</tspan><tspan class="cls-37" x="1497.93" y="0">c</tspan><tspan class="cls-38" x="1525.37" y="0">e</tspan><tspan class="cls-39" x="1555.05" y="0">r</tspan><tspan class="cls-40" x="1575.24" y="0">la </tspan><tspan class="cls-41" x="1632.46" y="0">c</tspan><tspan class="cls-34" x="1659.9" y="0">on ali</tspan><tspan class="cls-42" x="1794.85" y="0">m</tspan><tspan class="cls-38" x="1844.54" y="0">en</tspan><tspan class="cls-43" x="1906.81" y="0">t</tspan><tspan class="cls-38" x="1926.59" y="0">os </tspan><tspan class="cls-36"><tspan x="9.13" y="50.74">r</tspan><tspan class="cls-32" x="29.32" y="50.74">i</tspan><tspan class="cls-44" x="43.73" y="50.74">c</tspan><tspan class="cls-34" x="71.17" y="50.74">os en e</tspan><tspan class="cls-42" x="246.27" y="50.74">n</tspan><tspan class="cls-32" x="279.07" y="50.74">e</tspan><tspan class="cls-45" x="308.76" y="50.74">r</tspan><tspan class="cls-34" x="328.72" y="50.74">gía y p</tspan><tspan class="cls-45" x="493.04" y="50.74">r</tspan><tspan class="cls-32" x="513" y="50.74">o</tspan><tspan class="cls-43" x="543.74" y="50.74">t</tspan><tspan class="cls-38" x="563.52" y="50.74">eínas. En es</tspan><tspan class="cls-43" x="852.87" y="50.74">t</tspan><tspan class="cls-38" x="872.65" y="50.74">e cas</tspan><tspan class="cls-46" x="997.73" y="50.74">o</tspan><tspan class="cls-38" x="1028.01" y="50.74">, el </tspan><tspan class="cls-42" x="1112.07" y="50.74">m</tspan><tspan class="cls-38" x="1161.77" y="50.74">édi</tspan><tspan class="cls-41" x="1238.53" y="50.74">c</tspan><tspan class="cls-34" x="1265.97" y="50.74">o puede </tspan><tspan class="cls-46" x="1481.41" y="50.74">r</tspan><tspan class="cls-34" x="1501.37" y="50.74">e</tspan><tspan class="cls-41" x="1531.05" y="50.74">c</tspan><tspan class="cls-34" x="1558.49" y="50.74">o</tspan><tspan class="cls-42" x="1589.24" y="50.74">m</tspan><tspan class="cls-38" x="1638.93" y="50.74">e</tspan><tspan class="cls-42" x="1668.62" y="50.74">n</tspan><tspan class="cls-38" x="1701.43" y="50.74">dar sopo</tspan><tspan class="cls-47" x="1916.22" y="50.74">r</tspan><tspan class="cls-35" x="1937.32" y="50.74">t</tspan><tspan class="cls-38" x="1957.1" y="50.74">e</tspan></tspan><tspan class="cls-34"><tspan x="555.74" y="101.48">nut</tspan><tspan class="cls-39" x="641.32" y="101.48">r</tspan><tspan class="cls-40" x="661.51" y="101.48">icional o</tspan><tspan class="cls-37" x="869.41" y="101.48">r</tspan><tspan x="889.46" y="101.48">al o nut</tspan><tspan class="cls-39" x="1076.81" y="101.48">r</tspan><tspan class="cls-40" x="1097" y="101.48">ición </tspan><tspan class="cls-42" x="1230.76" y="101.48">m</tspan><tspan x="1280.45" y="101.48">édica. </tspan></tspan></text><text class="cls-48" transform="translate(1800.29 823.74)">L<tspan class="cls-49" x="35.85" y="0">a in</tspan><tspan class="cls-50" x="146.77" y="0">t</tspan><tspan class="cls-51" x="171.24" y="0">e</tspan><tspan class="cls-52" x="208.34" y="0">r</tspan><tspan class="cls-53" x="234.47" y="0">v</tspan><tspan class="cls-51" x="268.72" y="0">e</tspan><tspan x="305.81" y="0">n</tspan><tspan class="cls-51" x="346.81" y="0">ción </tspan><tspan class="cls-51"><tspan x="0" y="58.8">nut</tspan><tspan class="cls-54" x="106.54" y="58.8">r</tspan><tspan x="131.55" y="58.8">icional</tspan></tspan></text><text class="cls-55" transform="translate(1811.01 984.33)">puede ayudar a<tspan class="cls-56"><tspan x="0" y="58.8">m</tspan><tspan class="cls-51" x="62.81" y="58.8">ejo</tspan><tspan class="cls-57" x="149.85" y="58.8">r</tspan><tspan class="cls-49" x="172.07" y="58.8">ar el es</tspan><tspan class="cls-58" x="378.16" y="58.8">t</tspan><tspan class="cls-49" x="400.32" y="58.8">ado</tspan></tspan><tspan x="0" y="117.59">del pacien</tspan><tspan class="cls-58" x="306.82" y="117.59">t</tspan><tspan class="cls-51" x="328.98" y="117.59">e.</tspan></text></g></g></svg>