<svg xmlns="http://www.w3.org/2000/svg" width="199.117" height="201" viewBox="0 0 199.117 201">
  <g id="Icono_Comida" data-name="Icono Comida" transform="translate(-46.53 -22.502)">
    <path id="Path_281" data-name="Path 281" d="M373.846,24.567h0a6.268,6.268,0,0,0-8.653-.617L288.46,88h19.794L372.917,33.54a6.362,6.362,0,0,0,.928-8.973Z" transform="translate(-129.625 0)" fill="#c3c3c3"/>
    <path id="Path_282" data-name="Path 282" d="M271.442,59.076h0a6.419,6.419,0,0,0-1.857-8.662,6.139,6.139,0,0,0-8.662,1.857l-33.093,50.12h15.152Z" transform="translate(-97.14 -14.395)" fill="#c3c3c3"/>
    <path id="Path_283" data-name="Path 283" d="M167.17,403.52h0v16.089a7.988,7.988,0,0,0,8.049,8.04H234.93a8.138,8.138,0,0,0,7.729-8.04V403.52a112.857,112.857,0,0,1-75.489,0Z" transform="translate(-64.638 -204.148)" fill="#fff"/>
    <path id="Path_284" data-name="Path 284" d="M46.53,190.25H234.013a93.742,93.742,0,1,1-187.483,0Z" transform="translate(0 -89.879)" fill="#fff"/>
  </g>
</svg>
