<svg xmlns="http://www.w3.org/2000/svg" width="201.628" height="185.178" viewBox="0 0 201.628 185.178">
  <g id="Icono_Corazon" data-name="Icono Corazon" transform="translate(-8.68 -10.65)">
    <path id="Path_279" data-name="Path 279" d="M52.416,97.2,65.135,50.044H75.992l22.333,82.2,8.069-30.714L111.97,97.2h20.784l12.719-47.151h11.476L169.356,97.2H205.97a78.811,78.811,0,0,0,4.338-25.749c0-33.81-26.052-60.8-58-60.8-17.065,0-31.952,7.45-42.809,19.238A57.033,57.033,0,0,0,67,10.65c-31.952,0-58.324,26.991-58.324,60.8A87.618,87.618,0,0,0,13.026,97.2h39.39Z" transform="translate(0 0)" fill="#fff"/>
    <path id="Path_280" data-name="Path 280" d="M177.8,202.076l-5.576-4.35-8.381-30.706-8.377,30.706-5.58,4.35H129.414L116.7,249.223H105.527l-22.333-82.2-8.069,30.706-5.576,4.35H30.15c24.5,52.728,92.126,86.845,92.126,86.845S189.895,254.8,214.4,202.076H177.8Z" transform="translate(-12.782 -93.093)" fill="#c3c3c3"/>
  </g>
</svg>
