<svg id="Layer_1" data-name="Layer 1" xmlns="http://www.w3.org/2000/svg" viewBox="0 0 384.35 95.02"><polygon points="102.53 73.88 102.53 46.92 112.63 46.92 112.63 41.01 85.16 41.01 85.16 46.92 95.27 46.92 95.27 73.88 102.53 73.88"/><path d="M61.37,85.34a22.73,22.73,0,0,0,2.84,5L76,106.71h6.61V73.84H75.94V96.05h-.09a22.88,22.88,0,0,0-3-5.26l-11.64-17H54.52v32.87h6.75V85.34Z" transform="translate(-32.87 -32.87)"/><rect x="185.17" y="41" width="7.27" height="32.87"/><path d="M239.89,73.83c-6.09,9.64-9.27,21.88-11.08,32.92h7.31c.38-2.61.88-5.31,1.49-8h12.57a69.34,69.34,0,0,1,1.45,8h8c-1.91-11.27-5-22.86-11.13-32.92Zm-1.21,19.51a72.58,72.58,0,0,1,5.17-14h.1a72.7,72.7,0,0,1,5.16,14Z" transform="translate(-32.87 -32.87)"/><path d="M205.55,79.14a14.23,14.23,0,0,1,6.61,1.76l2.38-6A22.25,22.25,0,0,0,205.13,73c-11,0-16.3,8.52-16.3,17.69,0,9.69,6.29,16.86,16.3,16.86a23.21,23.21,0,0,0,9.46-2.28l-2-5.64a13,13,0,0,1-6.57,1.77c-5.17,0-9.68-4-9.68-10.89C196.38,85.28,198.71,79.14,205.55,79.14Z" transform="translate(-32.87 -32.87)"/><path d="M86.91,73.87V93.71c0,10.53,6.8,13.88,16.81,13.88a63.22,63.22,0,0,0,11.5-1.12V73.87h-7.07v27.66a17.19,17.19,0,0,1-4.1.52c-5.13,0-9.87-1.87-9.87-7.69V73.87Z" transform="translate(-32.87 -32.87)"/><rect x="144.94" y="41" width="7.26" height="32.87"/><path d="M173.14,83.19c0-8.29-7.64-9.41-14.16-9.41H148.32v32.88h7.26V93.52h2.28c.75,0,1.45.14,2.19,1.63l6.06,11.61h8.7l-8.89-15.05C170.2,90.82,173.14,87.7,173.14,83.19Zm-13.6,5h-4v-8.7h3.54c2.89,0,6.47.47,6.47,4.24S162.33,88.21,159.54,88.21Z" transform="translate(-32.87 -32.87)"/><path d="M42.71,126.61a.53.53,0,1,1,0,1h-5a.56.56,0,0,1-.56-.56v-10a.56.56,0,0,1,1.12,0v9.55Z" transform="translate(-32.87 -32.87)"/><path d="M46.14,127.23a.56.56,0,0,1-1.12,0V117.06a.56.56,0,0,1,1.12,0Z" transform="translate(-32.87 -32.87)"/><path d="M49.87,127.23a.56.56,0,1,1-1.11,0v-10a.54.54,0,0,1,.55-.55h5.26a.51.51,0,1,1,0,1h-4.7v4.08h3.6a.51.51,0,1,1,0,1h-3.6Z" transform="translate(-32.87 -32.87)"/><path d="M57.14,127.66a.55.55,0,0,1-.55-.56v-9.91a.54.54,0,0,1,.55-.55H62.4a.51.51,0,1,1,0,1H57.7v3.95h3.6a.51.51,0,0,1,.51.51.5.5,0,0,1-.51.5H57.7v4h4.88a.51.51,0,0,1,0,1Z" transform="translate(-32.87 -32.87)"/><path d="M68.05,124H64.78a.44.44,0,0,1-.45-.44.45.45,0,0,1,.45-.44h3.27a.44.44,0,0,1,.44.44A.43.43,0,0,1,68.05,124Z" transform="translate(-32.87 -32.87)"/><path d="M68.35,117.68a.51.51,0,0,1-.53-.52.52.52,0,0,1,.53-.52h7a.52.52,0,0,1,.52.52.51.51,0,0,1-.52.52H72.39v9.55a.56.56,0,1,1-1.11,0v-9.55Z" transform="translate(-32.87 -32.87)"/><path d="M78.34,127.23a.56.56,0,0,1-.56.56.55.55,0,0,1-.55-.56v-10a.54.54,0,0,1,.55-.55H81a3.05,3.05,0,0,1,3.13,3.12,3,3,0,0,1-2.93,3.13l3,4a.55.55,0,0,1,.11.34.56.56,0,0,1-1,.3L80,122.89H78.34Zm0-5.35h2.73a2.12,2.12,0,0,0,0-4.23H78.34Z" transform="translate(-32.87 -32.87)"/><path d="M87.59,124.4l-1.19,3a.56.56,0,0,1-1.1-.17.69.69,0,0,1,0-.24l4-10.11a.54.54,0,0,1,.52-.37.58.58,0,0,1,.54.37l4,10.11a.86.86,0,0,1,0,.24.56.56,0,0,1-.58.56.55.55,0,0,1-.54-.38l-1.18-3Zm2.28-6-1.93,5h3.88Z" transform="translate(-32.87 -32.87)"/><path d="M103.91,117.05v10.18a.56.56,0,0,1-.56.56.55.55,0,0,1-.46-.23l-5.76-8.7v8.39a.55.55,0,0,1-.54.54.54.54,0,0,1-.54-.54v-10.2a.54.54,0,0,1,.54-.54.57.57,0,0,1,.44.22l5.8,8.72v-8.4a.54.54,0,0,1,.54-.54A.54.54,0,0,1,103.91,117.05Z" transform="translate(-32.87 -32.87)"/><path d="M109.66,117.42c-1.72,0-2.38.85-2.38,1.79,0,2.72,6.19,1.55,6.19,5.5,0,2.05-1.41,3.18-3.93,3.18a4.21,4.21,0,0,1-3.81-2,.53.53,0,0,1-.09-.29.52.52,0,0,1,.53-.53.53.53,0,0,1,.46.27,3.26,3.26,0,0,0,2.91,1.55c1.8,0,2.82-.72,2.82-2.16,0-3.06-6.19-1.62-6.19-5.5,0-1.51,1.1-2.8,3.49-2.8a4.09,4.09,0,0,1,3.5,1.68.53.53,0,0,1,.1.32.52.52,0,0,1-.52.52.53.53,0,0,1-.43-.21A3.23,3.23,0,0,0,109.66,117.42Z" transform="translate(-32.87 -32.87)"/><path d="M116.62,127.23a.56.56,0,1,1-1.12,0v-10a.55.55,0,0,1,.56-.55h5.26a.51.51,0,1,1,0,1h-4.7v4.08h3.6a.51.51,0,0,1,0,1h-3.6Z" transform="translate(-32.87 -32.87)"/><path d="M123.24,122.16c0-3.89,1.93-5.75,5.11-5.75s5.11,1.86,5.11,5.75-1.94,5.73-5.11,5.73S123.24,126,123.24,122.16Zm1.14,0c0,3.19,1.46,4.71,4,4.71s4-1.52,4-4.71-1.46-4.74-4-4.74S124.38,119,124.38,122.16Z" transform="translate(-32.87 -32.87)"/><path d="M136.6,127.23a.56.56,0,1,1-1.11,0v-10a.54.54,0,0,1,.55-.55h3.26a3.05,3.05,0,0,1,3.13,3.12,3,3,0,0,1-2.93,3.13l3,4a.57.57,0,0,1-.45.9.56.56,0,0,1-.47-.26l-3.32-4.64H136.6Zm0-5.35h2.74a2.12,2.12,0,0,0-.05-4.23H136.6Z" transform="translate(-32.87 -32.87)"/><path d="M148.77,125.56l-3.42-6.37v8.06a.55.55,0,0,1-.54.54.54.54,0,0,1-.54-.54v-10.2a.54.54,0,0,1,.54-.54.53.53,0,0,1,.49.31l4,7.42,4-7.42a.54.54,0,0,1,1,.23v10.2a.54.54,0,0,1-.54.54.55.55,0,0,1-.54-.54v-8.06l-3.44,6.37a.52.52,0,0,1-.49.31A.55.55,0,0,1,148.77,125.56Z" transform="translate(-32.87 -32.87)"/><path d="M158,127.23a.57.57,0,0,1-.56.56.56.56,0,0,1-.55-.56V117.06a.55.55,0,0,1,.55-.55.56.56,0,0,1,.56.55Z" transform="translate(-32.87 -32.87)"/><path d="M168.33,117.05v10.18a.56.56,0,0,1-.56.56.55.55,0,0,1-.46-.23l-5.76-8.7v8.39a.55.55,0,0,1-.54.54.54.54,0,0,1-.54-.54v-10.2a.54.54,0,0,1,.54-.54.57.57,0,0,1,.44.22l5.8,8.72v-8.4a.54.54,0,0,1,.54-.54A.54.54,0,0,1,168.33,117.05Z" transform="translate(-32.87 -32.87)"/><path d="M178.35,125.56v-2.37h-2.73a.51.51,0,0,1,0-1h3.3a.52.52,0,0,1,.51.51v2.87a.8.8,0,0,1-.21.54,4.85,4.85,0,0,1-3.91,1.8c-3.18,0-5.11-1.7-5.11-5.73s1.93-5.75,5.11-5.75a4.5,4.5,0,0,1,3.68,1.73.62.62,0,0,1,.12.35.52.52,0,0,1-.53.52.51.51,0,0,1-.42-.21,3.55,3.55,0,0,0-2.85-1.38c-2.53,0-4,1.53-4,4.74,0,3.4,1.44,4.71,4,4.71A3.76,3.76,0,0,0,178.35,125.56Z" transform="translate(-32.87 -32.87)"/><path d="M193.57,117.05v10.18a.56.56,0,0,1-.56.56.55.55,0,0,1-.46-.23l-5.76-8.7v8.39a.55.55,0,0,1-.54.54.54.54,0,0,1-.54-.54v-10.2a.54.54,0,0,1,.54-.54.57.57,0,0,1,.44.22l5.8,8.72v-8.4a.54.54,0,0,1,.54-.54A.54.54,0,0,1,193.57,117.05Z" transform="translate(-32.87 -32.87)"/><path d="M196,124.3v-7.24a.54.54,0,0,1,.55-.55.55.55,0,0,1,.56.55v7.24c0,1.3.47,2.54,2.73,2.54s2.72-1.24,2.72-2.54v-7.24a.56.56,0,0,1,1.12,0v7.24c0,1.8-.74,3.59-3.84,3.59S196,126.1,196,124.3Z" transform="translate(-32.87 -32.87)"/><path d="M205.85,117.68a.51.51,0,0,1-.52-.52.52.52,0,0,1,.52-.52h7a.52.52,0,0,1,.53.52.51.51,0,0,1-.53.52H209.9v9.55a.56.56,0,0,1-.56.56.55.55,0,0,1-.55-.56v-9.55Z" transform="translate(-32.87 -32.87)"/><path d="M216.17,127.23a.56.56,0,1,1-1.11,0v-10a.54.54,0,0,1,.56-.55h3.25a3.05,3.05,0,0,1,3.13,3.12,3,3,0,0,1-2.93,3.13l3,4a.57.57,0,0,1-.44.9.57.57,0,0,1-.48-.26l-3.32-4.64h-1.66Zm0-5.35h2.74a2.12,2.12,0,0,0,0-4.23h-2.69Z" transform="translate(-32.87 -32.87)"/><path d="M225.12,127.23a.56.56,0,1,1-1.12,0V117.06a.56.56,0,0,1,1.12,0Z" transform="translate(-32.87 -32.87)"/><path d="M227.34,117.68a.51.51,0,0,1-.52-.52.52.52,0,0,1,.52-.52h7a.52.52,0,0,1,.53.52.51.51,0,0,1-.53.52h-2.91v9.55a.56.56,0,0,1-1.12,0v-9.55Z" transform="translate(-32.87 -32.87)"/><path d="M237.66,127.23a.56.56,0,1,1-1.11,0V117.06a.56.56,0,0,1,1.11,0Z" transform="translate(-32.87 -32.87)"/><path d="M239.69,122.16c0-3.89,1.94-5.75,5.11-5.75s5.11,1.86,5.11,5.75-1.93,5.73-5.11,5.73S239.69,126,239.69,122.16Zm1.15,0c0,3.19,1.46,4.71,4,4.71s4-1.52,4-4.71-1.46-4.74-4-4.74S240.84,119,240.84,122.16Z" transform="translate(-32.87 -32.87)"/><path d="M259.64,117.05v10.18a.55.55,0,0,1-.55.56.54.54,0,0,1-.46-.23l-5.77-8.7v8.39a.54.54,0,0,1-.54.54.55.55,0,0,1-.54-.54v-10.2a.54.54,0,0,1,.54-.54.56.56,0,0,1,.44.22l5.8,8.72v-8.4a.54.54,0,0,1,.54-.54A.54.54,0,0,1,259.64,117.05Z" transform="translate(-32.87 -32.87)"/><path d="M301.73,106.77V73.83h15.74c7.41,0,13.32,1.74,13.32,8.27a8.68,8.68,0,0,1-4.3,7.19c3.56.91,5.47,4,5.47,7.56,0,7.35-5.63,9.92-14.18,9.92ZM312.52,93v6.09h4.71c2.66,0,4.67-.56,4.67-3,0-2.87-2.5-3.07-5.95-3.07Zm0-11.46V87H317c2.15,0,3.71-1,3.71-2.89,0-2.58-2.11-2.6-4.39-2.6Z" transform="translate(-32.87 -32.87)"/><path d="M351.36,106.77l-.46-2.57c-2.7,2.52-5.45,3.26-9,3.26-4.53,0-8.57-2.23-8.57-7.24,0-10.88,17.05-5.94,17.05-10.42,0-1.75-2.08-2-3.09-2-1.33,0-3.11.27-3.34,2.34h-9.15c0-5.09,3.62-8.07,13.09-8.07,11.33,0,12,4.21,12,9.93v11.21c0,1.37,0,2.07,1.27,3.08v.45Zm-1-10.62c-3.09,1.52-7.21.78-7.21,3.9,0,1.18,1.15,2,3,2C349.51,102.05,350.61,99.44,350.37,96.15Z" transform="translate(-32.87 -32.87)"/><path d="M372.88,108a1.52,1.52,0,0,0,.59,1.06,3.13,3.13,0,0,0,2.07.6c2.74,0,3.84-1.23,3.84-4.66v-2a9.22,9.22,0,0,1-6.87,2.6c-6.63,0-10.42-5.21-10.42-11.34,0-5.9,2.83-12.18,10.69-12.18A9.05,9.05,0,0,1,380.05,86V82.8h8.39v19.3c0,7.18-.84,12.8-12.63,12.8-8.46,0-12-3.38-12.49-6.91ZM371.6,94.37c0,2.38,1.18,4.63,3.75,4.67,2.93.14,4-2.39,4-5s-1-5.16-4-5.16S371.6,91.26,371.6,94.37Z" transform="translate(-32.87 -32.87)"/><path d="M403.55,82.1c8.48,0,13.67,5,13.67,12.46,0,8.78-5.94,12.9-13.63,12.9S390,103.24,390,95.07C390,86.74,395.46,82.1,403.55,82.1Zm-4.07,12.46c0,4.52,1.69,6.48,4.11,6.48,2.57,0,4.12-2,4.12-6.48,0-3.53-1.55-6.18-4-6C400.44,88.52,399.48,91.85,399.48,94.56Z" transform="translate(-32.87 -32.87)"/><polygon points="366.21 47.37 372.56 47.37 380.34 40.65 371.04 40.65 366.21 47.37"/><circle cx="245.51" cy="57.86" r="5.69"/><path d="M126.28,53.93A50,50,0,0,0,85.09,32.87c-28.84,0-52.22,23.8-52.22,53.15A53.67,53.67,0,0,0,37,106.71h9.35a45.7,45.7,0,0,1-5.81-22.35c0-26,21.67-47,48.4-47a50.35,50.35,0,0,1,37.36,16.57" transform="translate(-32.87 -32.87)"/></svg>