<?xml version="1.0" encoding="UTF-8"?>
<svg width="385px" height="96px" viewBox="0 0 385 96" version="1.1" xmlns="http://www.w3.org/2000/svg" xmlns:xlink="http://www.w3.org/1999/xlink">
    <title>Nutricia_Logo_Bago_Black_RGB_Solid</title>
    <g id="Page-1" stroke="none" stroke-width="1" fill="none" fill-rule="evenodd">
        <g id="Nutricia_Logo_Bago_Black_RGB_Solid" fill="#8C8C8C" fill-rule="nonzero">
            <polygon id="Path" points="102.530018 73.8817301 102.530018 46.9217301 112.630018 46.9217301 112.630018 41.0117301 85.160018 41.0117301 85.160018 46.9217301 95.270018 46.9217301 95.270018 73.8817301"></polygon>
            <path d="M28.500018,52.4717301 C29.2311994,54.2519036 30.1855006,55.9320113 31.340018,57.4717301 L43.130018,73.8417301 L49.740018,73.8417301 L49.740018,40.9717301 L43.070018,40.9717301 L43.070018,63.1817301 L42.980018,63.1817301 C42.2174762,61.3032268 41.2086432,59.5344063 39.980018,57.9217301 L28.340018,40.9217301 L21.650018,40.9217301 L21.650018,73.7917301 L28.400018,73.7917301 L28.400018,52.4717301 L28.500018,52.4717301 Z" id="Path"></path>
            <rect id="Rectangle" x="185.170018" y="41.0017301" width="7.27" height="32.87"></rect>
            <path d="M207.020018,40.9617301 C200.930018,50.6017301 197.750018,62.8417301 195.940018,73.8817301 L203.250018,73.8817301 C203.630018,71.2717301 204.130018,68.5717301 204.740018,65.8817301 L217.310018,65.8817301 C217.949408,68.5177408 218.433573,71.1889981 218.760018,73.8817301 L226.760018,73.8817301 C224.850018,62.6117301 221.760018,51.0217301 215.630018,40.9617301 L207.020018,40.9617301 Z M205.810018,60.4717301 C207.047712,55.6398119 208.780202,50.9483502 210.980018,46.4717301 L211.080018,46.4717301 C213.275617,50.9490762 215.004721,55.6404441 216.240018,60.4717301 L205.810018,60.4717301 Z" id="Shape"></path>
            <path d="M172.680018,46.2717301 C174.993679,46.3122268 177.26256,46.9163463 179.290018,48.0317301 L181.670018,42.0317301 C178.708976,40.7212133 175.497571,40.0727895 172.260018,40.1317301 C161.260018,40.1317301 155.960018,48.6517301 155.960018,57.8217301 C155.960018,67.5117301 162.250018,74.6817301 172.260018,74.6817301 C175.539033,74.5987173 178.763216,73.8216415 181.720018,72.4017301 L179.720018,66.7617301 C177.725999,67.9245579 175.458322,68.5354848 173.150018,68.5317301 C167.980018,68.5317301 163.470018,64.5317301 163.470018,57.6417301 C163.510018,52.4117301 165.840018,46.2717301 172.680018,46.2717301 Z" id="Path"></path>
            <path d="M54.040018,41.0017301 L54.040018,60.8417301 C54.040018,71.3717301 60.840018,74.7217301 70.850018,74.7217301 C74.7095026,74.7002136 78.5589088,74.3253149 82.350018,73.6017301 L82.350018,41.0017301 L75.280018,41.0017301 L75.280018,68.6617301 C73.939237,68.9993184 72.5626237,69.1739133 71.180018,69.1817301 C66.050018,69.1817301 61.310018,67.3117301 61.310018,61.4917301 L61.310018,41.0017301 L54.040018,41.0017301 Z" id="Path"></path>
            <rect id="Rectangle" x="144.940018" y="41.0017301" width="7.26" height="32.87"></rect>
            <path d="M140.270018,50.3217301 C140.270018,42.0317301 132.630018,40.9117301 126.110018,40.9117301 L115.450018,40.9117301 L115.450018,73.7917301 L122.710018,73.7917301 L122.710018,60.6517301 L124.990018,60.6517301 C125.740018,60.6517301 126.440018,60.7917301 127.180018,62.2817301 L133.240018,73.8917301 L141.940018,73.8917301 L133.050018,58.8417301 C137.330018,57.9517301 140.270018,54.8317301 140.270018,50.3217301 Z M126.670018,55.3217301 L122.670018,55.3217301 L122.670018,46.6217301 L126.210018,46.6217301 C129.100018,46.6217301 132.680018,47.0917301 132.680018,50.8617301 C132.680018,54.6317301 129.460018,55.3417301 126.670018,55.3417301 L126.670018,55.3217301 Z" id="Shape"></path>
            <path d="M9.840018,93.7417301 C10.0595723,93.6645418 10.3037942,93.7396119 10.4420843,93.9267962 C10.5803745,94.1139805 10.5803745,94.3694797 10.4420843,94.5566639 C10.3037942,94.7438482 10.0595723,94.8189183 9.840018,94.7417301 L4.840018,94.7417301 C4.53073854,94.7417301 4.280018,94.4910095 4.280018,94.1817301 L4.280018,84.1817301 C4.280018,83.8724506 4.53073854,83.6217301 4.840018,83.6217301 C5.14929746,83.6217301 5.400018,83.8724506 5.400018,84.1817301 L5.400018,93.7317301 L9.840018,93.7417301 Z" id="Path"></path>
            <path d="M13.270018,94.3617301 C13.270018,94.6710095 13.0192975,94.9217301 12.710018,94.9217301 C12.4007385,94.9217301 12.150018,94.6710095 12.150018,94.3617301 L12.150018,84.1917301 C12.150018,83.8824506 12.4007385,83.6317301 12.710018,83.6317301 C13.0192975,83.6317301 13.270018,83.8824506 13.270018,84.1917301 L13.270018,94.3617301 Z" id="Path"></path>
            <path d="M17.000018,94.3617301 C17.0290865,94.5777992 16.9301133,94.7910979 16.7463513,94.9084111 C16.5625893,95.0257243 16.3274467,95.0257243 16.1436847,94.9084111 C15.9599228,94.7910979 15.8609495,94.5777992 15.890018,94.3617301 L15.890018,84.3617301 C15.8872754,84.2150374 15.9443405,84.0735435 16.048086,83.969798 C16.1518315,83.8660525 16.2933253,83.8089874 16.440018,83.8117301 L21.700018,83.8117301 C21.9024924,83.7710332 22.1095235,83.8564643 22.2243768,84.0281059 C22.3392301,84.1997475 22.3392301,84.4237126 22.2243768,84.5953542 C22.1095235,84.7669959 21.9024924,84.8524269 21.700018,84.8117301 L17.000018,84.8117301 L17.000018,88.8917301 L20.600018,88.8917301 C20.8024924,88.8510332 21.0095235,88.9364643 21.1243768,89.1081059 C21.2392301,89.2797475 21.2392301,89.5037126 21.1243768,89.6753542 C21.0095235,89.8469959 20.8024924,89.9324269 20.600018,89.8917301 L17.000018,89.8917301 L17.000018,94.3617301 Z" id="Path"></path>
            <path d="M24.270018,94.7917301 C24.1223997,94.7917301 23.9809679,94.7324375 23.8775306,94.6271195 C23.7740933,94.5218014 23.717334,94.379324 23.720018,94.2317301 L23.720018,84.3217301 C23.7172754,84.1750374 23.7743405,84.0335435 23.878086,83.929798 C23.9818315,83.8260525 24.1233253,83.7689874 24.270018,83.7717301 L29.530018,83.7717301 C29.7324924,83.7310332 29.9395235,83.8164643 30.0543768,83.9881059 C30.1692301,84.1597475 30.1692301,84.3837126 30.0543768,84.5553542 C29.9395235,84.7269959 29.7324924,84.8124269 29.530018,84.7717301 L24.830018,84.7717301 L24.830018,88.7217301 L28.430018,88.7217301 C28.7116832,88.7217301 28.940018,88.9500648 28.940018,89.2317301 C28.9400449,89.3660892 28.885996,89.4948055 28.7900537,89.5888665 C28.6941115,89.6829275 28.5643503,89.7344172 28.430018,89.7317301 L24.830018,89.7317301 L24.830018,93.7317301 L29.710018,93.7317301 C29.9481783,93.7795997 30.1195192,93.9888066 30.1195192,94.2317301 C30.1195192,94.4746535 29.9481783,94.6838604 29.710018,94.7317301 L24.270018,94.7917301 Z" id="Path"></path>
            <path d="M35.180018,91.1317301 L31.910018,91.1317301 C31.7915999,91.1344221 31.6770979,91.0892562 31.5924062,91.0064466 C31.5077146,90.9236371 31.460018,90.8101788 31.460018,90.6917301 C31.4654552,90.4471158 31.6653433,90.2516696 31.910018,90.2517301 L35.180018,90.2517301 C35.4230233,90.2517301 35.620018,90.4487248 35.620018,90.6917301 C35.6227844,90.8092516 35.5773163,90.9227818 35.494193,91.0059051 C35.4110697,91.0890283 35.2975395,91.1344964 35.180018,91.1317301 L35.180018,91.1317301 Z" id="Path"></path>
            <path d="M35.480018,84.8117301 C35.339573,84.8172712 35.2030672,84.7646049 35.1027383,84.666169 C35.0024094,84.5677331 34.9471528,84.4322551 34.950018,84.2917301 C34.9499119,84.1520673 35.0061483,84.0182649 35.1058408,83.9204533 C35.2055334,83.8226418 35.340381,83.7690442 35.480018,83.7716338 L42.480018,83.7716338 C42.7672061,83.7716338 43.000018,84.004542 43.000018,84.2917301 C43.0027661,84.4304668 42.9488634,84.5643336 42.8507425,84.6624545 C42.7526215,84.7605755 42.6187548,84.8144781 42.480018,84.8117301 L39.520018,84.8117301 L39.520018,94.3617301 C39.5490865,94.5777992 39.4501133,94.7910979 39.2663513,94.9084111 C39.0825893,95.0257243 38.8474467,95.0257243 38.6636847,94.9084111 C38.4799228,94.7910979 38.3809495,94.5777992 38.410018,94.3617301 L38.410018,84.8117301 L35.480018,84.8117301 Z" id="Path"></path>
            <path d="M45.470018,94.3617301 C45.470018,94.6710095 45.2192975,94.9217301 44.910018,94.9217301 C44.7623997,94.9217301 44.6209679,94.8624375 44.5175306,94.7571195 C44.4140933,94.6518014 44.357334,94.509324 44.360018,94.3617301 L44.360018,84.3617301 C44.3572754,84.2150374 44.4143405,84.0735435 44.518086,83.969798 C44.6218315,83.8660525 44.7633253,83.8089874 44.910018,83.8117301 L48.130018,83.8117301 C48.9649889,83.7895947 49.7725031,84.11086 50.3640684,84.7005353 C50.9556337,85.2902105 51.2794814,86.0966926 51.260018,86.9317301 C51.2951763,87.7376448 51.0042914,88.5237606 50.4530072,89.1126752 C49.9017229,89.7015898 49.1364972,90.043674 48.330018,90.0617301 L51.330018,94.0617301 C51.4035069,94.1596604 51.4422178,94.2793122 51.440018,94.4017301 C51.4217896,94.632055 51.2639795,94.827541 51.0426784,94.8939314 C50.8213773,94.9603217 50.5820206,94.8839857 50.440018,94.7017301 L47.130018,90.0217301 L45.470018,90.0217301 L45.470018,94.3617301 Z M45.470018,89.0117301 L48.200018,89.0117301 C49.3117573,88.9352401 50.1745017,88.0110975 50.1745017,86.8967301 C50.1745017,85.7823626 49.3117573,84.85822 48.200018,84.7817301 L45.470018,84.7817301 L45.470018,89.0117301 Z" id="Shape"></path>
            <path d="M54.720018,91.5317301 L53.530018,94.5317301 C53.4554003,94.8069863 53.1858403,94.9821986 52.9039954,94.9386408 C52.6221506,94.8950829 52.4180599,94.6466701 52.430018,94.3617301 C52.4159981,94.2823443 52.4159981,94.2011158 52.430018,94.1217301 L56.430018,84.0117301 C56.5041316,83.7882059 56.7145496,83.6384854 56.950018,83.6416783 C57.189067,83.6419971 57.4034659,83.7889 57.490018,84.0117301 L61.490018,94.1217301 C61.5012357,94.2013368 61.5012357,94.2821233 61.490018,94.3617301 C61.490115,94.5137824 61.4283777,94.6593374 61.318991,94.7649521 C61.2096044,94.8705668 61.0619733,94.9271605 60.910018,94.9217301 C60.6655481,94.9292225 60.4455021,94.7743754 60.370018,94.5417301 L59.190018,91.5417301 L54.720018,91.5317301 Z M57.000018,85.5317301 L55.070018,90.5317301 L58.950018,90.5317301 L57.000018,85.5317301 Z" id="Shape"></path>
            <path d="M71.040018,84.1817301 L71.040018,94.3617301 C71.040018,94.5102513 70.9810182,94.6526895 70.8759978,94.7577099 C70.7709774,94.8627302 70.6285392,94.9217301 70.480018,94.9217301 C70.2980756,94.92589 70.1258555,94.8397799 70.020018,94.6917301 L64.260018,85.9917301 L64.260018,94.3817301 C64.2546835,94.677726 64.016014,94.9163955 63.720018,94.9217301 C63.4217842,94.9217301 63.180018,94.6799638 63.180018,94.3817301 L63.180018,84.1817301 C63.180018,84.0385132 63.2369107,83.901162 63.3381803,83.7998924 C63.43945,83.6986228 63.5768011,83.6417301 63.720018,83.6417301 C63.8924097,83.6447418 64.0541736,83.7256238 64.160018,83.8617301 L69.960018,92.5817301 L69.960018,84.1817301 C69.960018,84.0385132 70.0169107,83.901162 70.1181803,83.7998924 C70.21945,83.6986228 70.3568011,83.6417301 70.500018,83.6417301 C70.6432349,83.6417301 70.780586,83.6986228 70.8818557,83.7998924 C70.9831253,83.901162 71.040018,84.0385132 71.040018,84.1817301 L71.040018,84.1817301 Z" id="Path"></path>
            <path d="M76.790018,84.5517301 C75.070018,84.5517301 74.410018,85.4017301 74.410018,86.3417301 C74.410018,89.0617301 80.600018,87.8917301 80.600018,91.8417301 C80.600018,93.8917301 79.190018,95.0217301 76.670018,95.0217301 C75.1295069,95.1034681 73.6676654,94.3360973 72.860018,93.0217301 C72.8023766,92.9359099 72.7710925,92.8351055 72.770018,92.7317301 C72.7672718,92.5903413 72.8222286,92.4539323 72.9222244,92.3539365 C73.0222202,92.2539407 73.1586293,92.1989839 73.300018,92.2017301 C73.4907664,92.2023944 73.6664439,92.3055095 73.760018,92.4717301 C74.3780042,93.4769827 75.4909809,94.0698053 76.670018,94.0217301 C78.470018,94.0217301 79.490018,93.3017301 79.490018,91.8617301 C79.490018,88.8017301 73.300018,90.2417301 73.300018,86.3617301 C73.300018,84.8517301 74.400018,83.5617301 76.790018,83.5617301 C78.1650633,83.4970523 79.4804079,84.1284177 80.290018,85.2417301 C80.3570989,85.3347662 80.3921885,85.4470529 80.390018,85.5617301 C80.390018,85.8489181 80.1572061,86.0817301 79.870018,86.0817301 C79.7014425,86.0841055 79.5417928,86.006137 79.440018,85.8717301 C78.8222076,85.0289776 77.834867,84.5371702 76.790018,84.5517301 L76.790018,84.5517301 Z" id="Path"></path>
            <path d="M83.750018,94.3617301 C83.750018,94.6710095 83.4992975,94.9217301 83.190018,94.9217301 C82.8807385,94.9217301 82.630018,94.6710095 82.630018,94.3617301 L82.630018,84.3617301 C82.630018,84.2141117 82.6893106,84.07268 82.7946286,83.9692427 C82.8999466,83.8658053 83.0424241,83.8090461 83.190018,83.8117301 L88.450018,83.8117301 C88.6524924,83.7710332 88.8595235,83.8564643 88.9743768,84.0281059 C89.0892301,84.1997475 89.0892301,84.4237126 88.9743768,84.5953542 C88.8595235,84.7669959 88.6524924,84.8524269 88.450018,84.8117301 L83.750018,84.8117301 L83.750018,88.8917301 L87.350018,88.8917301 C87.5881783,88.9395997 87.7595192,89.1488066 87.7595192,89.3917301 C87.7595192,89.6346535 87.5881783,89.8438604 87.350018,89.8917301 L83.750018,89.8917301 L83.750018,94.3617301 Z" id="Path"></path>
            <path d="M90.370018,89.2917301 C90.370018,85.4017301 92.300018,83.5417301 95.480018,83.5417301 C98.660018,83.5417301 100.590018,85.4017301 100.590018,89.2917301 C100.590018,93.1817301 98.650018,95.0217301 95.480018,95.0217301 C92.310018,95.0217301 90.370018,93.1317301 90.370018,89.2917301 Z M91.510018,89.2917301 C91.510018,92.4817301 92.970018,94.0017301 95.510018,94.0017301 C98.050018,94.0017301 99.510018,92.4817301 99.510018,89.2917301 C99.510018,86.1017301 98.050018,84.5517301 95.510018,84.5517301 C92.970018,84.5517301 91.510018,86.1317301 91.510018,89.2917301 Z" id="Shape"></path>
            <path d="M103.730018,94.3617301 C103.759086,94.5777992 103.660113,94.7910979 103.476351,94.9084111 C103.292589,95.0257243 103.057447,95.0257243 102.873685,94.9084111 C102.689923,94.7910979 102.59095,94.5777992 102.620018,94.3617301 L102.620018,84.3617301 C102.617275,84.2150374 102.67434,84.0735435 102.778086,83.969798 C102.881831,83.8660525 103.023325,83.8089874 103.170018,83.8117301 L106.430018,83.8117301 C107.264989,83.7895947 108.072503,84.11086 108.664068,84.7005353 C109.255634,85.2902105 109.579481,86.0966926 109.560018,86.9317301 C109.595176,87.7376448 109.304291,88.5237606 108.753007,89.1126752 C108.201723,89.7015898 107.436497,90.043674 106.630018,90.0617301 L109.630018,94.0617301 C109.752037,94.2334298 109.769418,94.4584267 109.675217,94.6468295 C109.581015,94.8352322 109.390589,94.9563256 109.180018,94.9617301 C108.989298,94.9607532 108.812188,94.8627773 108.710018,94.7017301 L105.390018,90.0617301 L103.730018,90.0617301 L103.730018,94.3617301 Z M103.730018,89.0117301 L106.470018,89.0117301 C107.581699,88.9231752 108.434708,87.988492 108.421527,86.8733671 C108.408346,85.7582422 107.533482,84.8439829 106.420018,84.7817301 L103.730018,84.7817301 L103.730018,89.0117301 Z" id="Shape"></path>
            <path d="M115.900018,92.6917301 L112.480018,86.3217301 L112.480018,94.3817301 C112.474683,94.677726 112.236014,94.9163955 111.940018,94.9217301 C111.641784,94.9217301 111.400018,94.6799638 111.400018,94.3817301 L111.400018,84.1817301 C111.400018,83.8834963 111.641784,83.6416724 111.940018,83.6416724 C112.150406,83.6386369 112.3427,83.7602924 112.430018,83.9517301 L116.430018,91.3717301 L120.430018,83.9517301 C120.550642,83.7519985 120.785907,83.6523325 121.0133,83.7046329 C121.240693,83.7569333 121.408775,83.9493691 121.430018,84.1817301 L121.430018,94.3817301 C121.430018,94.6799638 121.188252,94.9217301 120.890018,94.9217301 C120.594022,94.9163955 120.355353,94.677726 120.350018,94.3817301 L120.350018,86.3217301 L116.910018,92.6917301 C116.8248,92.8849873 116.631151,93.0074996 116.420018,93.0017301 C116.200292,93.0116695 115.995772,92.8897444 115.900018,92.6917301 L115.900018,92.6917301 Z" id="Path"></path>
            <path d="M125.130018,94.3617301 C125.124677,94.66877 124.877058,94.916389 124.570018,94.9217301 C124.264651,94.9162762 124.019969,94.667146 124.020018,94.3617301 L124.020018,84.1917301 C124.020018,83.8879734 124.266261,83.6417301 124.570018,83.6417301 C124.875434,83.6417301 125.124564,83.8863628 125.130018,84.1917301 L125.130018,94.3617301 Z" id="Path"></path>
            <path d="M135.460018,84.1817301 L135.460018,94.3617301 C135.460018,94.5102513 135.401018,94.6526895 135.295998,94.7577099 C135.190977,94.8627302 135.048539,94.9217301 134.900018,94.9217301 C134.718076,94.92589 134.545855,94.8397799 134.440018,94.6917301 L128.680018,85.9917301 L128.680018,94.3817301 C128.674683,94.677726 128.436014,94.9163955 128.140018,94.9217301 C127.841784,94.9217301 127.600018,94.6799638 127.600018,94.3817301 L127.600018,84.1817301 C127.600018,84.0385132 127.656911,83.901162 127.75818,83.7998924 C127.85945,83.6986228 127.996801,83.6417301 128.140018,83.6417301 C128.31241,83.6447418 128.474174,83.7256238 128.580018,83.8617301 L134.380018,92.5817301 L134.380018,84.1817301 C134.380018,84.0385132 134.436911,83.901162 134.53818,83.7998924 C134.63945,83.6986228 134.776801,83.6417301 134.920018,83.6417301 C135.063235,83.6417301 135.200586,83.6986228 135.301856,83.7998924 C135.403125,83.901162 135.460018,84.0385132 135.460018,84.1817301 Z" id="Path"></path>
            <path d="M145.480018,92.6917301 L145.480018,90.3217301 L142.750018,90.3217301 C142.511858,90.2738604 142.340517,90.0646535 142.340517,89.8217301 C142.340517,89.5788066 142.511858,89.3695997 142.750018,89.3217301 L146.050018,89.3217301 C146.329448,89.327054 146.554694,89.5522998 146.560018,89.8317301 L146.560018,92.7017301 C146.560018,92.9016462 146.485031,93.0942919 146.350018,93.2417301 C145.398904,94.4189062 143.952804,95.0846302 142.440018,95.0417301 C139.260018,95.0417301 137.330018,93.3417301 137.330018,89.3117301 C137.330018,85.2817301 139.260018,83.5617301 142.440018,83.5617301 C143.872144,83.5196819 145.238702,84.1621127 146.120018,85.2917301 C146.194709,85.3934637 146.236574,85.515569 146.240018,85.6417301 C146.240044,85.7813929 146.183888,85.9151952 146.084195,86.0130068 C145.984503,86.1108183 145.849655,86.1644159 145.710018,86.1617301 C145.544202,86.1641778 145.387549,86.0858514 145.290018,85.9517301 C144.609155,85.0700508 143.553918,84.559094 142.440018,84.5717301 C139.910018,84.5717301 138.440018,86.1017301 138.440018,89.3117301 C138.440018,92.7117301 139.880018,94.0217301 142.440018,94.0217301 C143.604748,94.0736902 144.72769,93.5824033 145.480018,92.6917301 L145.480018,92.6917301 Z" id="Path"></path>
            <path d="M160.700018,84.1817301 L160.700018,94.3617301 C160.700018,94.5102513 160.641018,94.6526895 160.535998,94.7577099 C160.430977,94.8627302 160.288539,94.9217301 160.140018,94.9217301 C159.958076,94.92589 159.785855,94.8397799 159.680018,94.6917301 L153.920018,85.9917301 L153.920018,94.3817301 C153.914683,94.677726 153.676014,94.9163955 153.380018,94.9217301 C153.081784,94.9217301 152.840018,94.6799638 152.840018,94.3817301 L152.840018,84.1817301 C152.840018,84.0385132 152.896911,83.901162 152.99818,83.7998924 C153.09945,83.6986228 153.236801,83.6417301 153.380018,83.6417301 C153.55241,83.6447418 153.714174,83.7256238 153.820018,83.8617301 L159.620018,92.5817301 L159.620018,84.1817301 C159.620018,84.0385132 159.676911,83.901162 159.77818,83.7998924 C159.87945,83.6986228 160.016801,83.6417301 160.160018,83.6417301 C160.303235,83.6417301 160.440586,83.6986228 160.541856,83.7998924 C160.643125,83.901162 160.700018,84.0385132 160.700018,84.1817301 Z" id="Path"></path>
            <path d="M163.130018,91.4317301 L163.130018,84.1917301 C163.127275,84.0450374 163.18434,83.9035435 163.288086,83.799798 C163.391831,83.6960525 163.533325,83.6389874 163.680018,83.6417301 C163.827612,83.6390461 163.970089,83.6958053 164.075407,83.7992427 C164.180725,83.90268 164.240042,84.0441117 164.240018,84.1917301 L164.240018,91.4317301 C164.240018,92.7317301 164.710018,93.9717301 166.970018,93.9717301 C169.230018,93.9717301 169.690018,92.7317301 169.690018,91.4317301 L169.690018,84.1917301 C169.690018,83.8824506 169.940739,83.6317301 170.250018,83.6317301 C170.559297,83.6317301 170.810018,83.8824506 170.810018,84.1917301 L170.810018,91.4317301 C170.810018,93.2317301 170.070018,95.0217301 166.970018,95.0217301 C163.870018,95.0217301 163.130018,93.2317301 163.130018,91.4317301 Z" id="Path"></path>
            <path d="M172.980018,84.8117301 C172.841281,84.8144781 172.707414,84.7605755 172.609294,84.6624545 C172.511173,84.5643336 172.45727,84.4304668 172.460018,84.2917301 C172.460018,84.004542 172.69283,83.7716338 172.980018,83.7716338 L179.980018,83.7716338 C180.119655,83.7690442 180.254503,83.8226418 180.354195,83.9204533 C180.453888,84.0182649 180.510124,84.1520673 180.510018,84.2917301 C180.512883,84.4322551 180.457627,84.5677331 180.357298,84.666169 C180.256969,84.7646049 180.120463,84.8172712 179.980018,84.8117301 L177.030018,84.8117301 L177.030018,94.3617301 C177.030018,94.6710095 176.779297,94.9217301 176.470018,94.9217301 C176.3224,94.9217301 176.180968,94.8624375 176.077531,94.7571195 C175.974093,94.6518014 175.917334,94.509324 175.920018,94.3617301 L175.920018,84.8117301 L172.980018,84.8117301 Z" id="Path"></path>
            <path d="M183.300018,94.3617301 C183.329086,94.5777992 183.230113,94.7910979 183.046351,94.9084111 C182.862589,95.0257243 182.627447,95.0257243 182.443685,94.9084111 C182.259923,94.7910979 182.16095,94.5777992 182.190018,94.3617301 L182.190018,84.3617301 C182.187165,84.2132522 182.245585,84.0701527 182.351536,83.9660938 C182.457487,83.862035 182.601616,83.8062025 182.750018,83.8117301 L186.000018,83.8117301 C186.834989,83.7895947 187.642503,84.11086 188.234068,84.7005353 C188.825634,85.2902105 189.149481,86.0966926 189.130018,86.9317301 C189.165176,87.7376448 188.874291,88.5237606 188.323007,89.1126752 C187.771723,89.7015898 187.006497,90.043674 186.200018,90.0617301 L189.200018,94.0617301 C189.321187,94.2319745 189.339488,94.4548734 189.24771,94.6426018 C189.155932,94.8303301 188.968789,94.9527898 188.760018,94.9617301 C188.566222,94.9622972 188.385415,94.8643599 188.280018,94.7017301 L184.960018,90.0617301 L183.300018,90.0617301 L183.300018,94.3617301 Z M183.300018,89.0117301 L186.040018,89.0117301 C187.151757,88.9352401 188.014502,88.0110975 188.014502,86.8967301 C188.014502,85.7823626 187.151757,84.85822 186.040018,84.7817301 L183.350018,84.7817301 L183.300018,89.0117301 Z" id="Shape"></path>
            <path d="M192.250018,94.3617301 C192.250018,94.6710095 191.999297,94.9217301 191.690018,94.9217301 C191.380739,94.9217301 191.130018,94.6710095 191.130018,94.3617301 L191.130018,84.1917301 C191.130018,83.8824506 191.380739,83.6317301 191.690018,83.6317301 C191.999297,83.6317301 192.250018,83.8824506 192.250018,84.1917301 L192.250018,94.3617301 Z" id="Path"></path>
            <path d="M194.470018,84.8117301 C194.331281,84.8144781 194.197414,84.7605755 194.099294,84.6624545 C194.001173,84.5643336 193.94727,84.4304668 193.950018,84.2917301 C193.950018,84.1538175 194.004804,84.0215534 194.102322,83.9240345 C194.199841,83.8265156 194.332105,83.7716338 194.470018,83.7716338 L201.470018,83.7716338 C201.609655,83.7690442 201.744503,83.8226418 201.844195,83.9204533 C201.943888,84.0182649 202.000124,84.1520673 202.000018,84.2917301 C202.002883,84.4322551 201.947627,84.5677331 201.847298,84.666169 C201.746969,84.7646049 201.610463,84.8172712 201.470018,84.8117301 L198.560018,84.8117301 L198.560018,94.3617301 C198.560018,94.6710095 198.309297,94.9217301 198.000018,94.9217301 C197.690739,94.9217301 197.440018,94.6710095 197.440018,94.3617301 L197.440018,84.8117301 L194.470018,84.8117301 Z" id="Path"></path>
            <path d="M204.790018,94.3617301 C204.819086,94.5777992 204.720113,94.7910979 204.536351,94.9084111 C204.352589,95.0257243 204.117447,95.0257243 203.933685,94.9084111 C203.749923,94.7910979 203.65095,94.5777992 203.680018,94.3617301 L203.680018,84.1917301 C203.717407,83.9138115 203.954596,83.706396 204.235018,83.706396 C204.51544,83.706396 204.752629,83.9138115 204.790018,84.1917301 L204.790018,94.3617301 Z" id="Path"></path>
            <path d="M206.820018,89.2917301 C206.820018,85.4017301 208.760018,83.5417301 211.930018,83.5417301 C215.100018,83.5417301 217.040018,85.4017301 217.040018,89.2917301 C217.040018,93.1817301 215.110018,95.0217301 211.930018,95.0217301 C208.750018,95.0217301 206.820018,93.1317301 206.820018,89.2917301 Z M207.970018,89.2917301 C207.970018,92.4817301 209.430018,94.0017301 211.970018,94.0017301 C214.510018,94.0017301 215.970018,92.4817301 215.970018,89.2917301 C215.970018,86.1017301 214.510018,84.5517301 211.970018,84.5517301 C209.430018,84.5517301 207.970018,86.1317301 207.970018,89.2917301 Z" id="Shape"></path>
            <path d="M226.770018,84.1817301 L226.770018,94.3617301 C226.772702,94.509324 226.715943,94.6518014 226.612505,94.7571195 C226.509068,94.8624375 226.367636,94.9217545 226.220018,94.9217301 C226.037677,94.9276911 225.864654,94.8411797 225.760018,94.6917301 L219.990018,85.9917301 L219.990018,94.3817301 C219.990018,94.6799638 219.748252,94.9217301 219.450018,94.9217301 C219.154022,94.9163955 218.915353,94.677726 218.910018,94.3817301 L218.910018,84.1817301 C218.910018,84.0385132 218.966911,83.901162 219.06818,83.7998924 C219.16945,83.6986228 219.306801,83.6417301 219.450018,83.6417301 C219.622768,83.6432691 219.785137,83.7244538 219.890018,83.8617301 L225.690018,92.5817301 L225.690018,84.1817301 C225.690018,84.0385132 225.746911,83.901162 225.84818,83.7998924 C225.94945,83.6986228 226.086801,83.6417301 226.230018,83.6417301 C226.373235,83.6417301 226.510586,83.6986228 226.611856,83.7998924 C226.713125,83.901162 226.770018,84.0385132 226.770018,84.1817301 Z" id="Path"></path>
            <path d="M268.860018,73.9017301 L268.860018,40.9617301 L284.600018,40.9617301 C292.010018,40.9617301 297.920018,42.7017301 297.920018,49.2317301 C297.814699,52.2072633 296.191637,54.9211744 293.620018,56.4217301 C297.180018,57.3317301 299.090018,60.4217301 299.090018,63.9817301 C299.090018,71.3317301 293.460018,73.9017301 284.910018,73.9017301 L268.860018,73.9017301 Z M279.650018,60.1317301 L279.650018,66.2217301 L284.360018,66.2217301 C287.020018,66.2217301 289.030018,65.6617301 289.030018,63.2217301 C289.030018,60.3517301 286.530018,60.1517301 283.080018,60.1517301 L279.650018,60.1317301 Z M279.650018,48.6717301 L279.650018,54.1317301 L284.130018,54.1317301 C286.280018,54.1317301 287.840018,53.1317301 287.840018,51.2417301 C287.840018,48.6617301 285.730018,48.6417301 283.450018,48.6417301 L279.650018,48.6717301 Z" id="Shape"></path>
            <path d="M318.490018,73.9017301 L318.030018,71.3317301 C315.330018,73.8517301 312.580018,74.5917301 309.030018,74.5917301 C304.500018,74.5917301 300.460018,72.3617301 300.460018,67.3517301 C300.460018,56.4717301 317.510018,61.4117301 317.510018,56.9317301 C317.510018,55.1817301 315.430018,54.9317301 314.420018,54.9317301 C313.090018,54.9317301 311.310018,55.2017301 311.080018,57.2717301 L301.930018,57.2717301 C301.930018,52.1817301 305.550018,49.2017301 315.020018,49.2017301 C326.350018,49.2017301 327.020018,53.4117301 327.020018,59.1317301 L327.020018,70.3417301 C327.020018,71.7117301 327.020018,72.4117301 328.290018,73.4217301 L328.290018,73.8717301 L318.490018,73.9017301 Z M317.490018,63.2817301 C314.400018,64.8017301 310.280018,64.0617301 310.280018,67.1817301 C310.280018,68.3617301 311.430018,69.1817301 313.280018,69.1817301 C316.640018,69.1817301 317.740018,66.5717301 317.500018,63.2817301 L317.490018,63.2817301 Z" id="Shape"></path>
            <path d="M340.010018,75.1317301 C340.051051,75.5516335 340.264763,75.9355918 340.600018,76.1917301 C341.197234,76.6304685 341.930747,76.8430807 342.670018,76.7917301 C345.410018,76.7917301 346.510018,75.5617301 346.510018,72.1317301 L346.510018,70.1317301 C344.679014,71.9125799 342.191299,72.8540733 339.640018,72.7317301 C333.010018,72.7317301 329.220018,67.5217301 329.220018,61.3917301 C329.220018,55.4917301 332.050018,49.2117301 339.910018,49.2117301 C342.823088,49.2719043 345.529011,50.7309438 347.180018,53.1317301 L347.180018,49.9317301 L355.570018,49.9317301 L355.570018,69.2317301 C355.570018,76.4117301 354.730018,82.0317301 342.940018,82.0317301 C334.480018,82.0317301 330.940018,78.6517301 330.450018,75.1217301 L340.010018,75.1317301 Z M338.730018,61.5017301 C338.730018,63.8817301 339.910018,66.1317301 342.480018,66.1717301 C345.410018,66.3117301 346.480018,63.7817301 346.480018,61.1717301 C346.480018,58.5617301 345.480018,56.0117301 342.480018,56.0117301 C339.480018,56.0117301 338.730018,58.3917301 338.730018,61.5017301 Z" id="Shape"></path>
            <path d="M370.680018,49.2317301 C379.160018,49.2317301 384.350018,54.2317301 384.350018,61.6917301 C384.350018,70.4717301 378.410018,74.5917301 370.720018,74.5917301 C363.030018,74.5917301 357.130018,70.3717301 357.130018,62.2017301 C357.130018,53.8717301 362.590018,49.2317301 370.680018,49.2317301 Z M366.610018,61.6917301 C366.610018,66.2117301 368.300018,68.1717301 370.720018,68.1717301 C373.290018,68.1717301 374.840018,66.1717301 374.840018,61.6917301 C374.840018,58.1617301 373.290018,55.5117301 370.840018,55.6917301 C367.570018,55.6517301 366.610018,58.9817301 366.610018,61.6917301 Z" id="Shape"></path>
            <polygon id="Path" points="366.210018 47.3717301 372.560018 47.3717301 380.340018 40.6517301 371.040018 40.6517301"></polygon>
            <circle id="Oval" cx="245.510018" cy="57.8617301" r="5.69"></circle>
            <path d="M93.410018,21.0617301 C83.9484709,7.73019075 68.5672617,-0.134054568 52.220018,0.00173005695 C23.380018,0.00173005695 0,23.8017301 0,53.1517301 C-0.00579872475,60.2537225 1.39798726,67.2862485 4.130018,73.8417301 L13.480018,73.8417301 C9.66195525,67.0119572 7.66141924,59.3162636 7.670018,51.4917301 C7.670018,25.4917301 29.340018,4.49173006 56.070018,4.49173006 C70.3058482,4.48516232 83.8791477,10.5052258 93.430018,21.0617301" id="Path"></path>
        </g>
    </g>
</svg>