<svg xmlns="http://www.w3.org/2000/svg" xmlns:xlink="http://www.w3.org/1999/xlink" width="2500.5" height="866" viewBox="0 0 2500.5 866">
  <defs>
    <linearGradient id="linear-gradient" y1="-0.475" x2="1" y2="-0.475" gradientUnits="objectBoundingBox">
      <stop offset="0" stop-color="#4c2f88"/>
      <stop offset="0.73" stop-color="#33358b"/>
      <stop offset="1" stop-color="#29388c"/>
    </linearGradient>
  </defs>
  <g id="Group_130" data-name="Group 130" transform="translate(0.5 -540.6)">
    <rect id="Rectangle_4" data-name="Rectangle 4" width="2500.5" height="866" transform="translate(-0.5 540.6)" fill="#edecec"/>
    <g id="Group_1" data-name="Group 1" opacity="0.8">
      <circle id="Ellipse_4" data-name="Ellipse 4" cx="288.1" cy="288.1" r="288.1" transform="translate(153.6 678.9)" fill="url(#linear-gradient)"/>
    </g>
    <g id="Group_2" data-name="Group 2" opacity="0.8">
      <circle id="Ellipse_5" data-name="Ellipse 5" cx="288.1" cy="288.1" r="288.1" transform="translate(645.4 678.9)" fill="url(#linear-gradient)"/>
    </g>
    <g id="Group_3" data-name="Group 3" opacity="0.8">
      <circle id="Ellipse_6" data-name="Ellipse 6" cx="288.1" cy="288.1" r="288.1" transform="translate(1139.9 678.9)" fill="url(#linear-gradient)"/>
    </g>
    <g id="Group_4" data-name="Group 4">
      <path id="Path_3" data-name="Path 3" d="M499.7,993.4H508l-.2,1h-10l.2-.7,7.4-6.1a9.057,9.057,0,0,0,2.2-2.3,3.606,3.606,0,0,0,.6-2,2.561,2.561,0,0,0-.8-1.9,4.37,4.37,0,0,0-2.5-.7,5.866,5.866,0,0,0-2.3.4,4.968,4.968,0,0,0-1.9,1.3l-.7-.6a7.124,7.124,0,0,1,2.2-1.5,6.632,6.632,0,0,1,2.8-.5,4.885,4.885,0,0,1,3.2.9,3.043,3.043,0,0,1,1.1,2.4,4.513,4.513,0,0,1-.7,2.5,11.718,11.718,0,0,1-2.5,2.6Z" fill="#fff"/>
    </g>
    <g id="Group_5" data-name="Group 5">
      <path id="Path_4" data-name="Path 4" d="M499.7,993.4H508l-.2,1h-10l.2-.7,7.4-6.1a9.057,9.057,0,0,0,2.2-2.3,3.606,3.606,0,0,0,.6-2,2.561,2.561,0,0,0-.8-1.9,4.37,4.37,0,0,0-2.5-.7,5.866,5.866,0,0,0-2.3.4,4.968,4.968,0,0,0-1.9,1.3l-.7-.6a7.124,7.124,0,0,1,2.2-1.5,6.632,6.632,0,0,1,2.8-.5,4.885,4.885,0,0,1,3.2.9,3.043,3.043,0,0,1,1.1,2.4,4.513,4.513,0,0,1-.7,2.5,11.718,11.718,0,0,1-2.5,2.6Z" fill="none" stroke="#fff" stroke-miterlimit="10" stroke-width="0.79"/>
    </g>
    <g id="Group_6" data-name="Group 6">
      <path id="Path_5" data-name="Path 5" d="M511.6,992.9a.735.735,0,0,1,.2.6.756.756,0,0,1-.1.4c0,.1-.1.2-.1.3a.349.349,0,0,1-.1.2l-1.4,2.9h-.7l1.3-2.9a1.38,1.38,0,0,1-.4-.3.749.749,0,0,1-.1-.5.908.908,0,0,1,.3-.7.864.864,0,0,1,.6-.3A2.184,2.184,0,0,1,511.6,992.9Z" fill="#fff"/>
      <path id="Path_6" data-name="Path 6" d="M530.5,980.6l-5.4,5.6a5.434,5.434,0,0,1,3.1,1,3.315,3.315,0,0,1,1.1,2.6,3.986,3.986,0,0,1-.7,2.4,4.469,4.469,0,0,1-2,1.6,7.306,7.306,0,0,1-3,.6,8.362,8.362,0,0,1-2.9-.5,4.111,4.111,0,0,1-1.9-1.4l.6-.8a3.857,3.857,0,0,0,1.7,1.3,7.082,7.082,0,0,0,2.6.5,5.287,5.287,0,0,0,3.4-1,3.287,3.287,0,0,0,1.2-2.7c0-1.8-1.3-2.8-3.8-2.8h-.8l.2-.8,5.3-5.5h-7.7l.2-1h9.1Z" fill="#fff"/>
      <path id="Path_7" data-name="Path 7" d="M532,992.9a.735.735,0,0,1,.2.6.756.756,0,0,1-.1.4c0,.1-.1.2-.1.3a.349.349,0,0,1-.1.2l-1.4,2.9h-.7l1.3-2.9a1.381,1.381,0,0,1-.4-.3.749.749,0,0,1-.1-.5.908.908,0,0,1,.3-.7.864.864,0,0,1,.6-.3A2.183,2.183,0,0,1,532,992.9Z" fill="#fff"/>
      <path id="Path_8" data-name="Path 8" d="M552.3,990.3h-3l-.8,4h-1.1l.8-4H540l.1-.8,9.7-9.7h1.3l-9.5,9.5h6.9l.7-3.5h1l-.7,3.5h3Z" fill="#fff"/>
    </g>
    <g id="Group_7" data-name="Group 7">
      <path id="Path_9" data-name="Path 9" d="M511.6,992.9a.735.735,0,0,1,.2.6.756.756,0,0,1-.1.4c0,.1-.1.2-.1.3a.349.349,0,0,1-.1.2l-1.4,2.9h-.7l1.3-2.9a1.38,1.38,0,0,1-.4-.3.749.749,0,0,1-.1-.5.908.908,0,0,1,.3-.7.864.864,0,0,1,.6-.3A2.184,2.184,0,0,1,511.6,992.9Z" fill="none" stroke="#fff" stroke-miterlimit="10" stroke-width="0.79"/>
      <path id="Path_10" data-name="Path 10" d="M530.5,980.6l-5.4,5.6a5.434,5.434,0,0,1,3.1,1,3.315,3.315,0,0,1,1.1,2.6,3.986,3.986,0,0,1-.7,2.4,4.469,4.469,0,0,1-2,1.6,7.306,7.306,0,0,1-3,.6,8.362,8.362,0,0,1-2.9-.5,4.111,4.111,0,0,1-1.9-1.4l.6-.8a3.857,3.857,0,0,0,1.7,1.3,7.082,7.082,0,0,0,2.6.5,5.287,5.287,0,0,0,3.4-1,3.287,3.287,0,0,0,1.2-2.7c0-1.8-1.3-2.8-3.8-2.8h-.8l.2-.8,5.3-5.5h-7.7l.2-1h9.1Z" fill="none" stroke="#fff" stroke-miterlimit="10" stroke-width="0.79"/>
      <path id="Path_11" data-name="Path 11" d="M532,992.9a.735.735,0,0,1,.2.6.756.756,0,0,1-.1.4c0,.1-.1.2-.1.3a.349.349,0,0,1-.1.2l-1.4,2.9h-.7l1.3-2.9a1.381,1.381,0,0,1-.4-.3.749.749,0,0,1-.1-.5.908.908,0,0,1,.3-.7.864.864,0,0,1,.6-.3A2.183,2.183,0,0,1,532,992.9Z" fill="none" stroke="#fff" stroke-miterlimit="10" stroke-width="0.79"/>
      <path id="Path_12" data-name="Path 12" d="M552.3,990.3h-3l-.8,4h-1.1l.8-4H540l.1-.8,9.7-9.7h1.3l-9.5,9.5h6.9l.7-3.5h1l-.7,3.5h3Z" fill="none" stroke="#fff" stroke-miterlimit="10" stroke-width="0.79"/>
    </g>
    <g id="Group_8" data-name="Group 8">
      <path id="Path_13" data-name="Path 13" d="M247.5,959.1V936.3l-11.3,18.8h-2.8l-11.3-18.5v22.5H216V924.8h5.2l13.6,22.8,13.4-22.8h5.2v34.3Z" fill="#fff"/>
      <path id="Path_14" data-name="Path 14" d="M286.8,947.9H266.3a7.383,7.383,0,0,0,2.8,4.6,10.4,10.4,0,0,0,12.8-1.1l3.3,3.8a11.24,11.24,0,0,1-4.5,3.2,17.671,17.671,0,0,1-13.7-.6,11.831,11.831,0,0,1-5.1-4.8,13.4,13.4,0,0,1-1.8-6.9,14.681,14.681,0,0,1,1.7-6.9,13.789,13.789,0,0,1,4.8-4.8,14.788,14.788,0,0,1,7-1.7,13.717,13.717,0,0,1,6.8,1.7,11.455,11.455,0,0,1,4.7,4.8,14.617,14.617,0,0,1,1.7,7.1A7.881,7.881,0,0,1,286.8,947.9Zm-18.2-8.7a7.267,7.267,0,0,0-2.5,4.6H281a7.637,7.637,0,0,0-2.4-4.6,7.138,7.138,0,0,0-5-1.8A8.434,8.434,0,0,0,268.6,939.2Z" fill="#fff"/>
      <path id="Path_15" data-name="Path 15" d="M284.2,967.4l1.8-4.6a5.7,5.7,0,0,0,3.6,1,3.315,3.315,0,0,0,2.6-1.1,4.589,4.589,0,0,0,.9-3.1V932.8h6.1v26.7a9.66,9.66,0,0,1-2.4,6.9,8.678,8.678,0,0,1-6.7,2.5C287.5,968.9,285.5,968.4,284.2,967.4Zm9.1-39.9a3.272,3.272,0,0,1-1.1-2.6,3.631,3.631,0,0,1,1.1-2.6,4.105,4.105,0,0,1,2.8-1.1,4.018,4.018,0,0,1,2.8,1,3.075,3.075,0,0,1,1.1,2.5,3.693,3.693,0,0,1-1.1,2.7,3.928,3.928,0,0,1-2.8,1.1A3.857,3.857,0,0,1,293.3,927.5Z" fill="#fff"/>
      <path id="Path_16" data-name="Path 16" d="M311.8,957.7a12.161,12.161,0,0,1-5-4.8A13.4,13.4,0,0,1,305,946a13.149,13.149,0,0,1,1.8-6.9,13.564,13.564,0,0,1,5-4.8,16.1,16.1,0,0,1,14.4,0,12.161,12.161,0,0,1,5,4.8,14.125,14.125,0,0,1,0,13.8,13.564,13.564,0,0,1-5,4.8,16.1,16.1,0,0,1-14.4,0Zm12.8-5.8a9.011,9.011,0,0,0,0-11.8,7.967,7.967,0,0,0-11.2,0,9.011,9.011,0,0,0,0,11.8,7.967,7.967,0,0,0,11.2,0Z" fill="#fff"/>
    </g>
    <g id="Group_9" data-name="Group 9">
      <path id="Path_17" data-name="Path 17" d="M354,932.6v5.8a7.086,7.086,0,0,0-1.4-.1,7.315,7.315,0,0,0-5.6,2.1,8.513,8.513,0,0,0-2,6v12.7h-6.1V932.9h5.8v3.8C346.4,933.9,349.5,932.6,354,932.6Z" fill="#fff"/>
    </g>
    <g id="Group_10" data-name="Group 10">
      <path id="Path_18" data-name="Path 18" d="M377.9,935.3c2,1.8,3.1,4.6,3.1,8.4V959h-5.8v-3.2a7.532,7.532,0,0,1-3.2,2.6,12.756,12.756,0,0,1-5,.9,11.324,11.324,0,0,1-5.1-1,8.566,8.566,0,0,1-3.4-2.8,6.979,6.979,0,0,1-1.2-4,7.172,7.172,0,0,1,2.6-5.7c1.7-1.4,4.5-2.1,8.3-2.1H375v-.4a5.359,5.359,0,0,0-1.6-4.2,7.009,7.009,0,0,0-4.9-1.5,12.511,12.511,0,0,0-4.3.7,12.284,12.284,0,0,0-3.6,1.9l-2.4-4.5a16.608,16.608,0,0,1,5-2.4,20.432,20.432,0,0,1,6.1-.8C372.9,932.6,375.9,933.5,377.9,935.3Zm-5.6,18.6a5.687,5.687,0,0,0,2.5-3v-3h-6.3c-3.5,0-5.3,1.2-5.3,3.5a2.931,2.931,0,0,0,1.3,2.6,5.815,5.815,0,0,0,3.7,1A9.258,9.258,0,0,0,372.3,953.9Z" fill="#fff"/>
      <path id="Path_19" data-name="Path 19" d="M426.9,947.9H406.4a7.383,7.383,0,0,0,2.8,4.6,10.4,10.4,0,0,0,12.8-1.1l3.3,3.8a11.24,11.24,0,0,1-4.5,3.2,17.671,17.671,0,0,1-13.7-.6A11.831,11.831,0,0,1,402,953a13.4,13.4,0,0,1-1.8-6.9,14.681,14.681,0,0,1,1.7-6.9,13.789,13.789,0,0,1,4.8-4.8,14.788,14.788,0,0,1,7-1.7,13.717,13.717,0,0,1,6.8,1.7,11.455,11.455,0,0,1,4.7,4.8,14.617,14.617,0,0,1,1.7,7.1A7.881,7.881,0,0,1,426.9,947.9Zm-18.2-8.7a7.267,7.267,0,0,0-2.5,4.6h14.9a7.637,7.637,0,0,0-2.4-4.6,7.138,7.138,0,0,0-5-1.8A8.683,8.683,0,0,0,408.7,939.2Z" fill="#fff"/>
      <path id="Path_20" data-name="Path 20" d="M432.8,922.7h6.1v36.4h-6.1Z" fill="#fff"/>
      <path id="Path_21" data-name="Path 21" d="M485.1,947.9H464.6a7.383,7.383,0,0,0,2.8,4.6,10.4,10.4,0,0,0,12.8-1.1l3.3,3.8a11.24,11.24,0,0,1-4.5,3.2,17.671,17.671,0,0,1-13.7-.6,11.831,11.831,0,0,1-5.1-4.8,13.4,13.4,0,0,1-1.8-6.9,14.681,14.681,0,0,1,1.7-6.9,13.789,13.789,0,0,1,4.8-4.8,14.788,14.788,0,0,1,7-1.7,13.717,13.717,0,0,1,6.8,1.7,11.455,11.455,0,0,1,4.7,4.8,14.617,14.617,0,0,1,1.7,7.1A7.881,7.881,0,0,1,485.1,947.9ZM467,939.2a7.267,7.267,0,0,0-2.5,4.6h14.9a7.637,7.637,0,0,0-2.4-4.6,7.138,7.138,0,0,0-5-1.8A8.2,8.2,0,0,0,467,939.2Z" fill="#fff"/>
      <path id="Path_22" data-name="Path 22" d="M492.9,958.6a20.57,20.57,0,0,1-4.9-2.1l2.4-4.7a16.223,16.223,0,0,0,4.2,1.9,17.063,17.063,0,0,0,4.9.7c3.7,0,5.5-1,5.5-2.9a1.921,1.921,0,0,0-1.4-1.9,19.167,19.167,0,0,0-4.5-1,37.128,37.128,0,0,1-5.3-1.1,8.038,8.038,0,0,1-3.5-2.2,6.178,6.178,0,0,1-1.5-4.4,6.975,6.975,0,0,1,3.1-6c2.1-1.5,4.9-2.2,8.4-2.2a24.827,24.827,0,0,1,5.4.6,17.036,17.036,0,0,1,4.4,1.6l-2.4,4.7a14.493,14.493,0,0,0-7.5-2,8.726,8.726,0,0,0-4.1.8,2.481,2.481,0,0,0-1.4,2.1,2.127,2.127,0,0,0,1.5,2.1,26.421,26.421,0,0,0,4.6,1.2,33.7,33.7,0,0,1,5.1,1.1,7.71,7.71,0,0,1,3.5,2.2,6.038,6.038,0,0,1,1.4,4.3,6.9,6.9,0,0,1-3.2,5.9c-2.1,1.5-5,2.2-8.7,2.2A32.273,32.273,0,0,1,492.9,958.6Z" fill="#fff"/>
      <path id="Path_23" data-name="Path 23" d="M532.1,957.6a7.065,7.065,0,0,1-2.6,1.3,11.488,11.488,0,0,1-3.3.4,9.38,9.38,0,0,1-6.7-2.3q-2.4-2.25-2.4-6.6V938h-4.3v-4.9h4.3v-6h6.1v6h7V938h-7v12.5a4.2,4.2,0,0,0,.9,2.9,3.337,3.337,0,0,0,2.7,1,5.331,5.331,0,0,0,3.4-1.1Z" fill="#fff"/>
    </g>
    <g id="Group_11" data-name="Group 11">
      <path id="Path_24" data-name="Path 24" d="M556,935.3c2,1.8,3.1,4.6,3.1,8.4V959h-5.8v-3.2a7.532,7.532,0,0,1-3.2,2.6,12.756,12.756,0,0,1-5,.9,11.324,11.324,0,0,1-5.1-1,8.566,8.566,0,0,1-3.4-2.8,6.979,6.979,0,0,1-1.2-4,7.173,7.173,0,0,1,2.6-5.7c1.7-1.4,4.5-2.1,8.3-2.1h6.8v-.4a5.359,5.359,0,0,0-1.6-4.2,7.009,7.009,0,0,0-4.9-1.5,12.511,12.511,0,0,0-4.3.7,12.284,12.284,0,0,0-3.6,1.9l-2.4-4.5a16.608,16.608,0,0,1,5-2.4,20.432,20.432,0,0,1,6.1-.8C551,932.6,553.9,933.5,556,935.3Zm-5.6,18.6a5.687,5.687,0,0,0,2.5-3v-3h-6.3c-3.5,0-5.3,1.2-5.3,3.5a2.931,2.931,0,0,0,1.3,2.6,5.815,5.815,0,0,0,3.7,1A9.258,9.258,0,0,0,550.4,953.9Z" fill="#fff"/>
    </g>
    <g id="Group_12" data-name="Group 12">
      <path id="Path_25" data-name="Path 25" d="M592.8,922.7v36.4h-5.9v-3.4a9.671,9.671,0,0,1-3.8,2.8,12.952,12.952,0,0,1-4.9.9,14,14,0,0,1-6.8-1.7,11.809,11.809,0,0,1-4.7-4.7,15.262,15.262,0,0,1,0-14,11.809,11.809,0,0,1,4.7-4.7,14,14,0,0,1,6.8-1.7,12.8,12.8,0,0,1,4.8.9,10.786,10.786,0,0,1,3.7,2.6V922.7Zm-9.9,30.4a7.12,7.12,0,0,0,2.8-2.9,9.745,9.745,0,0,0,0-8.6,7.794,7.794,0,0,0-2.8-2.9,8.5,8.5,0,0,0-8,0,7.12,7.12,0,0,0-2.8,2.9,9.745,9.745,0,0,0,0,8.6,7.794,7.794,0,0,0,2.8,2.9,8.5,8.5,0,0,0,8,0Z" fill="#fff"/>
      <path id="Path_26" data-name="Path 26" d="M605.4,957.7a12.161,12.161,0,0,1-5-4.8,13.4,13.4,0,0,1-1.8-6.9,13.149,13.149,0,0,1,1.8-6.9,13.564,13.564,0,0,1,5-4.8,16.1,16.1,0,0,1,14.4,0,12.161,12.161,0,0,1,5,4.8,14.125,14.125,0,0,1,0,13.8,13.564,13.564,0,0,1-5,4.8,16.1,16.1,0,0,1-14.4,0Zm12.8-5.8a9.011,9.011,0,0,0,0-11.8,7.967,7.967,0,0,0-11.2,0,9.011,9.011,0,0,0,0,11.8,7.967,7.967,0,0,0,11.2,0Z" fill="#fff"/>
    </g>
    <g id="Group_13" data-name="Group 13">
      <path id="Path_27" data-name="Path 27" d="M238.2,994.3c2,1.9,3,4.8,3,8.6v15h-6.1v-14.2a7.367,7.367,0,0,0-1.6-5.2,5.824,5.824,0,0,0-4.6-1.7,7.085,7.085,0,0,0-5.3,2,8.251,8.251,0,0,0-2,5.9v13.2h-6.1V991.7h5.8v3.4a9.447,9.447,0,0,1,3.8-2.7,14.178,14.178,0,0,1,5.2-.9A10.508,10.508,0,0,1,238.2,994.3Z" fill="#fff"/>
      <path id="Path_28" data-name="Path 28" d="M274.3,991.7v26.2h-5.8v-3.3a9.118,9.118,0,0,1-3.7,2.7,12.872,12.872,0,0,1-4.8,1,11.641,11.641,0,0,1-8.3-2.9q-3-2.85-3-8.7v-15h6.1v14.1c0,2.4.5,4.1,1.6,5.3a5.74,5.74,0,0,0,4.5,1.7,7.007,7.007,0,0,0,5.2-2c1.3-1.4,1.9-3.3,1.9-5.9V991.7Z" fill="#fff"/>
      <path id="Path_29" data-name="Path 29" d="M298.1,1016.5a7.066,7.066,0,0,1-2.6,1.3,11.489,11.489,0,0,1-3.3.4,9.38,9.38,0,0,1-6.7-2.3q-2.4-2.25-2.4-6.6V996.7h-4.3v-4.9h4.3v-6h6.1v6h7v4.9h-7v12.5a4.2,4.2,0,0,0,.9,2.9,3.337,3.337,0,0,0,2.7,1,5.331,5.331,0,0,0,3.4-1.1Z" fill="#fff"/>
    </g>
    <g id="Group_14" data-name="Group 14">
      <path id="Path_30" data-name="Path 30" d="M318.3,991.4v5.8a7.086,7.086,0,0,0-1.4-.1,7.315,7.315,0,0,0-5.6,2.1,8.513,8.513,0,0,0-2,6v12.7h-6.1V991.7H309v3.8C310.8,992.8,313.9,991.4,318.3,991.4Z" fill="#fff"/>
    </g>
    <g id="Group_15" data-name="Group 15">
      <path id="Path_31" data-name="Path 31" d="M323.8,986.3a3.272,3.272,0,0,1-1.1-2.6,3.631,3.631,0,0,1,1.1-2.6,4.105,4.105,0,0,1,2.8-1.1,4.018,4.018,0,0,1,2.8,1,3.075,3.075,0,0,1,1.1,2.5,3.693,3.693,0,0,1-1.1,2.7,3.928,3.928,0,0,1-2.8,1.1A3.61,3.61,0,0,1,323.8,986.3Zm-.3,5.4h6.1v26.2h-6.1Z" fill="#fff"/>
      <path id="Path_32" data-name="Path 32" d="M342.4,1016.5a12.408,12.408,0,0,1-5.1-4.8,13.4,13.4,0,0,1-1.8-6.9,13.149,13.149,0,0,1,1.8-6.9,13.564,13.564,0,0,1,5-4.8,15.719,15.719,0,0,1,7.3-1.7,13.674,13.674,0,0,1,6.8,1.6,10.085,10.085,0,0,1,4.4,4.5l-4.7,2.7a7.987,7.987,0,0,0-2.8-2.7,7.786,7.786,0,0,0-3.7-.9,7.686,7.686,0,0,0-5.7,2.2,9.126,9.126,0,0,0-.1,12,7.686,7.686,0,0,0,5.7,2.2,7.786,7.786,0,0,0,3.7-.9,7.236,7.236,0,0,0,2.8-2.7l4.7,2.7a10.085,10.085,0,0,1-4.4,4.5,13.29,13.29,0,0,1-6.7,1.6A14.714,14.714,0,0,1,342.4,1016.5Z" fill="#fff"/>
      <path id="Path_33" data-name="Path 33" d="M366.5,986.3a3.272,3.272,0,0,1-1.1-2.6,3.631,3.631,0,0,1,1.1-2.6,4.105,4.105,0,0,1,2.8-1.1,4.018,4.018,0,0,1,2.8,1,3.075,3.075,0,0,1,1.1,2.5,3.693,3.693,0,0,1-1.1,2.7,3.928,3.928,0,0,1-2.8,1.1A3.609,3.609,0,0,1,366.5,986.3Zm-.3,5.4h6.1v26.2h-6.1Z" fill="#fff"/>
      <path id="Path_34" data-name="Path 34" d="M385,1016.5a12.161,12.161,0,0,1-5-4.8,13.4,13.4,0,0,1-1.8-6.9,13.149,13.149,0,0,1,1.8-6.9,13.564,13.564,0,0,1,5-4.8,16.1,16.1,0,0,1,14.4,0,12.161,12.161,0,0,1,5,4.8,14.125,14.125,0,0,1,0,13.8,13.564,13.564,0,0,1-5,4.8,15.307,15.307,0,0,1-7.2,1.7A14.2,14.2,0,0,1,385,1016.5Zm12.7-5.8a9.011,9.011,0,0,0,0-11.8,7.967,7.967,0,0,0-11.2,0,9.011,9.011,0,0,0,0,11.8,7.537,7.537,0,0,0,5.6,2.3A7.381,7.381,0,0,0,397.7,1010.7Z" fill="#fff"/>
      <path id="Path_35" data-name="Path 35" d="M434.8,994.3c2,1.9,3,4.8,3,8.6v15h-6.1v-14.2a7.367,7.367,0,0,0-1.6-5.2,5.824,5.824,0,0,0-4.6-1.7,7.085,7.085,0,0,0-5.3,2,8.251,8.251,0,0,0-2,5.9v13.2H412V991.7h5.8v3.4a9.447,9.447,0,0,1,3.8-2.7,14.178,14.178,0,0,1,5.2-.9A10.6,10.6,0,0,1,434.8,994.3Z" fill="#fff"/>
      <path id="Path_36" data-name="Path 36" d="M464.5,994.2c2,1.8,3.1,4.6,3.1,8.4v15.3h-5.8v-3.2a7.532,7.532,0,0,1-3.2,2.6,12.756,12.756,0,0,1-5,.9,11.324,11.324,0,0,1-5.1-1,8.566,8.566,0,0,1-3.4-2.8,6.979,6.979,0,0,1-1.2-4,7.172,7.172,0,0,1,2.6-5.7c1.7-1.4,4.5-2.1,8.3-2.1h6.8v-.4A5.359,5.359,0,0,0,460,998a7.009,7.009,0,0,0-4.9-1.5,12.511,12.511,0,0,0-4.3.7,12.284,12.284,0,0,0-3.6,1.9l-2.4-4.5a16.608,16.608,0,0,1,5-2.4,20.432,20.432,0,0,1,6.1-.8C459.5,991.4,462.4,992.3,464.5,994.2Zm-5.6,18.5a5.687,5.687,0,0,0,2.5-3v-3h-6.3c-3.5,0-5.3,1.2-5.3,3.5a2.931,2.931,0,0,0,1.3,2.6,5.815,5.815,0,0,0,3.7,1A8.107,8.107,0,0,0,458.9,1012.7Z" fill="#fff"/>
      <path id="Path_37" data-name="Path 37" d="M475.4,981.5h6.1v36.4h-6.1Z" fill="#fff"/>
    </g>
    <g id="Group_16" data-name="Group 16">
      <path id="Path_38" data-name="Path 38" d="M812.5,925.7v-20l-9.9,16.6h-2.5L790.2,906v19.8h-5.3V895.6h4.6l12,20,11.8-20h4.6v30.2l-5.4-.1Z" fill="#fff"/>
      <path id="Path_39" data-name="Path 39" d="M847,915.9H829a5.933,5.933,0,0,0,2.5,4,8.236,8.236,0,0,0,5,1.5,8.516,8.516,0,0,0,6.3-2.5l2.9,3.3a9.329,9.329,0,0,1-3.9,2.8,15.121,15.121,0,0,1-5.3.9,14.381,14.381,0,0,1-6.7-1.5,11.208,11.208,0,0,1-6.1-10.3,12.528,12.528,0,0,1,1.5-6.1,10.607,10.607,0,0,1,4.2-4.2,12.528,12.528,0,0,1,6.1-1.5,12.144,12.144,0,0,1,6,1.5,10.363,10.363,0,0,1,4.1,4.2,12.643,12.643,0,0,1,1.5,6.2A10.9,10.9,0,0,1,847,915.9Zm-15.9-7.6a6.625,6.625,0,0,0-2.2,4.1H842a6.3,6.3,0,0,0-2.1-4.1,6.589,6.589,0,0,0-4.4-1.6A6.29,6.29,0,0,0,831.1,908.3Z" fill="#fff"/>
      <path id="Path_40" data-name="Path 40" d="M844.8,933l1.6-4a5.167,5.167,0,0,0,3.1.9,2.869,2.869,0,0,0,2.3-.9,4.138,4.138,0,0,0,.8-2.7V902.7H858v23.5a8.119,8.119,0,0,1-2.1,6,7.7,7.7,0,0,1-5.9,2.2A8.278,8.278,0,0,1,844.8,933Zm8-35.1a3.145,3.145,0,0,1,0-4.6,3.922,3.922,0,0,1,5,0,2.7,2.7,0,0,1,1,2.2,3.25,3.25,0,0,1-1,2.4,3.552,3.552,0,0,1-2.5,1A3.174,3.174,0,0,1,852.8,897.9Z" fill="#fff"/>
      <path id="Path_41" data-name="Path 41" d="M869.1,924.5a11.116,11.116,0,0,1-4.4-4.2,12.428,12.428,0,0,1,0-12.2,10.5,10.5,0,0,1,4.4-4.2,13.317,13.317,0,0,1,6.3-1.5,12.763,12.763,0,0,1,6.3,1.5,11.116,11.116,0,0,1,4.4,4.2,12.428,12.428,0,0,1,0,12.2,10.5,10.5,0,0,1-4.4,4.2,13.98,13.98,0,0,1-12.6,0Zm11.2-5.1a8.066,8.066,0,0,0,0-10.4,7,7,0,0,0-9.8,0,8.066,8.066,0,0,0,0,10.4,7,7,0,0,0,9.8,0Z" fill="#fff"/>
    </g>
    <g id="Group_17" data-name="Group 17">
      <path id="Path_42" data-name="Path 42" d="M906.2,902.4v5.1a6.152,6.152,0,0,0-1.3-.1,6.569,6.569,0,0,0-4.9,1.8,7.238,7.238,0,0,0-1.8,5.3v11.2h-5.4v-23h5.1v3.4C899.5,903.6,902.3,902.4,906.2,902.4Z" fill="#fff"/>
    </g>
    <g id="Group_18" data-name="Group 18">
      <path id="Path_43" data-name="Path 43" d="M927.2,904.8c1.8,1.6,2.7,4.1,2.7,7.4v13.5h-5.1v-2.8a6.35,6.35,0,0,1-2.8,2.3,11.525,11.525,0,0,1-4.4.8,10.632,10.632,0,0,1-4.5-.9,6.757,6.757,0,0,1-3-2.5A6.147,6.147,0,0,1,909,919a6.267,6.267,0,0,1,2.3-5c1.5-1.3,4-1.9,7.3-1.9h6v-.3a4.975,4.975,0,0,0-1.4-3.7,5.987,5.987,0,0,0-4.3-1.3,12.089,12.089,0,0,0-3.8.6,9.737,9.737,0,0,0-3.2,1.7l-2.1-3.9a13.83,13.83,0,0,1,4.4-2.1,19.041,19.041,0,0,1,5.4-.7C922.8,902.4,925.4,903.2,927.2,904.8Zm-4.9,16.3a4.947,4.947,0,0,0,2.2-2.7v-2.7h-5.6c-3.1,0-4.7,1-4.7,3.1a2.561,2.561,0,0,0,1.2,2.3,6.053,6.053,0,0,0,3.2.9A5.854,5.854,0,0,0,922.3,921.1Z" fill="#fff"/>
      <path id="Path_44" data-name="Path 44" d="M948.7,893.7h5.4v32h-5.4Z" fill="#fff"/>
      <path id="Path_45" data-name="Path 45" d="M977.7,904.8c1.8,1.6,2.7,4.1,2.7,7.4v13.5h-5.1v-2.8a6.35,6.35,0,0,1-2.8,2.3,11.525,11.525,0,0,1-4.4.8,10.632,10.632,0,0,1-4.5-.9,6.757,6.757,0,0,1-3-2.5,6.147,6.147,0,0,1-1.1-3.6,6.267,6.267,0,0,1,2.3-5c1.5-1.3,4-1.9,7.3-1.9h6v-.3a4.975,4.975,0,0,0-1.4-3.7,5.987,5.987,0,0,0-4.3-1.3,12.089,12.089,0,0,0-3.8.6,9.737,9.737,0,0,0-3.2,1.7l-2.1-3.9a13.83,13.83,0,0,1,4.4-2.1,19.041,19.041,0,0,1,5.4-.7C973.4,902.4,975.9,903.2,977.7,904.8Zm-4.9,16.3a4.947,4.947,0,0,0,2.2-2.7v-2.7h-5.6c-3.1,0-4.7,1-4.7,3.1a2.561,2.561,0,0,0,1.2,2.3,6.053,6.053,0,0,0,3.2.9A5.548,5.548,0,0,0,972.8,921.1Z" fill="#fff"/>
    </g>
    <g id="Group_19" data-name="Group 19">
      <path id="Path_46" data-name="Path 46" d="M798.1,976.2a7.139,7.139,0,0,1-2.3,1.2,9.247,9.247,0,0,1-2.9.4,8.42,8.42,0,0,1-5.9-2c-1.4-1.3-2.1-3.2-2.1-5.8V958.9h-3.8v-4.3h3.8v-5.3h5.4v5.3h6.2v4.3h-6.2v11a4.033,4.033,0,0,0,.8,2.6,2.953,2.953,0,0,0,2.4.9,4.859,4.859,0,0,0,3-.9Z" fill="#fff"/>
    </g>
    <g id="Group_20" data-name="Group 20">
      <path id="Path_47" data-name="Path 47" d="M805.9,976.2a11.116,11.116,0,0,1-4.4-4.2,12.428,12.428,0,0,1,0-12.2,10.5,10.5,0,0,1,4.4-4.2,13.317,13.317,0,0,1,6.3-1.5,12.763,12.763,0,0,1,6.3,1.5,11.116,11.116,0,0,1,4.4,4.2,12.312,12.312,0,0,1,1.6,6.1,11.349,11.349,0,0,1-1.6,6.1,10.5,10.5,0,0,1-4.4,4.2,13.317,13.317,0,0,1-6.3,1.5A11.773,11.773,0,0,1,805.9,976.2Zm11.2-5a8.066,8.066,0,0,0,0-10.4,7,7,0,0,0-9.8,0,8.066,8.066,0,0,0,0,10.4,6.632,6.632,0,0,0,4.9,2A7.229,7.229,0,0,0,817.1,971.2Z" fill="#fff"/>
      <path id="Path_48" data-name="Path 48" d="M829.6,945.4H835v32h-5.4Z" fill="#fff"/>
      <path id="Path_49" data-name="Path 49" d="M863.7,967.7H845.6a5.933,5.933,0,0,0,2.5,4,8.236,8.236,0,0,0,5,1.5,8.516,8.516,0,0,0,6.3-2.5l2.9,3.3a9.329,9.329,0,0,1-3.9,2.8,15.121,15.121,0,0,1-5.3.9,14.381,14.381,0,0,1-6.7-1.5,11.208,11.208,0,0,1-6.1-10.3,12.528,12.528,0,0,1,1.5-6.1,10.607,10.607,0,0,1,4.2-4.2,12.528,12.528,0,0,1,6.1-1.5,12.144,12.144,0,0,1,6,1.5,10.363,10.363,0,0,1,4.1,4.2,12.643,12.643,0,0,1,1.5,6.2Zm-16-7.7a6.625,6.625,0,0,0-2.2,4.1h13.1a6.3,6.3,0,0,0-2.1-4.1,6.589,6.589,0,0,0-4.4-1.6A7.373,7.373,0,0,0,847.7,960Z" fill="#fff"/>
    </g>
    <g id="Group_21" data-name="Group 21">
      <path id="Path_50" data-name="Path 50" d="M882.2,954.2v5.1a6.152,6.152,0,0,0-1.3-.1A6.569,6.569,0,0,0,876,961a7.238,7.238,0,0,0-1.8,5.3v11.2h-5.4v-23h5.1v3.4C875.6,955.4,878.3,954.2,882.2,954.2Z" fill="#fff"/>
    </g>
    <g id="Group_22" data-name="Group 22">
      <path id="Path_51" data-name="Path 51" d="M903.3,956.6c1.8,1.6,2.7,4.1,2.7,7.4v13.5h-5.1v-2.8a6.35,6.35,0,0,1-2.8,2.3,11.525,11.525,0,0,1-4.4.8,10.632,10.632,0,0,1-4.5-.9,6.757,6.757,0,0,1-3-2.5,6.147,6.147,0,0,1-1.1-3.6,6.267,6.267,0,0,1,2.3-5c1.5-1.3,4-1.9,7.3-1.9h6v-.3a4.975,4.975,0,0,0-1.4-3.7,5.987,5.987,0,0,0-4.3-1.3,12.089,12.089,0,0,0-3.8.6,9.737,9.737,0,0,0-3.2,1.7l-2.1-3.9a13.83,13.83,0,0,1,4.4-2.1,19.041,19.041,0,0,1,5.4-.7C898.9,954.2,901.5,955,903.3,956.6Zm-5,16.3a4.947,4.947,0,0,0,2.2-2.7v-2.7H895c-3.1,0-4.7,1-4.7,3.1a2.561,2.561,0,0,0,1.2,2.3,6.053,6.053,0,0,0,3.2.9A6.871,6.871,0,0,0,898.3,972.9Z" fill="#fff"/>
    </g>
    <g id="Group_23" data-name="Group 23">
      <path id="Path_52" data-name="Path 52" d="M932.9,956.7c1.8,1.7,2.6,4.2,2.6,7.5v13.2h-5.4V964.9a6.547,6.547,0,0,0-1.4-4.5,5.289,5.289,0,0,0-4.1-1.5,6.1,6.1,0,0,0-4.7,1.8c-1.2,1.2-1.7,2.9-1.7,5.2v11.6h-5.4v-23h5.1v3a7.561,7.561,0,0,1,3.4-2.4,13.445,13.445,0,0,1,4.6-.8A9.093,9.093,0,0,1,932.9,956.7Z" fill="#fff"/>
    </g>
    <g id="Group_24" data-name="Group 24">
      <path id="Path_53" data-name="Path 53" d="M946.8,976.2a10.5,10.5,0,0,1-4.4-4.2,12.428,12.428,0,0,1,0-12.2,11.116,11.116,0,0,1,4.4-4.2,13.435,13.435,0,0,1,6.4-1.5,12.657,12.657,0,0,1,6,1.4,8.886,8.886,0,0,1,3.9,4l-4.1,2.4a6.359,6.359,0,0,0-2.5-2.4,7.308,7.308,0,0,0-3.3-.8,6.861,6.861,0,0,0-5,2,7.168,7.168,0,0,0-2,5.2,7.007,7.007,0,0,0,2,5.2,6.861,6.861,0,0,0,5,2,7.308,7.308,0,0,0,3.3-.8,6.358,6.358,0,0,0,2.5-2.4l4.1,2.4a9.408,9.408,0,0,1-3.9,4,13.972,13.972,0,0,1-12.4-.1Z" fill="#fff"/>
      <path id="Path_54" data-name="Path 54" d="M967.9,949.7a3.145,3.145,0,0,1,0-4.6,3.922,3.922,0,0,1,5,0,2.7,2.7,0,0,1,1,2.2,3.25,3.25,0,0,1-1,2.4,3.552,3.552,0,0,1-2.5,1A4.3,4.3,0,0,1,967.9,949.7Zm-.2,4.7h5.4v23h-5.4Z" fill="#fff"/>
      <path id="Path_55" data-name="Path 55" d="M996.7,956.6c1.8,1.6,2.7,4.1,2.7,7.4v13.5h-5.1v-2.8a6.35,6.35,0,0,1-2.8,2.3,11.525,11.525,0,0,1-4.4.8,10.632,10.632,0,0,1-4.5-.9,6.757,6.757,0,0,1-3-2.5,6.147,6.147,0,0,1-1.1-3.6,6.267,6.267,0,0,1,2.3-5c1.5-1.3,4-1.9,7.3-1.9h6v-.3a4.975,4.975,0,0,0-1.4-3.7,5.987,5.987,0,0,0-4.3-1.3,12.089,12.089,0,0,0-3.8.6,9.737,9.737,0,0,0-3.2,1.7l-2.1-3.9a13.83,13.83,0,0,1,4.4-2.1,19.041,19.041,0,0,1,5.4-.7C992.3,954.2,994.9,955,996.7,956.6Zm-4.9,16.3a4.947,4.947,0,0,0,2.2-2.7v-2.7h-5.6c-3.1,0-4.7,1-4.7,3.1a2.561,2.561,0,0,0,1.2,2.3,6.053,6.053,0,0,0,3.2.9A6.994,6.994,0,0,0,991.8,972.9Z" fill="#fff"/>
      <path id="Path_56" data-name="Path 56" d="M1034.8,956.6c1.8,1.6,2.7,4.1,2.7,7.4v13.5h-5.1v-2.8a6.349,6.349,0,0,1-2.8,2.3,11.524,11.524,0,0,1-4.4.8,10.631,10.631,0,0,1-4.5-.9,6.757,6.757,0,0,1-3-2.5,6.147,6.147,0,0,1-1.1-3.6,6.267,6.267,0,0,1,2.3-5c1.5-1.3,4-1.9,7.3-1.9h6v-.3a4.975,4.975,0,0,0-1.4-3.7,5.987,5.987,0,0,0-4.3-1.3,12.089,12.089,0,0,0-3.8.6,9.737,9.737,0,0,0-3.2,1.7l-2.1-3.9a13.83,13.83,0,0,1,4.4-2.1,19.041,19.041,0,0,1,5.4-.7C1030.4,954.2,1033,955,1034.8,956.6Zm-4.9,16.3a4.946,4.946,0,0,0,2.2-2.7v-2.7h-5.6c-3.1,0-4.7,1-4.7,3.1a2.561,2.561,0,0,0,1.2,2.3,6.053,6.053,0,0,0,3.2.9A7.508,7.508,0,0,0,1029.9,972.9Z" fill="#fff"/>
      <path id="Path_57" data-name="Path 57" d="M1044.4,945.4h5.4v32h-5.4Z" fill="#fff"/>
    </g>
    <g id="Group_25" data-name="Group 25">
      <path id="Path_58" data-name="Path 58" d="M798.1,1028a7.137,7.137,0,0,1-2.3,1.2,9.245,9.245,0,0,1-2.9.4,8.419,8.419,0,0,1-5.9-2c-1.4-1.3-2.1-3.2-2.1-5.8v-11.1h-3.8v-4.3h3.8v-5.3h5.4v5.3h6.2v4.3h-6.2v11a4.034,4.034,0,0,0,.8,2.6,2.953,2.953,0,0,0,2.4.9,4.86,4.86,0,0,0,3-.9Z" fill="#fff"/>
    </g>
    <g id="Group_26" data-name="Group 26">
      <path id="Path_59" data-name="Path 59" d="M815.9,1005.9v5.1a6.152,6.152,0,0,0-1.3-.1,6.569,6.569,0,0,0-4.9,1.8,7.238,7.238,0,0,0-1.8,5.3v11.2h-5.4v-23h5.1v3.4C809.3,1007.1,812,1005.9,815.9,1005.9Z" fill="#fff"/>
    </g>
    <g id="Group_27" data-name="Group 27">
      <path id="Path_60" data-name="Path 60" d="M836.9,1008.4c1.8,1.6,2.7,4.1,2.7,7.4v13.5h-5.1v-2.8a6.35,6.35,0,0,1-2.8,2.3,11.525,11.525,0,0,1-4.4.8,10.633,10.633,0,0,1-4.5-.9,6.757,6.757,0,0,1-3-2.5,6.147,6.147,0,0,1-1.1-3.6,6.267,6.267,0,0,1,2.3-5c1.5-1.3,4-1.9,7.3-1.9h6v-.3a4.975,4.975,0,0,0-1.4-3.7,5.987,5.987,0,0,0-4.3-1.3,12.089,12.089,0,0,0-3.8.6,9.737,9.737,0,0,0-3.2,1.7l-2.1-3.9a13.83,13.83,0,0,1,4.4-2.1,19.041,19.041,0,0,1,5.4-.7C832.5,1005.9,835.1,1006.7,836.9,1008.4Zm-4.9,16.3a4.947,4.947,0,0,0,2.2-2.7v-2.7h-5.6c-3.1,0-4.7,1-4.7,3.1a2.561,2.561,0,0,0,1.2,2.3,6.053,6.053,0,0,0,3.2.9A6.993,6.993,0,0,0,832,1024.7Z" fill="#fff"/>
      <path id="Path_61" data-name="Path 61" d="M860.4,1028a7.137,7.137,0,0,1-2.3,1.2,9.248,9.248,0,0,1-2.9.4,8.419,8.419,0,0,1-5.9-2c-1.4-1.3-2.1-3.2-2.1-5.8v-11.1h-3.8v-4.3h3.8v-5.3h5.4v5.3h6.2v4.3h-6.2v11a4.034,4.034,0,0,0,.8,2.6,2.953,2.953,0,0,0,2.4.9,4.86,4.86,0,0,0,3-.9Z" fill="#fff"/>
      <path id="Path_62" data-name="Path 62" d="M881.4,1008.4c1.8,1.6,2.7,4.1,2.7,7.4v13.5H879v-2.8a6.35,6.35,0,0,1-2.8,2.3,11.525,11.525,0,0,1-4.4.8,10.633,10.633,0,0,1-4.5-.9,6.757,6.757,0,0,1-3-2.5,6.147,6.147,0,0,1-1.1-3.6,6.267,6.267,0,0,1,2.3-5c1.5-1.3,4-1.9,7.3-1.9h6v-.3a4.975,4.975,0,0,0-1.4-3.7,5.987,5.987,0,0,0-4.3-1.3,12.089,12.089,0,0,0-3.8.6,9.737,9.737,0,0,0-3.2,1.7l-2.1-3.9a13.83,13.83,0,0,1,4.4-2.1,19.041,19.041,0,0,1,5.4-.7C877,1005.9,879.6,1006.7,881.4,1008.4Zm-4.9,16.3a4.947,4.947,0,0,0,2.2-2.7v-2.7h-5.6c-3.1,0-4.7,1-4.7,3.1a2.561,2.561,0,0,0,1.2,2.3,6.053,6.053,0,0,0,3.2.9A7.507,7.507,0,0,0,876.5,1024.7Z" fill="#fff"/>
      <path id="Path_63" data-name="Path 63" d="M927,1008.4c1.7,1.7,2.5,4.2,2.5,7.6v13.2h-5.4v-12.5a6.54,6.54,0,0,0-1.3-4.5,4.9,4.9,0,0,0-3.8-1.5,5.729,5.729,0,0,0-4.4,1.8,7.263,7.263,0,0,0-1.6,5.1v11.7h-5.4v-12.5a6.54,6.54,0,0,0-1.3-4.5,4.9,4.9,0,0,0-3.8-1.5,5.729,5.729,0,0,0-4.4,1.8,7.263,7.263,0,0,0-1.6,5.1v11.7H891v-23h5.1v2.9a9.628,9.628,0,0,1,3.2-2.4,11.758,11.758,0,0,1,4.3-.8,9.736,9.736,0,0,1,4.6,1,7.433,7.433,0,0,1,3.2,2.9,9.569,9.569,0,0,1,3.7-2.8,11.459,11.459,0,0,1,5-1A8.422,8.422,0,0,1,927,1008.4Z" fill="#fff"/>
      <path id="Path_64" data-name="Path 64" d="M936.7,1001.5a3.145,3.145,0,0,1,0-4.6,3.922,3.922,0,0,1,5,0,2.7,2.7,0,0,1,1,2.2,3.25,3.25,0,0,1-1,2.4,3.552,3.552,0,0,1-2.5,1A3.819,3.819,0,0,1,936.7,1001.5Zm-.3,4.7h5.4v23h-5.4Z" fill="#fff"/>
      <path id="Path_65" data-name="Path 65" d="M970.4,1019.4H952.3a5.933,5.933,0,0,0,2.5,4,8.236,8.236,0,0,0,5,1.5,8.517,8.517,0,0,0,6.3-2.5l2.9,3.3a9.33,9.33,0,0,1-3.9,2.8,15.121,15.121,0,0,1-5.3.9,14.381,14.381,0,0,1-6.7-1.5,11.208,11.208,0,0,1-6.1-10.3,12.528,12.528,0,0,1,1.5-6.1,10.607,10.607,0,0,1,4.2-4.2,12.528,12.528,0,0,1,6.1-1.5,12.144,12.144,0,0,1,6,1.5,10.363,10.363,0,0,1,4.1,4.2,12.643,12.643,0,0,1,1.5,6.2A4.817,4.817,0,0,1,970.4,1019.4Zm-15.9-7.6a6.625,6.625,0,0,0-2.2,4.1h13.1a6.3,6.3,0,0,0-2.1-4.1,6.589,6.589,0,0,0-4.4-1.6A6.29,6.29,0,0,0,954.5,1011.8Z" fill="#fff"/>
      <path id="Path_66" data-name="Path 66" d="M995.8,1008.5c1.8,1.7,2.6,4.2,2.6,7.5v13.2H993v-12.5a6.547,6.547,0,0,0-1.4-4.5,5.289,5.289,0,0,0-4.1-1.5,6.1,6.1,0,0,0-4.7,1.8c-1.2,1.2-1.7,2.9-1.7,5.2v11.6h-5.4v-23h5.1v3a7.561,7.561,0,0,1,3.4-2.4,13.445,13.445,0,0,1,4.6-.8A8.864,8.864,0,0,1,995.8,1008.5Z" fill="#fff"/>
    </g>
    <g id="Group_28" data-name="Group 28">
      <path id="Path_67" data-name="Path 67" d="M1019.1,1028a7.137,7.137,0,0,1-2.3,1.2,9.248,9.248,0,0,1-2.9.4,8.419,8.419,0,0,1-5.9-2c-1.4-1.3-2.1-3.2-2.1-5.8v-11.1h-3.8v-4.3h3.8v-5.3h5.4v5.3h6.2v4.3h-6.2v11a4.034,4.034,0,0,0,.8,2.6,2.953,2.953,0,0,0,2.4.9,4.86,4.86,0,0,0,3-.9Z" fill="#fff"/>
    </g>
    <g id="Group_29" data-name="Group 29">
      <path id="Path_68" data-name="Path 68" d="M1026.8,1028a11.116,11.116,0,0,1-4.4-4.2,12.428,12.428,0,0,1,0-12.2,10.5,10.5,0,0,1,4.4-4.2,13.317,13.317,0,0,1,6.3-1.5,12.763,12.763,0,0,1,6.3,1.5,11.116,11.116,0,0,1,4.4,4.2,12.312,12.312,0,0,1,1.6,6.1,11.349,11.349,0,0,1-1.6,6.1,10.5,10.5,0,0,1-4.4,4.2,13.98,13.98,0,0,1-12.6,0Zm11.2-5.1a8.066,8.066,0,0,0,0-10.4,7,7,0,0,0-9.8,0,8.066,8.066,0,0,0,0,10.4,7,7,0,0,0,9.8,0Z" fill="#fff"/>
    </g>
    <g id="Group_30" data-name="Group 30">
      <path id="Path_69" data-name="Path 69" d="M1062.9,1011.2h7.3l-.2.8h-8.8l.1-.7,6.5-5.3a12.4,12.4,0,0,0,2-2,3.085,3.085,0,0,0,.5-1.8,1.865,1.865,0,0,0-.7-1.6,3.4,3.4,0,0,0-2.2-.6,5.221,5.221,0,0,0-2.1.4,3.807,3.807,0,0,0-1.6,1.1l-.7-.6a4.644,4.644,0,0,1,2-1.3,6.963,6.963,0,0,1,2.5-.5,4.447,4.447,0,0,1,2.8.8,2.814,2.814,0,0,1,1,2.1,4.282,4.282,0,0,1-.6,2.2,9.056,9.056,0,0,1-2.2,2.3Z" fill="#fff"/>
    </g>
    <g id="Group_31" data-name="Group 31">
      <path id="Path_70" data-name="Path 70" d="M1062.9,1011.2h7.3l-.2.8h-8.8l.1-.7,6.5-5.3a12.4,12.4,0,0,0,2-2,3.085,3.085,0,0,0,.5-1.8,1.865,1.865,0,0,0-.7-1.6,3.4,3.4,0,0,0-2.2-.6,5.221,5.221,0,0,0-2.1.4,3.807,3.807,0,0,0-1.6,1.1l-.7-.6a4.644,4.644,0,0,1,2-1.3,6.963,6.963,0,0,1,2.5-.5,4.447,4.447,0,0,1,2.8.8,2.814,2.814,0,0,1,1,2.1,4.282,4.282,0,0,1-.6,2.2,9.056,9.056,0,0,1-2.2,2.3Z" fill="none" stroke="#fff" stroke-miterlimit="10" stroke-width="0.69"/>
    </g>
    <g id="Group_32" data-name="Group 32">
      <path id="Path_71" data-name="Path 71" d="M1073.4,1010.8a.764.764,0,0,1,.2.5.367.367,0,0,1-.1.3.367.367,0,0,0-.1.3c0,.1-.1.1-.1.2l-1.3,2.5h-.7l1.1-2.6-.3-.3a.6.6,0,0,1-.1-.4,1.421,1.421,0,0,1,.2-.6c.2-.2.3-.2.6-.2Z" fill="#fff"/>
      <path id="Path_72" data-name="Path 72" d="M1090,1000l-4.8,4.9a3.667,3.667,0,0,1,2.7.9,3.013,3.013,0,0,1,.9,2.3,3.594,3.594,0,0,1-2.4,3.5,7.51,7.51,0,0,1-2.6.5,7.082,7.082,0,0,1-2.6-.5,3.255,3.255,0,0,1-1.7-1.3l.6-.7a2.493,2.493,0,0,0,1.5,1.1,5.558,5.558,0,0,0,2.3.4,4.859,4.859,0,0,0,3-.9,2.99,2.99,0,0,0,1.1-2.3q0-2.4-3.3-2.4h-.7l.1-.7,4.7-4.8H1082l.2-.8h8Z" fill="#fff"/>
      <path id="Path_73" data-name="Path 73" d="M1091.3,1010.8a.764.764,0,0,1,.2.5.367.367,0,0,1-.1.3.367.367,0,0,0-.1.3c0,.1-.1.1-.1.2l-1.3,2.5h-.7l1.1-2.6-.3-.3a.6.6,0,0,1-.1-.4,1.421,1.421,0,0,1,.2-.6c.2-.2.3-.2.6-.2A1.629,1.629,0,0,1,1091.3,1010.8Z" fill="#fff"/>
      <path id="Path_74" data-name="Path 74" d="M1109.2,1008.5h-2.7l-.7,3.5h-.9l.7-3.5h-7.2l.1-.7,8.5-8.5h1.1l-8.4,8.4h6l.6-3.1h.9l-.6,3.1h2.7Z" fill="#fff"/>
    </g>
    <g id="Group_33" data-name="Group 33">
      <path id="Path_75" data-name="Path 75" d="M1073.4,1010.8a.764.764,0,0,1,.2.5.367.367,0,0,1-.1.3.367.367,0,0,0-.1.3c0,.1-.1.1-.1.2l-1.3,2.5h-.7l1.1-2.6-.3-.3a.6.6,0,0,1-.1-.4,1.421,1.421,0,0,1,.2-.6c.2-.2.3-.2.6-.2Z" fill="none" stroke="#fff" stroke-miterlimit="10" stroke-width="0.69"/>
      <path id="Path_76" data-name="Path 76" d="M1090,1000l-4.8,4.9a3.667,3.667,0,0,1,2.7.9,3.013,3.013,0,0,1,.9,2.3,3.594,3.594,0,0,1-2.4,3.5,7.51,7.51,0,0,1-2.6.5,7.082,7.082,0,0,1-2.6-.5,3.255,3.255,0,0,1-1.7-1.3l.6-.7a2.493,2.493,0,0,0,1.5,1.1,5.558,5.558,0,0,0,2.3.4,4.859,4.859,0,0,0,3-.9,2.99,2.99,0,0,0,1.1-2.3q0-2.4-3.3-2.4h-.7l.1-.7,4.7-4.8H1082l.2-.8h8Z" fill="none" stroke="#fff" stroke-miterlimit="10" stroke-width="0.69"/>
      <path id="Path_77" data-name="Path 77" d="M1091.3,1010.8a.764.764,0,0,1,.2.5.367.367,0,0,1-.1.3.367.367,0,0,0-.1.3c0,.1-.1.1-.1.2l-1.3,2.5h-.7l1.1-2.6-.3-.3a.6.6,0,0,1-.1-.4,1.421,1.421,0,0,1,.2-.6c.2-.2.3-.2.6-.2A1.629,1.629,0,0,1,1091.3,1010.8Z" fill="none" stroke="#fff" stroke-miterlimit="10" stroke-width="0.69"/>
      <path id="Path_78" data-name="Path 78" d="M1109.2,1008.5h-2.7l-.7,3.5h-.9l.7-3.5h-7.2l.1-.7,8.5-8.5h1.1l-8.4,8.4h6l.6-3.1h.9l-.6,3.1h2.7Z" fill="none" stroke="#fff" stroke-miterlimit="10" stroke-width="0.69"/>
    </g>
    <g id="Group_34" data-name="Group 34">
      <path id="Path_79" data-name="Path 79" d="M1302.7,959V939l-9.9,16.6h-2.5l-9.9-16.3V959h-5.3V928.8h4.6l12,20,11.8-20h4.6V959Z" fill="#fff"/>
      <path id="Path_80" data-name="Path 80" d="M1337.2,949.2h-18.1a5.933,5.933,0,0,0,2.5,4,8.236,8.236,0,0,0,5,1.5,8.517,8.517,0,0,0,6.3-2.5l2.9,3.3a9.329,9.329,0,0,1-3.9,2.8,15.121,15.121,0,0,1-5.3.9,14.38,14.38,0,0,1-6.7-1.5,11.382,11.382,0,0,1-4.5-4.2,12.312,12.312,0,0,1-1.6-6.1,12.528,12.528,0,0,1,1.5-6.1,10.607,10.607,0,0,1,4.2-4.2,12.528,12.528,0,0,1,6.1-1.5,12.144,12.144,0,0,1,6,1.5,10.362,10.362,0,0,1,4.1,4.2,12.643,12.643,0,0,1,1.5,6.2Zm-16-7.6a6.625,6.625,0,0,0-2.2,4.1h13.1a6.3,6.3,0,0,0-2.1-4.1,6.125,6.125,0,0,0-4.4-1.6A6.785,6.785,0,0,0,1321.2,941.6Z" fill="#fff"/>
      <path id="Path_81" data-name="Path 81" d="M1334.9,966.4l1.6-4a5.167,5.167,0,0,0,3.1.9,2.869,2.869,0,0,0,2.3-.9,4.138,4.138,0,0,0,.8-2.7V936h5.4v23.5a8.118,8.118,0,0,1-2.1,6,7.7,7.7,0,0,1-5.9,2.2A9.247,9.247,0,0,1,1334.9,966.4Zm8-35.1a3.145,3.145,0,0,1,0-4.6,3.922,3.922,0,0,1,5,0,2.7,2.7,0,0,1,1,2.2,3.25,3.25,0,0,1-1,2.4,3.552,3.552,0,0,1-2.5,1A4.3,4.3,0,0,1,1342.9,931.3Z" fill="#fff"/>
      <path id="Path_82" data-name="Path 82" d="M1359.2,957.8a11.116,11.116,0,0,1-4.4-4.2,12.312,12.312,0,0,1-1.6-6.1,11.349,11.349,0,0,1,1.6-6.1,11.116,11.116,0,0,1,4.4-4.2,13.317,13.317,0,0,1,6.3-1.5,12.763,12.763,0,0,1,6.3,1.5,11.812,11.812,0,0,1,4.4,4.2,12.312,12.312,0,0,1,1.6,6.1,11.349,11.349,0,0,1-1.6,6.1,10.5,10.5,0,0,1-4.4,4.2,13.98,13.98,0,0,1-12.6,0Zm11.2-5.1a8.066,8.066,0,0,0,0-10.4,7,7,0,0,0-9.8,0,8.066,8.066,0,0,0,0,10.4,7,7,0,0,0,9.8,0Z" fill="#fff"/>
    </g>
    <g id="Group_35" data-name="Group 35">
      <path id="Path_83" data-name="Path 83" d="M1396.3,935.7v5.1a6.153,6.153,0,0,0-1.3-.1,6.569,6.569,0,0,0-4.9,1.8,7.239,7.239,0,0,0-1.8,5.3V959h-5.4V936h5.1v3.4C1389.6,936.9,1392.4,935.7,1396.3,935.7Z" fill="#fff"/>
    </g>
    <g id="Group_36" data-name="Group 36">
      <path id="Path_84" data-name="Path 84" d="M1417.3,938.2c1.8,1.6,2.7,4.1,2.7,7.4V959h-5.1v-2.8a6.349,6.349,0,0,1-2.8,2.3,11.524,11.524,0,0,1-4.4.8,10.632,10.632,0,0,1-4.5-.9,6.756,6.756,0,0,1-3-2.5,6.147,6.147,0,0,1-1.1-3.6,6.267,6.267,0,0,1,2.3-5c1.5-1.3,4-1.9,7.3-1.9h6v-.3a4.975,4.975,0,0,0-1.4-3.7,6.15,6.15,0,0,0-4.3-1.3,12.09,12.09,0,0,0-3.8.6,10.857,10.857,0,0,0-3.2,1.7l-2.1-3.9a13.829,13.829,0,0,1,4.4-2.1,19.041,19.041,0,0,1,5.4-.7C1412.9,935.7,1415.5,936.5,1417.3,938.2Zm-4.9,16.3a4.946,4.946,0,0,0,2.2-2.7v-2.7H1409c-3.1,0-4.7,1-4.7,3.1a2.561,2.561,0,0,0,1.2,2.3,5.275,5.275,0,0,0,3.2.9A7.508,7.508,0,0,0,1412.4,954.5Z" fill="#fff"/>
      <path id="Path_85" data-name="Path 85" d="M1438.8,927h5.4v32h-5.4Z" fill="#fff"/>
      <path id="Path_86" data-name="Path 86" d="M1467.9,938.2c1.8,1.6,2.7,4.1,2.7,7.4V959h-5.1v-2.8a6.349,6.349,0,0,1-2.8,2.3,11.524,11.524,0,0,1-4.4.8,10.632,10.632,0,0,1-4.5-.9,6.756,6.756,0,0,1-3-2.5,6.147,6.147,0,0,1-1.1-3.6,6.267,6.267,0,0,1,2.3-5c1.5-1.3,4-1.9,7.3-1.9h6v-.3a4.975,4.975,0,0,0-1.4-3.7,6.15,6.15,0,0,0-4.3-1.3,12.09,12.09,0,0,0-3.8.6,10.857,10.857,0,0,0-3.2,1.7l-2.1-3.9a13.829,13.829,0,0,1,4.4-2.1,19.041,19.041,0,0,1,5.4-.7C1463.5,935.7,1466.1,936.5,1467.9,938.2Zm-5,16.3a4.946,4.946,0,0,0,2.2-2.7v-2.7h-5.6c-3.1,0-4.7,1-4.7,3.1a2.561,2.561,0,0,0,1.2,2.3,5.275,5.275,0,0,0,3.2.9A6.994,6.994,0,0,0,1462.9,954.5Z" fill="#fff"/>
      <path id="Path_87" data-name="Path 87" d="M1493.5,957.8a10.5,10.5,0,0,1-4.4-4.2,12.428,12.428,0,0,1,0-12.2,11.116,11.116,0,0,1,4.4-4.2,13.435,13.435,0,0,1,6.4-1.5,12.657,12.657,0,0,1,6,1.4,8.886,8.886,0,0,1,3.9,4l-4.1,2.4a6.358,6.358,0,0,0-2.5-2.4,7.308,7.308,0,0,0-3.3-.8,6.861,6.861,0,0,0-5,2,7.167,7.167,0,0,0-2,5.2,7.006,7.006,0,0,0,2,5.2,6.861,6.861,0,0,0,5,2,7.308,7.308,0,0,0,3.3-.8,6.358,6.358,0,0,0,2.5-2.4l4.1,2.4a9.408,9.408,0,0,1-3.9,4,12.538,12.538,0,0,1-5.9,1.4A13.56,13.56,0,0,1,1493.5,957.8Z" fill="#fff"/>
      <path id="Path_88" data-name="Path 88" d="M1531,938.2c1.8,1.6,2.7,4.1,2.7,7.4V959h-5.1v-2.8a6.349,6.349,0,0,1-2.8,2.3,11.524,11.524,0,0,1-4.4.8,10.632,10.632,0,0,1-4.5-.9,6.756,6.756,0,0,1-3-2.5,6.147,6.147,0,0,1-1.1-3.6,6.267,6.267,0,0,1,2.3-5c1.5-1.3,4-1.9,7.3-1.9h6v-.3a4.975,4.975,0,0,0-1.4-3.7,5.987,5.987,0,0,0-4.3-1.3,12.09,12.09,0,0,0-3.8.6,9.735,9.735,0,0,0-3.2,1.7l-2.1-3.9a13.829,13.829,0,0,1,4.4-2.1,19.041,19.041,0,0,1,5.4-.7C1526.6,935.7,1529.2,936.5,1531,938.2Zm-4.9,16.3a4.946,4.946,0,0,0,2.2-2.7v-2.7h-5.6c-3.1,0-4.7,1-4.7,3.1a2.561,2.561,0,0,0,1.2,2.3,6.053,6.053,0,0,0,3.2.9A7.507,7.507,0,0,0,1526.1,954.5Z" fill="#fff"/>
      <path id="Path_89" data-name="Path 89" d="M1540.6,927h5.4v32h-5.4Z" fill="#fff"/>
      <path id="Path_90" data-name="Path 90" d="M1553.3,931.3a3.145,3.145,0,0,1,0-4.6,3.922,3.922,0,0,1,5,0,2.7,2.7,0,0,1,1,2.2,3.25,3.25,0,0,1-1,2.4,3.552,3.552,0,0,1-2.5,1A4.3,4.3,0,0,1,1553.3,931.3Zm-.2,4.7h5.4v23h-5.4Z" fill="#fff"/>
      <path id="Path_91" data-name="Path 91" d="M1588.1,927v32h-5.2v-3a9.046,9.046,0,0,1-3.3,2.5,12.412,12.412,0,0,1-10.3-.7,10.606,10.606,0,0,1-4.2-4.2,13.563,13.563,0,0,1,0-12.4,9.772,9.772,0,0,1,4.2-4.1,12.144,12.144,0,0,1,6-1.5,11.622,11.622,0,0,1,4.2.8,8.215,8.215,0,0,1,3.2,2.3V927Zm-8.7,26.8a6.665,6.665,0,0,0,2.5-2.5,8.472,8.472,0,0,0,0-7.6,6.025,6.025,0,0,0-2.5-2.5,7.255,7.255,0,0,0-7,0,6.665,6.665,0,0,0-2.5,2.5,8.472,8.472,0,0,0,0,7.6,6.025,6.025,0,0,0,2.5,2.5,7.255,7.255,0,0,0,7,0Z" fill="#fff"/>
    </g>
    <g id="Group_37" data-name="Group 37">
      <path id="Path_92" data-name="Path 92" d="M1611.7,938.2c1.8,1.6,2.7,4.1,2.7,7.4V959h-5.1v-2.8a6.349,6.349,0,0,1-2.8,2.3,11.524,11.524,0,0,1-4.4.8,10.632,10.632,0,0,1-4.5-.9,6.756,6.756,0,0,1-3-2.5,6.147,6.147,0,0,1-1.1-3.6,6.267,6.267,0,0,1,2.3-5c1.5-1.3,4-1.9,7.3-1.9h6v-.3a4.975,4.975,0,0,0-1.4-3.7,6.15,6.15,0,0,0-4.3-1.3,12.09,12.09,0,0,0-3.8.6,9.735,9.735,0,0,0-3.2,1.7l-2.1-3.9a13.829,13.829,0,0,1,4.4-2.1,19.041,19.041,0,0,1,5.4-.7C1607.3,935.7,1609.9,936.5,1611.7,938.2Zm-4.9,16.3a4.946,4.946,0,0,0,2.2-2.7v-2.7h-5.6c-3.1,0-4.7,1-4.7,3.1a2.561,2.561,0,0,0,1.2,2.3,6.053,6.053,0,0,0,3.2.9A6.994,6.994,0,0,0,1606.8,954.5Z" fill="#fff"/>
    </g>
    <g id="Group_38" data-name="Group 38">
      <path id="Path_93" data-name="Path 93" d="M1644.1,927v32h-5.2v-3a9.046,9.046,0,0,1-3.3,2.5,12.412,12.412,0,0,1-10.3-.7,10.606,10.606,0,0,1-4.2-4.2,13.563,13.563,0,0,1,0-12.4,9.772,9.772,0,0,1,4.2-4.1,12.144,12.144,0,0,1,6-1.5,11.622,11.622,0,0,1,4.2.8,8.214,8.214,0,0,1,3.2,2.3V927Zm-8.7,26.8a6.665,6.665,0,0,0,2.5-2.5,8.472,8.472,0,0,0,0-7.6,6.025,6.025,0,0,0-2.5-2.5,7.255,7.255,0,0,0-7,0,6.665,6.665,0,0,0-2.5,2.5,8.472,8.472,0,0,0,0,7.6,6.025,6.025,0,0,0,2.5,2.5,7.255,7.255,0,0,0,7,0Z" fill="#fff"/>
    </g>
    <g id="Group_39" data-name="Group 39">
      <path id="Path_94" data-name="Path 94" d="M1297,978.8v32h-5.2v-3a9.046,9.046,0,0,1-3.3,2.5,10.3,10.3,0,0,1-4.3.8,12.144,12.144,0,0,1-6-1.5,10.606,10.606,0,0,1-4.2-4.2,13.563,13.563,0,0,1,0-12.4,9.772,9.772,0,0,1,4.2-4.1,12.144,12.144,0,0,1,6-1.5,11.622,11.622,0,0,1,4.2.8,8.214,8.214,0,0,1,3.2,2.3V978.7h5.4v.1Zm-8.7,26.8a6.665,6.665,0,0,0,2.5-2.5,8.472,8.472,0,0,0,0-7.6,6.025,6.025,0,0,0-2.5-2.5,7.255,7.255,0,0,0-7,0,6.665,6.665,0,0,0-2.5,2.5,8.472,8.472,0,0,0,0,7.6,6.025,6.025,0,0,0,2.5,2.5,7.255,7.255,0,0,0,7,0Z" fill="#fff"/>
      <path id="Path_95" data-name="Path 95" d="M1325.6,1001h-18.1a5.933,5.933,0,0,0,2.5,4,8.236,8.236,0,0,0,5,1.5,8.517,8.517,0,0,0,6.3-2.5l2.9,3.3a9.329,9.329,0,0,1-3.9,2.8,15.121,15.121,0,0,1-5.3.9,14.38,14.38,0,0,1-6.7-1.5,11.208,11.208,0,0,1-6.1-10.3,12.528,12.528,0,0,1,1.5-6.1,10.607,10.607,0,0,1,4.2-4.2,12.528,12.528,0,0,1,6.1-1.5,12.144,12.144,0,0,1,6,1.5,10.362,10.362,0,0,1,4.1,4.2,12.643,12.643,0,0,1,1.5,6.2A4.818,4.818,0,0,1,1325.6,1001Zm-15.9-7.7a6.625,6.625,0,0,0-2.2,4.1h13.1a6.3,6.3,0,0,0-2.1-4.1,6.589,6.589,0,0,0-4.4-1.6A7.139,7.139,0,0,0,1309.7,993.3Z" fill="#fff"/>
      <path id="Path_96" data-name="Path 96" d="M1364.3,987.7l-9.9,23h-5.6l-9.9-23h5.6l7.2,17.1,7.4-17.1Z" fill="#fff"/>
      <path id="Path_97" data-name="Path 97" d="M1368,983a3.145,3.145,0,0,1,0-4.6,3.922,3.922,0,0,1,5,0,2.7,2.7,0,0,1,1,2.2,3.25,3.25,0,0,1-1,2.4,3.552,3.552,0,0,1-2.5,1A3.82,3.82,0,0,1,1368,983Zm-.3,4.7h5.4v23h-5.4Z" fill="#fff"/>
      <path id="Path_98" data-name="Path 98" d="M1402.7,978.8v32h-5.2v-3a9.046,9.046,0,0,1-3.3,2.5,12.412,12.412,0,0,1-10.3-.7,10.606,10.606,0,0,1-4.2-4.2,13.563,13.563,0,0,1,0-12.4,9.772,9.772,0,0,1,4.2-4.1,12.144,12.144,0,0,1,6-1.5,11.622,11.622,0,0,1,4.2.8,8.214,8.214,0,0,1,3.2,2.3V978.7h5.4v.1Zm-8.7,26.8a6.665,6.665,0,0,0,2.5-2.5,8.472,8.472,0,0,0,0-7.6,6.025,6.025,0,0,0-2.5-2.5,7.255,7.255,0,0,0-7,0,6.665,6.665,0,0,0-2.5,2.5,8.472,8.472,0,0,0,0,7.6,6.025,6.025,0,0,0,2.5,2.5,7.255,7.255,0,0,0,7,0Z" fill="#fff"/>
      <path id="Path_99" data-name="Path 99" d="M1426.4,989.9c1.8,1.6,2.7,4.1,2.7,7.4v13.5H1424V1008a6.349,6.349,0,0,1-2.8,2.3,11.524,11.524,0,0,1-4.4.8,10.632,10.632,0,0,1-4.5-.9,6.756,6.756,0,0,1-3-2.5,6.147,6.147,0,0,1-1.1-3.6,6.267,6.267,0,0,1,2.3-5c1.5-1.3,4-1.9,7.3-1.9h6V997a4.975,4.975,0,0,0-1.4-3.7,6.15,6.15,0,0,0-4.3-1.3,12.09,12.09,0,0,0-3.8.6,9.735,9.735,0,0,0-3.2,1.7l-2.1-3.9a13.829,13.829,0,0,1,4.4-2.1,19.041,19.041,0,0,1,5.4-.7A10.659,10.659,0,0,1,1426.4,989.9Zm-4.9,16.3a4.946,4.946,0,0,0,2.2-2.7v-2.7h-5.6c-3.1,0-4.7,1-4.7,3.1a2.561,2.561,0,0,0,1.2,2.3,6.053,6.053,0,0,0,3.2.9A7.508,7.508,0,0,0,1421.5,1006.2Z" fill="#fff"/>
    </g>
    <g id="Group_40" data-name="Group 40">
      <path id="Path_100" data-name="Path 100" d="M1446.2,996.8h7.3l-.2.8h-8.8l.1-.7,6.5-5.3a12.4,12.4,0,0,0,2-2,3.085,3.085,0,0,0,.5-1.8,1.865,1.865,0,0,0-.7-1.6,3.4,3.4,0,0,0-2.2-.6,5.221,5.221,0,0,0-2.1.4,3.807,3.807,0,0,0-1.6,1.1l-.7-.6a4.644,4.644,0,0,1,2-1.3,6.963,6.963,0,0,1,2.5-.5,4.447,4.447,0,0,1,2.8.8,2.814,2.814,0,0,1,1,2.1,4.282,4.282,0,0,1-.6,2.2,9.056,9.056,0,0,1-2.2,2.3Z" fill="#fff"/>
    </g>
    <g id="Group_41" data-name="Group 41">
      <path id="Path_101" data-name="Path 101" d="M1446.2,996.8h7.3l-.2.8h-8.8l.1-.7,6.5-5.3a12.4,12.4,0,0,0,2-2,3.085,3.085,0,0,0,.5-1.8,1.865,1.865,0,0,0-.7-1.6,3.4,3.4,0,0,0-2.2-.6,5.221,5.221,0,0,0-2.1.4,3.807,3.807,0,0,0-1.6,1.1l-.7-.6a4.644,4.644,0,0,1,2-1.3,6.963,6.963,0,0,1,2.5-.5,4.447,4.447,0,0,1,2.8.8,2.814,2.814,0,0,1,1,2.1,4.282,4.282,0,0,1-.6,2.2,9.056,9.056,0,0,1-2.2,2.3Z" fill="none" stroke="#fff" stroke-miterlimit="10" stroke-width="0.69"/>
    </g>
    <g id="Group_42" data-name="Group 42">
      <path id="Path_102" data-name="Path 102" d="M1456.7,996.4a.764.764,0,0,1,.2.5.367.367,0,0,1-.1.3c0,.1-.1.2-.1.3s-.1.1-.1.2l-1.3,2.5h-.7l1.1-2.6-.3-.3a.6.6,0,0,1-.1-.4,1.421,1.421,0,0,1,.2-.6c.2-.2.3-.2.6-.2Z" fill="#fff"/>
      <path id="Path_103" data-name="Path 103" d="M1473.3,985.6l-4.8,4.9a3.667,3.667,0,0,1,2.7.9,3.013,3.013,0,0,1,.9,2.3,3.594,3.594,0,0,1-2.4,3.5,7.512,7.512,0,0,1-2.6.5,7.082,7.082,0,0,1-2.6-.5,3.255,3.255,0,0,1-1.7-1.3l.6-.7a2.493,2.493,0,0,0,1.5,1.1,7.877,7.877,0,0,0,2.3.4,4.859,4.859,0,0,0,3-.9,2.99,2.99,0,0,0,1.1-2.3q0-2.4-3.3-2.4h-.7l.1-.7,4.7-4.8h-6.8l.2-.8h8Z" fill="#fff"/>
      <path id="Path_104" data-name="Path 104" d="M1474.6,996.4a.764.764,0,0,1,.2.5.367.367,0,0,1-.1.3c0,.1-.1.2-.1.3s-.1.1-.1.2l-1.3,2.5h-.7l1.1-2.6-.3-.3a.6.6,0,0,1-.1-.4,1.421,1.421,0,0,1,.2-.6c.2-.2.3-.2.6-.2A1.626,1.626,0,0,1,1474.6,996.4Z" fill="#fff"/>
      <path id="Path_105" data-name="Path 105" d="M1492.5,994.1h-2.7l-.7,3.5h-.9l.7-3.5h-7.2l.1-.7,8.5-8.5h1.1l-8.4,8.4h6l.6-3.1h.9l-.6,3.1h2.7Z" fill="#fff"/>
    </g>
    <g id="Group_43" data-name="Group 43">
      <path id="Path_106" data-name="Path 106" d="M1456.7,996.4a.764.764,0,0,1,.2.5.367.367,0,0,1-.1.3c0,.1-.1.2-.1.3s-.1.1-.1.2l-1.3,2.5h-.7l1.1-2.6-.3-.3a.6.6,0,0,1-.1-.4,1.421,1.421,0,0,1,.2-.6c.2-.2.3-.2.6-.2Z" fill="none" stroke="#fff" stroke-miterlimit="10" stroke-width="0.69"/>
      <path id="Path_107" data-name="Path 107" d="M1473.3,985.6l-4.8,4.9a3.667,3.667,0,0,1,2.7.9,3.013,3.013,0,0,1,.9,2.3,3.594,3.594,0,0,1-2.4,3.5,7.512,7.512,0,0,1-2.6.5,7.082,7.082,0,0,1-2.6-.5,3.255,3.255,0,0,1-1.7-1.3l.6-.7a2.493,2.493,0,0,0,1.5,1.1,7.877,7.877,0,0,0,2.3.4,4.859,4.859,0,0,0,3-.9,2.99,2.99,0,0,0,1.1-2.3q0-2.4-3.3-2.4h-.7l.1-.7,4.7-4.8h-6.8l.2-.8h8Z" fill="none" stroke="#fff" stroke-miterlimit="10" stroke-width="0.69"/>
      <path id="Path_108" data-name="Path 108" d="M1474.6,996.4a.764.764,0,0,1,.2.5.367.367,0,0,1-.1.3c0,.1-.1.2-.1.3s-.1.1-.1.2l-1.3,2.5h-.7l1.1-2.6-.3-.3a.6.6,0,0,1-.1-.4,1.421,1.421,0,0,1,.2-.6c.2-.2.3-.2.6-.2A1.626,1.626,0,0,1,1474.6,996.4Z" fill="none" stroke="#fff" stroke-miterlimit="10" stroke-width="0.69"/>
      <path id="Path_109" data-name="Path 109" d="M1492.5,994.1h-2.7l-.7,3.5h-.9l.7-3.5h-7.2l.1-.7,8.5-8.5h1.1l-8.4,8.4h6l.6-3.1h.9l-.6,3.1h2.7Z" fill="none" stroke="#fff" stroke-miterlimit="10" stroke-width="0.69"/>
    </g>
    <g id="Group_108" data-name="Group 108">
      <path id="Path_293" data-name="Path 293" d="M1805.2,782.3h9.6V816h20.8v7.8h-30.4Z" fill="#443c84"/>
    </g>
    <g id="Group_109" data-name="Group 109">
      <path id="Path_294" data-name="Path 294" d="M1864.6,794.9c2.6,2.4,4,5.9,4,10.6v18.2h-8.7v-4c-1.7,3-5,4.4-9.7,4.4a15.887,15.887,0,0,1-6.4-1.2,9.3,9.3,0,0,1-4.1-3.4,9.4,9.4,0,0,1-1.4-5,8.32,8.32,0,0,1,3.3-7c2.2-1.7,5.7-2.5,10.3-2.5h7.3a6.1,6.1,0,0,0-1.8-4.7c-1.2-1.1-3.1-1.6-5.5-1.6a16.869,16.869,0,0,0-5,.8,13.969,13.969,0,0,0-4.2,2.2l-3.3-6.5a18.6,18.6,0,0,1,6.2-2.8,26.626,26.626,0,0,1,7.5-1C1858.2,791.4,1862,792.6,1864.6,794.9Zm-7.8,22a5.938,5.938,0,0,0,2.6-3.2v-3.3h-6.3c-3.8,0-5.7,1.2-5.7,3.7a3.368,3.368,0,0,0,1.4,2.8,6.127,6.127,0,0,0,3.8,1A7.691,7.691,0,0,0,1856.8,816.9Z" fill="#443c84"/>
      <path id="Path_295" data-name="Path 295" d="M1894.2,785.9a5.078,5.078,0,0,1,0-7.4,5.755,5.755,0,0,1,4.1-1.5,5.984,5.984,0,0,1,4.1,1.4,4.375,4.375,0,0,1,1.6,3.6,4.918,4.918,0,0,1-1.6,3.8,5.925,5.925,0,0,1-4.1,1.5A5.426,5.426,0,0,1,1894.2,785.9Zm-.5,6h9.2v31.9h-9.2Z" fill="#443c84"/>
      <path id="Path_296" data-name="Path 296" d="M1940.5,794.9q3.6,3.6,3.6,10.5v18.2h-9.2V806.8a8.615,8.615,0,0,0-1.7-5.7,6.238,6.238,0,0,0-4.8-1.9,7.309,7.309,0,0,0-5.6,2.2c-1.4,1.4-2.1,3.6-2.1,6.4v15.8h-9.2V791.7h8.8v3.7a11.694,11.694,0,0,1,4.6-3.1,16.432,16.432,0,0,1,6-1.1C1934.9,791.4,1938.1,792.6,1940.5,794.9Z" fill="#443c84"/>
    </g>
    <g id="Group_110" data-name="Group 110">
      <path id="Path_297" data-name="Path 297" d="M1971.9,822.2a8.355,8.355,0,0,1-3.3,1.5,18.592,18.592,0,0,1-4.2.5c-3.8,0-6.7-1-8.8-2.9s-3.1-4.8-3.1-8.5V799.7h-4.9v-7.1h4.9v-7.8h9.2v7.8h7.9v7.1h-7.9v13a4.292,4.292,0,0,0,1,3.1,4,4,0,0,0,2.9,1.1,5.672,5.672,0,0,0,3.7-1.2Z" fill="#443c84"/>
    </g>
    <g id="Group_111" data-name="Group 111">
      <path id="Path_298" data-name="Path 298" d="M2006.8,810.4h-24.1a7.6,7.6,0,0,0,3.1,4.7,10.364,10.364,0,0,0,6,1.7,11.959,11.959,0,0,0,4.4-.7,11.594,11.594,0,0,0,3.6-2.3l4.9,5.3c-3,3.4-7.4,5.2-13.2,5.2a20.465,20.465,0,0,1-9.5-2.1,15.643,15.643,0,0,1-6.4-5.8,16.146,16.146,0,0,1-2.3-8.5,15.974,15.974,0,0,1,2.2-8.4,15.726,15.726,0,0,1,6.1-5.9,18.053,18.053,0,0,1,8.7-2.1,18.673,18.673,0,0,1,8.5,2,15.192,15.192,0,0,1,6,5.8,17.55,17.55,0,0,1,2.2,8.7A20.11,20.11,0,0,1,2006.8,810.4Zm-21.6-10.2a7.611,7.611,0,0,0-2.6,4.9h15.7a7.616,7.616,0,0,0-2.6-4.8,7.833,7.833,0,0,0-5.2-1.8A7.377,7.377,0,0,0,1985.2,800.2Z" fill="#443c84"/>
    </g>
    <g id="Group_112" data-name="Group 112">
      <path id="Path_299" data-name="Path 299" d="M2026.2,792.6a16.388,16.388,0,0,1,6.5-1.2v8.5a19.71,19.71,0,0,0-2.1-.1,8.4,8.4,0,0,0-6.2,2.2c-1.5,1.5-2.3,3.7-2.3,6.7v15h-9.2V791.8h8.8V796A10.375,10.375,0,0,1,2026.2,792.6Z" fill="#443c84"/>
    </g>
    <g id="Group_113" data-name="Group 113">
      <path id="Path_300" data-name="Path 300" d="M2070.7,791.9l-13.4,31.9h-9.5l-13.4-31.9h9.5l8.8,21.7,9.1-21.7Z" fill="#443c84"/>
    </g>
    <g id="Group_114" data-name="Group 114">
      <path id="Path_301" data-name="Path 301" d="M2104.3,810.4h-24.1a7.6,7.6,0,0,0,3.1,4.7,10.365,10.365,0,0,0,6,1.7,11.957,11.957,0,0,0,4.4-.7,11.6,11.6,0,0,0,3.6-2.3l4.9,5.3c-3,3.4-7.4,5.2-13.2,5.2a20.464,20.464,0,0,1-9.5-2.1,15.042,15.042,0,0,1-6.4-5.8,16.146,16.146,0,0,1-2.3-8.5,15.974,15.974,0,0,1,2.2-8.4,15.726,15.726,0,0,1,6.1-5.9,18.054,18.054,0,0,1,8.7-2.1,18.673,18.673,0,0,1,8.5,2,15.192,15.192,0,0,1,6,5.8,17.551,17.551,0,0,1,2.2,8.7S2104.4,808.9,2104.3,810.4Zm-21.6-10.2a7.612,7.612,0,0,0-2.6,4.9h15.7a7.616,7.616,0,0,0-2.6-4.8,7.833,7.833,0,0,0-5.2-1.8A7.377,7.377,0,0,0,2082.7,800.2Z" fill="#443c84"/>
    </g>
    <g id="Group_115" data-name="Group 115">
      <path id="Path_302" data-name="Path 302" d="M2139.3,794.9q3.6,3.6,3.6,10.5v18.2h-9.2V806.8a8.616,8.616,0,0,0-1.7-5.7,6.238,6.238,0,0,0-4.8-1.9,7.31,7.31,0,0,0-5.6,2.2c-1.4,1.4-2.1,3.6-2.1,6.4v15.8h-9.2V791.7h8.8v3.7a11.693,11.693,0,0,1,4.6-3.1,16.432,16.432,0,0,1,6-1.1C2133.7,791.4,2136.9,792.6,2139.3,794.9Z" fill="#443c84"/>
    </g>
    <g id="Group_116" data-name="Group 116">
      <path id="Path_303" data-name="Path 303" d="M2157.6,822.1a15.372,15.372,0,0,1-6.3-5.8,16.856,16.856,0,0,1,0-17,15.372,15.372,0,0,1,6.3-5.8,19.788,19.788,0,0,1,9.2-2.1,17.631,17.631,0,0,1,8.8,2.1,12.814,12.814,0,0,1,5.5,6l-7.2,3.9c-1.7-2.9-4-4.4-7.2-4.4a8.141,8.141,0,0,0-6,2.4,10,10,0,0,0,0,13,8.141,8.141,0,0,0,6,2.4c3.2,0,5.5-1.5,7.2-4.4l7.2,3.9a12.555,12.555,0,0,1-5.5,5.9,17.63,17.63,0,0,1-8.8,2.1A21.148,21.148,0,0,1,2157.6,822.1Z" fill="#443c84"/>
      <path id="Path_304" data-name="Path 304" d="M2186.3,785.9a5.078,5.078,0,0,1,0-7.4,5.755,5.755,0,0,1,4.1-1.5,5.984,5.984,0,0,1,4.1,1.4,4.375,4.375,0,0,1,1.6,3.6,4.918,4.918,0,0,1-1.6,3.8,5.755,5.755,0,0,1-4.1,1.5A5.162,5.162,0,0,1,2186.3,785.9Zm-.5,6h9.2v31.9h-9.2Z" fill="#443c84"/>
      <path id="Path_305" data-name="Path 305" d="M2209.2,822.1a15.372,15.372,0,0,1-6.3-5.8,16.856,16.856,0,0,1,0-17,15.372,15.372,0,0,1,6.3-5.8,19.256,19.256,0,0,1,9-2.1,18.97,18.97,0,0,1,9,2.1,15.744,15.744,0,0,1,6.2,5.8,16.856,16.856,0,0,1,0,17,15.745,15.745,0,0,1-6.2,5.8,20.336,20.336,0,0,1-18,0Zm14.8-7.9a10.054,10.054,0,0,0,0-12.8,7.694,7.694,0,0,0-5.8-2.4,8.073,8.073,0,0,0-5.9,2.4,10.054,10.054,0,0,0,0,12.8,7.762,7.762,0,0,0,5.9,2.4A7.544,7.544,0,0,0,2224,814.2Zm-3.3-35h10l-10.7,8.5h-7.2Z" fill="#443c84"/>
      <path id="Path_306" data-name="Path 306" d="M2270.2,794.9q3.6,3.6,3.6,10.5v18.2h-9.2V806.8a8.616,8.616,0,0,0-1.7-5.7,6.238,6.238,0,0,0-4.8-1.9,7.31,7.31,0,0,0-5.6,2.2c-1.4,1.4-2.1,3.6-2.1,6.4v15.8h-9.2V791.7h8.8v3.7a11.693,11.693,0,0,1,4.6-3.1,16.432,16.432,0,0,1,6-1.1C2264.6,791.4,2267.8,792.6,2270.2,794.9Z" fill="#443c84"/>
    </g>
    <g id="Group_117" data-name="Group 117">
      <path id="Path_307" data-name="Path 307" d="M1833.5,853.7q3.6,3.6,3.6,10.5v18.2h-9.2V865.6a8.615,8.615,0,0,0-1.7-5.7,6.238,6.238,0,0,0-4.8-1.9,7.309,7.309,0,0,0-5.6,2.2c-1.4,1.4-2.1,3.6-2.1,6.4v15.8h-9.2V850.5h8.8v3.7a11.694,11.694,0,0,1,4.6-3.1,16.432,16.432,0,0,1,6-1.1C1827.9,850.2,1831.1,851.4,1833.5,853.7Z" fill="#443c84"/>
      <path id="Path_308" data-name="Path 308" d="M1877,850.7v31.9h-8.8v-3.8a12.8,12.8,0,0,1-4.4,3.2,14.2,14.2,0,0,1-5.5,1.1c-4.2,0-7.5-1.2-10-3.6-2.4-2.4-3.7-6-3.7-10.7v-18h9.2v16.6c0,5.1,2.2,7.7,6.5,7.7a6.662,6.662,0,0,0,5.3-2.2c1.3-1.4,2-3.6,2-6.4V850.7Z" fill="#443c84"/>
      <path id="Path_309" data-name="Path 309" d="M1905.6,881a8.355,8.355,0,0,1-3.3,1.5,18.592,18.592,0,0,1-4.2.5c-3.8,0-6.7-1-8.8-2.9s-3.1-4.8-3.1-8.5V858.5h-4.9v-7.1h4.9v-7.8h9.2v7.8h7.9v7.1h-7.9v13a4.292,4.292,0,0,0,1,3.1,4,4,0,0,0,2.9,1.1,5.672,5.672,0,0,0,3.7-1.2Z" fill="#443c84"/>
    </g>
    <g id="Group_118" data-name="Group 118">
      <path id="Path_310" data-name="Path 310" d="M1924.4,851.4a16.388,16.388,0,0,1,6.5-1.2v8.5a19.71,19.71,0,0,0-2.1-.1,8.4,8.4,0,0,0-6.2,2.2c-1.5,1.5-2.3,3.7-2.3,6.7v15h-9.2V850.6h8.8v4.2A10.373,10.373,0,0,1,1924.4,851.4Z" fill="#443c84"/>
    </g>
    <g id="Group_119" data-name="Group 119">
      <path id="Path_311" data-name="Path 311" d="M1936.6,844.7a5.078,5.078,0,0,1,0-7.4,5.755,5.755,0,0,1,4.1-1.5,5.984,5.984,0,0,1,4.1,1.4,4.375,4.375,0,0,1,1.6,3.6,4.918,4.918,0,0,1-1.6,3.8,5.755,5.755,0,0,1-4.1,1.5A5.162,5.162,0,0,1,1936.6,844.7Zm-.5,6h9.2v31.9h-9.2Z" fill="#443c84"/>
      <path id="Path_312" data-name="Path 312" d="M1959.6,880.9a15.372,15.372,0,0,1-6.3-5.8,16.856,16.856,0,0,1,0-17,15.371,15.371,0,0,1,6.3-5.8,19.788,19.788,0,0,1,9.2-2.1,17.631,17.631,0,0,1,8.8,2.1,12.814,12.814,0,0,1,5.5,6l-7.2,3.9c-1.7-2.9-4-4.4-7.2-4.4a8.14,8.14,0,0,0-6,2.4,10,10,0,0,0,0,13,8.141,8.141,0,0,0,6,2.4c3.2,0,5.5-1.5,7.2-4.4l7.2,3.9a12.554,12.554,0,0,1-5.5,5.9,17.63,17.63,0,0,1-8.8,2.1A21.151,21.151,0,0,1,1959.6,880.9Z" fill="#443c84"/>
      <path id="Path_313" data-name="Path 313" d="M1988.2,844.7a5.078,5.078,0,0,1,0-7.4,5.755,5.755,0,0,1,4.1-1.5,5.984,5.984,0,0,1,4.1,1.4,4.375,4.375,0,0,1,1.6,3.6,4.918,4.918,0,0,1-1.6,3.8,5.755,5.755,0,0,1-4.1,1.5A5.426,5.426,0,0,1,1988.2,844.7Zm-.4,6h9.2v31.9h-9.2Z" fill="#443c84"/>
      <path id="Path_314" data-name="Path 314" d="M2011.1,880.9a15.372,15.372,0,0,1-6.3-5.8,16.856,16.856,0,0,1,0-17,15.371,15.371,0,0,1,6.3-5.8,19.256,19.256,0,0,1,9-2.1,18.69,18.69,0,0,1,9,2.1,15.745,15.745,0,0,1,6.2,5.8,16.856,16.856,0,0,1,0,17,15.744,15.744,0,0,1-6.2,5.8,18.69,18.69,0,0,1-9,2.1A19.257,19.257,0,0,1,2011.1,880.9ZM2026,873a10.054,10.054,0,0,0,0-12.8,7.694,7.694,0,0,0-5.8-2.4,8.073,8.073,0,0,0-5.9,2.4,10.054,10.054,0,0,0,0,12.8,7.762,7.762,0,0,0,5.9,2.4A7.543,7.543,0,0,0,2026,873Z" fill="#443c84"/>
      <path id="Path_315" data-name="Path 315" d="M2072.2,853.7q3.6,3.6,3.6,10.5v18.2h-9.2V865.6a8.616,8.616,0,0,0-1.7-5.7,6.238,6.238,0,0,0-4.8-1.9,7.31,7.31,0,0,0-5.6,2.2c-1.4,1.4-2.1,3.6-2.1,6.4v15.8h-9.2V850.5h8.8v3.7a11.693,11.693,0,0,1,4.6-3.1,16.432,16.432,0,0,1,6-1.1A14.558,14.558,0,0,1,2072.2,853.7Z" fill="#443c84"/>
      <path id="Path_316" data-name="Path 316" d="M2107.8,853.7c2.6,2.4,4,5.9,4,10.6v18.2h-8.7v-4c-1.7,3-5,4.4-9.7,4.4a15.886,15.886,0,0,1-6.4-1.2,9.3,9.3,0,0,1-4.1-3.4,9.4,9.4,0,0,1-1.4-5,8.32,8.32,0,0,1,3.3-7c2.2-1.7,5.7-2.5,10.3-2.5h7.3a6.1,6.1,0,0,0-1.8-4.7c-1.2-1.1-3.1-1.6-5.5-1.6a16.87,16.87,0,0,0-5,.8,13.967,13.967,0,0,0-4.2,2.2l-3.3-6.5a18.6,18.6,0,0,1,6.2-2.8,26.625,26.625,0,0,1,7.5-1C2101.4,850.2,2105.2,851.4,2107.8,853.7Zm-7.9,22a5.938,5.938,0,0,0,2.6-3.2v-3.3h-6.3c-3.8,0-5.7,1.2-5.7,3.7a3.369,3.369,0,0,0,1.4,2.8,6.127,6.127,0,0,0,3.8,1A7.289,7.289,0,0,0,2099.9,875.7Z" fill="#443c84"/>
      <path id="Path_317" data-name="Path 317" d="M2119.5,838.6h9.2v44h-9.2Z" fill="#443c84"/>
    </g>
    <g id="Group_120" data-name="Group 120">
      <path id="Path_318" data-name="Path 318" d="M1844.7,956.6a12.417,12.417,0,0,1,3.7,9.4,19.919,19.919,0,0,1-2.3,9.5,16.674,16.674,0,0,1-6.3,6.6,17.322,17.322,0,0,1-9,2.4,14.688,14.688,0,0,1-7.9-2,10.436,10.436,0,0,1-4.3-5.9l-3.9,19.2h-3l8.5-42.4h2.9l-1.2,6a15.573,15.573,0,0,1,5.6-4.6,16.392,16.392,0,0,1,7.4-1.6C1839,953.2,1842.3,954.3,1844.7,956.6Zm-6.3,23.3a14.777,14.777,0,0,0,5.2-5.6,16.7,16.7,0,0,0,1.9-8.1,9.943,9.943,0,0,0-2.9-7.6q-2.85-2.7-8.1-2.7a13.885,13.885,0,0,0-12.6,7.6,16.7,16.7,0,0,0-1.9,8.1,9.943,9.943,0,0,0,2.9,7.6q2.85,2.7,8.1,2.7A14.4,14.4,0,0,0,1838.4,979.9Z" fill="#443c84"/>
      <path id="Path_319" data-name="Path 319" d="M1887.5,953.4l-6.2,30.9h-2.9l1.2-5.9c-2.9,4.1-7.1,6.1-12.7,6.1-3.5,0-6.2-.9-8-2.6a9.5,9.5,0,0,1-2.8-7.3,13.687,13.687,0,0,1,.4-3.4l3.6-17.9h3l-3.6,17.9a13.858,13.858,0,0,0-.3,3,7.387,7.387,0,0,0,2.2,5.7c1.4,1.3,3.6,2,6.4,2a12.868,12.868,0,0,0,8.8-3,14.678,14.678,0,0,0,4.6-8.7l3.4-16.8Z" fill="#443c84"/>
      <path id="Path_320" data-name="Path 320" d="M1896.3,969.5a16.365,16.365,0,0,0-.1,2c0,3.4,1,5.9,2.9,7.7s4.8,2.7,8.5,2.7a16.433,16.433,0,0,0,6-1.1,11.369,11.369,0,0,0,4.6-3.1l1.4,2.1a14.038,14.038,0,0,1-5.3,3.5,20.033,20.033,0,0,1-6.9,1.2c-4.4,0-7.8-1.1-10.3-3.4a12.348,12.348,0,0,1-3.8-9.5,19.467,19.467,0,0,1,2.2-9.4,17.426,17.426,0,0,1,6-6.6,16.269,16.269,0,0,1,8.7-2.4c4,0,7.2,1.1,9.6,3.4s3.6,5.5,3.6,9.5a15.458,15.458,0,0,1-.4,3.4Zm5.2-10.6a15.348,15.348,0,0,0-4.8,8.4h23.8c0-.4.1-.9.1-1.5,0-3.1-.9-5.6-2.8-7.3-1.9-1.8-4.4-2.6-7.6-2.6A11.756,11.756,0,0,0,1901.5,958.9Z" fill="#443c84"/>
      <path id="Path_321" data-name="Path 321" d="M1965.5,940.4l-8.8,44h-2.8l1.2-6a15.573,15.573,0,0,1-5.6,4.6,16.443,16.443,0,0,1-7.4,1.7,13.57,13.57,0,0,1-9.7-3.5c-2.4-2.3-3.6-5.4-3.6-9.4a19.919,19.919,0,0,1,2.3-9.5,16.674,16.674,0,0,1,6.3-6.6,17.322,17.322,0,0,1,9-2.4,13.871,13.871,0,0,1,7.9,2.1,10.778,10.778,0,0,1,4.3,5.9l4.1-20.8,2.8-.1Zm-15.4,39.5a14.085,14.085,0,0,0,5.2-5.6,16.7,16.7,0,0,0,1.9-8.1,9.943,9.943,0,0,0-2.9-7.6q-2.85-2.7-8.1-2.7a14.134,14.134,0,0,0-7.4,2,14.777,14.777,0,0,0-5.2,5.6,16.58,16.58,0,0,0-1.9,8,9.943,9.943,0,0,0,2.9,7.6q2.85,2.7,8.1,2.7A13.419,13.419,0,0,0,1950.1,979.9Z" fill="#443c84"/>
      <path id="Path_322" data-name="Path 322" d="M1971.8,969.5a16.365,16.365,0,0,0-.1,2c0,3.4,1,5.9,2.9,7.7s4.8,2.7,8.5,2.7a16.433,16.433,0,0,0,6-1.1,11.369,11.369,0,0,0,4.6-3.1l1.4,2.1a14.038,14.038,0,0,1-5.3,3.5,20.033,20.033,0,0,1-6.9,1.2c-4.4,0-7.8-1.1-10.3-3.4a12.348,12.348,0,0,1-3.8-9.5,19.467,19.467,0,0,1,2.2-9.4,17.426,17.426,0,0,1,6-6.6,16.269,16.269,0,0,1,8.7-2.4c4,0,7.2,1.1,9.6,3.4s3.6,5.5,3.6,9.5a15.458,15.458,0,0,1-.4,3.4Zm5.1-10.6a15.348,15.348,0,0,0-4.8,8.4h23.8c0-.4.1-.9.1-1.5,0-3.1-.9-5.6-2.8-7.3-1.9-1.8-4.4-2.6-7.6-2.6A11.756,11.756,0,0,0,1976.9,958.9Z" fill="#443c84"/>
      <path id="Path_323" data-name="Path 323" d="M2053.6,953.4l-6.2,30.9h-2.8l1.2-6a15.573,15.573,0,0,1-5.6,4.6,16.443,16.443,0,0,1-7.4,1.7,13.57,13.57,0,0,1-9.7-3.5c-2.4-2.3-3.6-5.4-3.6-9.4a19.919,19.919,0,0,1,2.3-9.5,17.14,17.14,0,0,1,6.2-6.6,17.322,17.322,0,0,1,9-2.4,13.871,13.871,0,0,1,7.9,2.1,10.436,10.436,0,0,1,4.3,5.9l1.5-7.7,2.9-.1Zm-12.9,26.5a14.085,14.085,0,0,0,5.2-5.6,16.7,16.7,0,0,0,1.9-8.1,9.943,9.943,0,0,0-2.9-7.6q-2.85-2.7-8.1-2.7a14.134,14.134,0,0,0-7.4,2,14.777,14.777,0,0,0-5.2,5.6,16.58,16.58,0,0,0-1.9,8,9.943,9.943,0,0,0,2.9,7.6q2.85,2.7,8.1,2.7A12.99,12.99,0,0,0,2040.7,979.9Z" fill="#443c84"/>
      <path id="Path_324" data-name="Path 324" d="M2090.9,953.4l-23.1,35.5a18.851,18.851,0,0,1-4.9,5.6,10.143,10.143,0,0,1-5.5,1.6,10.525,10.525,0,0,1-4-.7,6.613,6.613,0,0,1-3-2l1.7-2.2a7.231,7.231,0,0,0,5.6,2.3,6.894,6.894,0,0,0,3.9-1.2,15.25,15.25,0,0,0,3.7-4.1l2.6-3.9-7.8-30.8h3l6.9,27.7,17.9-27.7,3-.1Z" fill="#443c84"/>
      <path id="Path_325" data-name="Path 325" d="M2124.5,953.4l-6.2,30.9h-2.9l1.2-5.9c-2.9,4.1-7.1,6.1-12.7,6.1-3.5,0-6.2-.9-8-2.6a9.5,9.5,0,0,1-2.8-7.3,13.7,13.7,0,0,1,.4-3.4l3.6-17.9h3l-3.6,17.9a13.858,13.858,0,0,0-.3,3,7.387,7.387,0,0,0,2.2,5.7c1.4,1.3,3.6,2,6.4,2a12.868,12.868,0,0,0,8.8-3,14.679,14.679,0,0,0,4.6-8.7l3.4-16.8Z" fill="#443c84"/>
      <path id="Path_326" data-name="Path 326" d="M2167.1,940.4l-8.8,44h-2.8l1.2-6a15.572,15.572,0,0,1-5.6,4.6,16.443,16.443,0,0,1-7.4,1.7,13.57,13.57,0,0,1-9.7-3.5c-2.4-2.3-3.6-5.4-3.6-9.4a19.919,19.919,0,0,1,2.3-9.5,16.675,16.675,0,0,1,6.3-6.6,17.322,17.322,0,0,1,9-2.4,13.87,13.87,0,0,1,7.9,2.1,10.777,10.777,0,0,1,4.3,5.9l4.1-20.8,2.8-.1Zm-15.4,39.5a14.086,14.086,0,0,0,5.2-5.6,16.7,16.7,0,0,0,1.9-8.1,9.943,9.943,0,0,0-2.9-7.6q-2.85-2.7-8.1-2.7a14.133,14.133,0,0,0-7.4,2,14.778,14.778,0,0,0-5.2,5.6,16.58,16.58,0,0,0-1.9,8,9.943,9.943,0,0,0,2.9,7.6q2.85,2.7,8.1,2.7A13.419,13.419,0,0,0,2151.7,979.9Z" fill="#443c84"/>
      <path id="Path_327" data-name="Path 327" d="M2204.5,953.4l-6.2,30.9h-2.8l1.2-6a15.572,15.572,0,0,1-5.6,4.6,16.443,16.443,0,0,1-7.4,1.7,13.57,13.57,0,0,1-9.7-3.5c-2.4-2.3-3.6-5.4-3.6-9.4a19.919,19.919,0,0,1,2.3-9.5,16.675,16.675,0,0,1,6.3-6.6,17.322,17.322,0,0,1,9-2.4,13.87,13.87,0,0,1,7.9,2.1,10.435,10.435,0,0,1,4.3,5.9l1.5-7.7,2.8-.1Zm-12.8,26.5a14.086,14.086,0,0,0,5.2-5.6,16.7,16.7,0,0,0,1.9-8.1,9.943,9.943,0,0,0-2.9-7.6q-2.85-2.7-8.1-2.7a14.133,14.133,0,0,0-7.4,2,14.778,14.778,0,0,0-5.2,5.6,16.58,16.58,0,0,0-1.9,8,9.943,9.943,0,0,0,2.9,7.6q2.85,2.7,8.1,2.7A13.419,13.419,0,0,0,2191.7,979.9Z" fill="#443c84"/>
      <path id="Path_328" data-name="Path 328" d="M2223.8,954.9a17.387,17.387,0,0,1,7.9-1.7l-.5,2.9-.9-.1a12.375,12.375,0,0,0-8.7,3.1c-2.3,2.1-3.8,5.2-4.6,9.3l-3.2,15.9h-3l6.2-30.9h2.9l-1.3,6.5A13.122,13.122,0,0,1,2223.8,954.9Z" fill="#443c84"/>
      <path id="Path_329" data-name="Path 329" d="M2283,953.4l-6.2,30.9H2274l1.2-6a15.572,15.572,0,0,1-5.6,4.6,16.443,16.443,0,0,1-7.4,1.7,13.57,13.57,0,0,1-9.7-3.5c-2.4-2.3-3.6-5.4-3.6-9.4a19.919,19.919,0,0,1,2.3-9.5,16.675,16.675,0,0,1,6.3-6.6,17.322,17.322,0,0,1,9-2.4,13.87,13.87,0,0,1,7.9,2.1,10.435,10.435,0,0,1,4.3,5.9l1.5-7.7,2.8-.1Zm-12.8,26.5a14.086,14.086,0,0,0,5.2-5.6,16.7,16.7,0,0,0,1.9-8.1,9.943,9.943,0,0,0-2.9-7.6q-2.85-2.7-8.1-2.7a14.133,14.133,0,0,0-7.4,2,14.778,14.778,0,0,0-5.2,5.6,16.58,16.58,0,0,0-1.9,8,9.943,9.943,0,0,0,2.9,7.6q2.85,2.7,8.1,2.7A13.419,13.419,0,0,0,2270.2,979.9Z" fill="#443c84"/>
    </g>
    <g id="Group_121" data-name="Group 121">
      <path id="Path_330" data-name="Path 330" d="M1866.2,1014.5c1.9,1.7,2.8,4.1,2.8,7.2a15.035,15.035,0,0,1-.4,3.5l-3.6,17.9h-3l3.6-17.9a13.858,13.858,0,0,0,.3-3,7.314,7.314,0,0,0-2.1-5.6,8.877,8.877,0,0,0-6.2-2,12.811,12.811,0,0,0-8.5,2.8,13.531,13.531,0,0,0-4.5,8.1L1841,1043h-3l3.6-17.9a13.858,13.858,0,0,0,.3-3,7.314,7.314,0,0,0-2.1-5.6,8.877,8.877,0,0,0-6.2-2,12.7,12.7,0,0,0-8.6,3c-2.3,2-3.8,4.9-4.6,8.7L1817,1043h-3l6.2-30.9h2.9l-1.2,5.8a13.631,13.631,0,0,1,5.3-4.6,16.105,16.105,0,0,1,7.1-1.5,12.2,12.2,0,0,1,6.9,1.8,8.352,8.352,0,0,1,3.4,5.1,15.684,15.684,0,0,1,5.7-5.2,16.431,16.431,0,0,1,7.7-1.7C1861.6,1012,1864.3,1012.8,1866.2,1014.5Z" fill="#443c84"/>
    </g>
    <g id="Group_122" data-name="Group 122">
      <path id="Path_331" data-name="Path 331" d="M1879.5,1028.3a16.365,16.365,0,0,0-.1,2c0,3.4,1,5.9,2.9,7.7s4.8,2.7,8.5,2.7a16.433,16.433,0,0,0,6-1.1,11.368,11.368,0,0,0,4.6-3.1l1.4,2.1a14.039,14.039,0,0,1-5.3,3.5,20.032,20.032,0,0,1-6.9,1.2c-4.4,0-7.8-1.1-10.3-3.4a12.348,12.348,0,0,1-3.8-9.5,19.467,19.467,0,0,1,2.2-9.4,17.426,17.426,0,0,1,6-6.6,16.025,16.025,0,0,1,8.7-2.4c4,0,7.2,1.1,9.6,3.4s3.6,5.5,3.6,9.5a15.458,15.458,0,0,1-.4,3.4Zm5.1-10.6a15.349,15.349,0,0,0-4.8,8.4h23.8c0-.4.1-.9.1-1.5,0-3.1-.9-5.6-2.8-7.3-1.9-1.8-4.4-2.6-7.6-2.6A12.049,12.049,0,0,0,1884.6,1017.7Z" fill="#443c84"/>
      <path id="Path_332" data-name="Path 332" d="M1901.2,1054.3a8.353,8.353,0,0,1-2.8-1.5l1.5-2.3a7.293,7.293,0,0,0,4.9,1.7,6.347,6.347,0,0,0,4.4-1.5,9,9,0,0,0,2.3-4.8l6.8-33.8h3l-6.8,34c-.6,2.9-1.6,5.1-3.2,6.5a9.314,9.314,0,0,1-6.4,2.1A7.444,7.444,0,0,1,1901.2,1054.3Zm18.7-50.3a2.127,2.127,0,0,1-.7-1.5,2.41,2.41,0,0,1,.7-1.8,2.56,2.56,0,0,1,1.9-.8,1.99,1.99,0,0,1,1.6.7,1.8,1.8,0,0,1,.7,1.5,2.561,2.561,0,0,1-.8,1.9,2.489,2.489,0,0,1-1.9.7A2.084,2.084,0,0,1,1919.9,1004Z" fill="#443c84"/>
      <path id="Path_333" data-name="Path 333" d="M1930.2,1039.9c-2.5-2.3-3.7-5.5-3.7-9.4a19.919,19.919,0,0,1,2.3-9.5,16.674,16.674,0,0,1,6.3-6.6,17.425,17.425,0,0,1,9.1-2.4,14.16,14.16,0,0,1,10,3.5c2.5,2.3,3.7,5.4,3.7,9.4a19.919,19.919,0,0,1-2.3,9.5,16.673,16.673,0,0,1-6.3,6.6,17.425,17.425,0,0,1-9.1,2.4A14.161,14.161,0,0,1,1930.2,1039.9Zm17.7-1.2a14.085,14.085,0,0,0,5.2-5.6,16.7,16.7,0,0,0,1.9-8.1,9.943,9.943,0,0,0-2.9-7.6q-2.85-2.7-8.1-2.7a14.134,14.134,0,0,0-7.4,2,14.777,14.777,0,0,0-5.2,5.6,16.581,16.581,0,0,0-1.9,8,9.943,9.943,0,0,0,2.9,7.6q2.85,2.7,8.1,2.7A13.419,13.419,0,0,0,1947.9,1038.7Z" fill="#443c84"/>
    </g>
    <g id="Group_123" data-name="Group 123">
      <path id="Path_334" data-name="Path 334" d="M1977.1,1013.7a17.388,17.388,0,0,1,7.9-1.7l-.5,2.9-.9-.1a12.375,12.375,0,0,0-8.7,3.1c-2.3,2.1-3.8,5.2-4.6,9.3l-3.2,15.9h-3l6.2-30.9h2.9l-1.3,6.5A11.951,11.951,0,0,1,1977.1,1013.7Z" fill="#443c84"/>
    </g>
    <g id="Group_124" data-name="Group 124">
      <path id="Path_335" data-name="Path 335" d="M2019.9,1012.2l-6.2,30.9h-2.8l1.2-6a15.573,15.573,0,0,1-5.6,4.6,16.443,16.443,0,0,1-7.4,1.7,13.57,13.57,0,0,1-9.7-3.5c-2.4-2.3-3.6-5.4-3.6-9.4a19.919,19.919,0,0,1,2.3-9.5,17.14,17.14,0,0,1,6.2-6.6,17.322,17.322,0,0,1,9-2.4,13.871,13.871,0,0,1,7.9,2.1,10.436,10.436,0,0,1,4.3,5.9l1.5-7.7,2.9-.1Zm-12.8,26.5a14.085,14.085,0,0,0,5.2-5.6,16.7,16.7,0,0,0,1.9-8.1,9.943,9.943,0,0,0-2.9-7.6q-2.85-2.7-8.1-2.7a14.134,14.134,0,0,0-7.4,2,14.777,14.777,0,0,0-5.2,5.6,16.581,16.581,0,0,0-1.9,8,9.943,9.943,0,0,0,2.9,7.6q2.85,2.7,8.1,2.7A13.418,13.418,0,0,0,2007.1,1038.7Z" fill="#443c84"/>
      <path id="Path_336" data-name="Path 336" d="M2039.3,1013.7a17.388,17.388,0,0,1,7.9-1.7l-.5,2.9-.9-.1a12.375,12.375,0,0,0-8.7,3.1c-2.3,2.1-3.8,5.2-4.6,9.3l-3.2,15.9h-3l6.2-30.9h2.9l-1.3,6.5A12.507,12.507,0,0,1,2039.3,1013.7Z" fill="#443c84"/>
      <path id="Path_337" data-name="Path 337" d="M2067.3,1028.3a16.345,16.345,0,0,0-.1,2c0,3.4,1,5.9,2.9,7.7s4.8,2.7,8.5,2.7a16.433,16.433,0,0,0,6-1.1,11.37,11.37,0,0,0,4.6-3.1l1.4,2.1a14.038,14.038,0,0,1-5.3,3.5,20.032,20.032,0,0,1-6.9,1.2c-4.4,0-7.8-1.1-10.3-3.4a12.348,12.348,0,0,1-3.8-9.5,19.467,19.467,0,0,1,2.2-9.4,17.425,17.425,0,0,1,6-6.6,16.025,16.025,0,0,1,8.7-2.4c4,0,7.2,1.1,9.6,3.4s3.6,5.5,3.6,9.5a15.471,15.471,0,0,1-.4,3.4Zm5.2-10.6a15.349,15.349,0,0,0-4.8,8.4h23.8c0-.4.1-.9.1-1.5,0-3.1-.9-5.6-2.8-7.3-1.9-1.8-4.4-2.6-7.6-2.6A11.756,11.756,0,0,0,2072.5,1017.7Z" fill="#443c84"/>
      <path id="Path_338" data-name="Path 338" d="M2109,999.2h3l-8.8,44h-3Z" fill="#443c84"/>
      <path id="Path_339" data-name="Path 339" d="M2133.5,1028.3a16.345,16.345,0,0,0-.1,2c0,3.4,1,5.9,2.9,7.7s4.8,2.7,8.5,2.7a16.433,16.433,0,0,0,6-1.1,11.37,11.37,0,0,0,4.6-3.1l1.4,2.1a14.038,14.038,0,0,1-5.3,3.5,20.032,20.032,0,0,1-6.9,1.2c-4.4,0-7.8-1.1-10.3-3.4a12.348,12.348,0,0,1-3.8-9.5,19.467,19.467,0,0,1,2.2-9.4,17.425,17.425,0,0,1,6-6.6,16.025,16.025,0,0,1,8.7-2.4c4,0,7.2,1.1,9.6,3.4s3.6,5.5,3.6,9.5a15.471,15.471,0,0,1-.4,3.4Zm5.1-10.6a15.349,15.349,0,0,0-4.8,8.4h23.8c0-.4.1-.9.1-1.5,0-3.1-.9-5.6-2.8-7.3-1.9-1.8-4.4-2.6-7.6-2.6A11.756,11.756,0,0,0,2138.6,1017.7Z" fill="#443c84"/>
      <path id="Path_340" data-name="Path 340" d="M2167.9,1042.3a13.617,13.617,0,0,1-5.1-2.8l1.6-2.3a11.338,11.338,0,0,0,4.6,2.6,19.991,19.991,0,0,0,6.1,1,13.724,13.724,0,0,0,7.4-1.7,5.159,5.159,0,0,0,2.6-4.7,3.534,3.534,0,0,0-1.1-2.7,7.4,7.4,0,0,0-2.6-1.5c-1-.3-2.5-.7-4.3-1.1a31.457,31.457,0,0,1-5.2-1.4,8.339,8.339,0,0,1-3.3-2.2,5.985,5.985,0,0,1-1.4-4.1,8.128,8.128,0,0,1,3.5-6.8c2.3-1.7,5.5-2.5,9.4-2.5a21.21,21.21,0,0,1,5.7.8,11.333,11.333,0,0,1,4.4,2.2l-1.4,2.3a10.486,10.486,0,0,0-4.1-2,16.136,16.136,0,0,0-4.9-.7,12.228,12.228,0,0,0-7.1,1.8,5.266,5.266,0,0,0-2.6,4.7,3.762,3.762,0,0,0,1.1,2.8,7.18,7.18,0,0,0,2.7,1.6,34.79,34.79,0,0,0,4.4,1.1,46.193,46.193,0,0,1,5.1,1.3,8.339,8.339,0,0,1,3.3,2.2,5.721,5.721,0,0,1,1.4,4,7.742,7.742,0,0,1-3.6,6.8c-2.4,1.7-5.6,2.5-9.7,2.5A26.265,26.265,0,0,1,2167.9,1042.3Z" fill="#443c84"/>
    </g>
    <g id="Group_125" data-name="Group 125">
      <path id="Path_341" data-name="Path 341" d="M2197.7,1034.2a8.58,8.58,0,0,0-.2,2.2c0,3,1.6,4.4,4.7,4.4a7.955,7.955,0,0,0,5-1.7l.9,2.2a10.043,10.043,0,0,1-6.6,2.1,7.742,7.742,0,0,1-5.2-1.7,6.043,6.043,0,0,1-1.9-4.8,19.448,19.448,0,0,1,.2-2.4l4-19.7h-5.7l.5-2.5h5.7l1.4-6.8h3l-1.4,6.8h9.8l-.5,2.5h-9.8Z" fill="#443c84"/>
    </g>
    <g id="Group_126" data-name="Group 126">
      <path id="Path_342" data-name="Path 342" d="M2248.2,1012.2l-6.2,30.9h-2.8l1.2-6a15.572,15.572,0,0,1-5.6,4.6,16.443,16.443,0,0,1-7.4,1.7,13.57,13.57,0,0,1-9.7-3.5c-2.4-2.3-3.6-5.4-3.6-9.4a19.919,19.919,0,0,1,2.3-9.5,17.141,17.141,0,0,1,6.2-6.6,17.322,17.322,0,0,1,9-2.4,13.87,13.87,0,0,1,7.9,2.1,10.435,10.435,0,0,1,4.3,5.9l1.5-7.7,2.9-.1Zm-12.8,26.5a14.086,14.086,0,0,0,5.2-5.6,16.7,16.7,0,0,0,1.9-8.1,9.943,9.943,0,0,0-2.9-7.6q-2.85-2.7-8.1-2.7a14.133,14.133,0,0,0-7.4,2,14.778,14.778,0,0,0-5.2,5.6,16.58,16.58,0,0,0-1.9,8,9.943,9.943,0,0,0,2.9,7.6q2.85,2.7,8.1,2.7A13.418,13.418,0,0,0,2235.4,1038.7Z" fill="#443c84"/>
      <path id="Path_343" data-name="Path 343" d="M2290.8,999.2l-8.8,44h-2.8l1.2-6a15.572,15.572,0,0,1-5.6,4.6,16.443,16.443,0,0,1-7.4,1.7,13.57,13.57,0,0,1-9.7-3.5c-2.4-2.3-3.6-5.4-3.6-9.4a19.919,19.919,0,0,1,2.3-9.5,16.675,16.675,0,0,1,6.3-6.6,17.322,17.322,0,0,1,9-2.4,13.87,13.87,0,0,1,7.9,2.1,10.777,10.777,0,0,1,4.3,5.9l4.1-20.8,2.8-.1Zm-15.5,39.5a14.086,14.086,0,0,0,5.2-5.6,16.7,16.7,0,0,0,1.9-8.1,9.943,9.943,0,0,0-2.9-7.6q-2.85-2.7-8.1-2.7a14.133,14.133,0,0,0-7.4,2,14.778,14.778,0,0,0-5.2,5.6,16.58,16.58,0,0,0-1.9,8,9.943,9.943,0,0,0,2.9,7.6q2.85,2.7,8.1,2.7A12.99,12.99,0,0,0,2275.3,1038.7Z" fill="#443c84"/>
      <path id="Path_344" data-name="Path 344" d="M2297.7,1039.9c-2.5-2.3-3.7-5.5-3.7-9.4a19.919,19.919,0,0,1,2.3-9.5,16.675,16.675,0,0,1,6.3-6.6,17.425,17.425,0,0,1,9.1-2.4,14.16,14.16,0,0,1,10,3.5c2.5,2.3,3.7,5.4,3.7,9.4a19.919,19.919,0,0,1-2.3,9.5,16.674,16.674,0,0,1-6.3,6.6,17.425,17.425,0,0,1-9.1,2.4A14.161,14.161,0,0,1,2297.7,1039.9Zm17.6-1.2a14.086,14.086,0,0,0,5.2-5.6,16.7,16.7,0,0,0,1.9-8.1,9.943,9.943,0,0,0-2.9-7.6q-2.85-2.7-8.1-2.7a14.133,14.133,0,0,0-7.4,2,14.778,14.778,0,0,0-5.2,5.6,16.58,16.58,0,0,0-1.9,8,9.943,9.943,0,0,0,2.9,7.6q2.85,2.7,8.1,2.7A13.2,13.2,0,0,0,2315.3,1038.7Z" fill="#443c84"/>
    </g>
    <g id="Group_127" data-name="Group 127">
      <path id="Path_345" data-name="Path 345" d="M1850.5,1058l-8.8,44h-2.8l1.2-6a15.573,15.573,0,0,1-5.6,4.6,16.443,16.443,0,0,1-7.4,1.7,13.57,13.57,0,0,1-9.7-3.5c-2.4-2.3-3.6-5.4-3.6-9.4a19.919,19.919,0,0,1,2.3-9.5,16.673,16.673,0,0,1,6.3-6.6,17.322,17.322,0,0,1,9-2.4,13.87,13.87,0,0,1,7.9,2.1,10.778,10.778,0,0,1,4.3,5.9l4.1-20.8,2.8-.1Zm-15.5,39.5a14.085,14.085,0,0,0,5.2-5.6,16.7,16.7,0,0,0,1.9-8.1,9.943,9.943,0,0,0-2.9-7.6q-2.85-2.7-8.1-2.7a14.133,14.133,0,0,0-7.4,2,14.777,14.777,0,0,0-5.2,5.6,16.58,16.58,0,0,0-1.9,8,9.943,9.943,0,0,0,2.9,7.6q2.85,2.7,8.1,2.7A13.2,13.2,0,0,0,1835,1097.5Z" fill="#443c84"/>
      <path id="Path_346" data-name="Path 346" d="M1856.7,1087.1a16.365,16.365,0,0,0-.1,2c0,3.4,1,5.9,2.9,7.7s4.8,2.7,8.5,2.7a16.433,16.433,0,0,0,6-1.1,11.368,11.368,0,0,0,4.6-3.1l1.4,2.1a14.039,14.039,0,0,1-5.3,3.5,20.032,20.032,0,0,1-6.9,1.2c-4.4,0-7.8-1.1-10.3-3.4a12.348,12.348,0,0,1-3.8-9.5,19.467,19.467,0,0,1,2.2-9.4,17.425,17.425,0,0,1,6-6.6,16.269,16.269,0,0,1,8.7-2.4c4,0,7.2,1.1,9.6,3.4s3.6,5.5,3.6,9.5a15.458,15.458,0,0,1-.4,3.4Zm5.1-10.7a15.348,15.348,0,0,0-4.8,8.4h23.8c0-.4.1-.9.1-1.5,0-3.1-.9-5.6-2.8-7.3-1.9-1.8-4.4-2.6-7.6-2.6A12.181,12.181,0,0,0,1861.8,1076.4Z" fill="#443c84"/>
      <path id="Path_347" data-name="Path 347" d="M1898.3,1058h3l-8.8,44h-3Z" fill="#443c84"/>
      <path id="Path_348" data-name="Path 348" d="M1950.8,1074.2a12.417,12.417,0,0,1,3.7,9.4,19.919,19.919,0,0,1-2.3,9.5,16.673,16.673,0,0,1-6.3,6.6,17.322,17.322,0,0,1-9,2.4,14.687,14.687,0,0,1-7.9-2,10.436,10.436,0,0,1-4.3-5.9l-3.9,19.2h-3l8.5-42.4h2.9l-1.2,6a15.573,15.573,0,0,1,5.6-4.6,16.392,16.392,0,0,1,7.4-1.6C1945.1,1070.8,1948.4,1071.9,1950.8,1074.2Zm-6.3,23.2a14.777,14.777,0,0,0,5.2-5.6,16.7,16.7,0,0,0,1.9-8.1,9.943,9.943,0,0,0-2.9-7.6q-2.85-2.7-8.1-2.7a13.885,13.885,0,0,0-12.6,7.6,16.7,16.7,0,0,0-1.9,8.1,9.943,9.943,0,0,0,2.9,7.6q2.85,2.7,8.1,2.7A12.7,12.7,0,0,0,1944.5,1097.4Z" fill="#443c84"/>
      <path id="Path_349" data-name="Path 349" d="M1994,1071l-6.2,30.9H1985l1.2-6a15.573,15.573,0,0,1-5.6,4.6,16.443,16.443,0,0,1-7.4,1.7,13.57,13.57,0,0,1-9.7-3.5c-2.4-2.3-3.6-5.4-3.6-9.4a19.919,19.919,0,0,1,2.3-9.5,17.14,17.14,0,0,1,6.2-6.6,17.322,17.322,0,0,1,9-2.4,13.87,13.87,0,0,1,7.9,2.1,10.436,10.436,0,0,1,4.3,5.9l1.5-7.7,2.9-.1Zm-12.9,26.5a14.085,14.085,0,0,0,5.2-5.6,16.7,16.7,0,0,0,1.9-8.1,9.943,9.943,0,0,0-2.9-7.6q-2.85-2.7-8.1-2.7a14.133,14.133,0,0,0-7.4,2,14.777,14.777,0,0,0-5.2,5.6,16.58,16.58,0,0,0-1.9,8,9.943,9.943,0,0,0,2.9,7.6q2.85,2.7,8.1,2.7A12.99,12.99,0,0,0,1981.1,1097.5Z" fill="#443c84"/>
      <path id="Path_350" data-name="Path 350" d="M2003.5,1098.7a12.275,12.275,0,0,1-3.8-9.4,19.919,19.919,0,0,1,2.3-9.5,16.673,16.673,0,0,1,6.3-6.6,17.786,17.786,0,0,1,9.2-2.4,15.508,15.508,0,0,1,7.1,1.5,10.3,10.3,0,0,1,4.6,4.4l-2.4,1.5c-1.9-3.1-5-4.6-9.5-4.6a14.493,14.493,0,0,0-7.5,2,14.039,14.039,0,0,0-5.2,5.6,16.7,16.7,0,0,0-1.9,8.1,9.943,9.943,0,0,0,2.9,7.6c1.9,1.8,4.7,2.7,8.3,2.7a14.008,14.008,0,0,0,5.8-1.2,12.53,12.53,0,0,0,4.5-3.3l2.1,1.7a13.381,13.381,0,0,1-5.4,4.1,17.193,17.193,0,0,1-7.2,1.5C2009.4,1102.2,2006,1101,2003.5,1098.7Z" fill="#443c84"/>
      <path id="Path_351" data-name="Path 351" d="M2039.3,1071h3l-6.2,30.9h-3Zm1.7-8.2a2.127,2.127,0,0,1-.7-1.5,2.41,2.41,0,0,1,.7-1.8,2.56,2.56,0,0,1,1.9-.8,1.99,1.99,0,0,1,1.6.7,1.8,1.8,0,0,1,.7,1.5,2.56,2.56,0,0,1-.8,1.9,2.489,2.489,0,0,1-1.9.7A1.931,1.931,0,0,1,2041,1062.8Z" fill="#443c84"/>
      <path id="Path_352" data-name="Path 352" d="M2051.1,1087.1a16.345,16.345,0,0,0-.1,2c0,3.4,1,5.9,2.9,7.7s4.8,2.7,8.5,2.7a16.433,16.433,0,0,0,6-1.1,11.37,11.37,0,0,0,4.6-3.1l1.4,2.1a14.038,14.038,0,0,1-5.3,3.5,20.032,20.032,0,0,1-6.9,1.2c-4.4,0-7.8-1.1-10.3-3.4a12.348,12.348,0,0,1-3.8-9.5,19.467,19.467,0,0,1,2.2-9.4,17.425,17.425,0,0,1,6-6.6,16.025,16.025,0,0,1,8.7-2.4c4,0,7.2,1.1,9.6,3.4s3.6,5.5,3.6,9.5a15.471,15.471,0,0,1-.4,3.4Zm5.2-10.7a15.349,15.349,0,0,0-4.8,8.4h23.8c0-.4.1-.9.1-1.5,0-3.1-.9-5.6-2.8-7.3-1.9-1.8-4.4-2.6-7.6-2.6A12.182,12.182,0,0,0,2056.3,1076.4Z" fill="#443c84"/>
      <path id="Path_353" data-name="Path 353" d="M2112.8,1073.4a9.5,9.5,0,0,1,2.8,7.3,13.7,13.7,0,0,1-.4,3.4l-3.6,17.9h-3l3.6-17.9a13.858,13.858,0,0,0,.3-3,7.387,7.387,0,0,0-2.2-5.7,9.533,9.533,0,0,0-6.5-2,13.312,13.312,0,0,0-8.9,3c-2.4,2-3.9,4.9-4.7,8.7l-3.4,16.8h-3l6.2-30.9h2.9l-1.2,5.9a13.494,13.494,0,0,1,5.5-4.6,17.328,17.328,0,0,1,7.3-1.5C2108.2,1070.8,2110.9,1071.6,2112.8,1073.4Z" fill="#443c84"/>
    </g>
    <g id="Group_128" data-name="Group 128">
      <path id="Path_354" data-name="Path 354" d="M2126.4,1093a8.58,8.58,0,0,0-.2,2.2c0,3,1.6,4.4,4.7,4.4a7.955,7.955,0,0,0,5-1.7l.9,2.2a10.043,10.043,0,0,1-6.6,2.1,7.742,7.742,0,0,1-5.2-1.7,6.043,6.043,0,0,1-1.9-4.8,19.448,19.448,0,0,1,.2-2.4l4-19.7h-5.7l.5-2.5h5.7l1.4-6.8h3l-1.4,6.8h9.8l-.5,2.5h-9.8Z" fill="#443c84"/>
    </g>
    <g id="Group_129" data-name="Group 129">
      <path id="Path_355" data-name="Path 355" d="M2145.7,1087.1a16.345,16.345,0,0,0-.1,2c0,3.4,1,5.9,2.9,7.7s4.8,2.7,8.5,2.7a16.433,16.433,0,0,0,6-1.1,11.37,11.37,0,0,0,4.6-3.1l1.4,2.1a14.038,14.038,0,0,1-5.3,3.5,20.032,20.032,0,0,1-6.9,1.2c-4.4,0-7.8-1.1-10.3-3.4a12.348,12.348,0,0,1-3.8-9.5,19.467,19.467,0,0,1,2.2-9.4,17.425,17.425,0,0,1,6-6.6,16.025,16.025,0,0,1,8.7-2.4c4,0,7.2,1.1,9.6,3.4s3.6,5.5,3.6,9.5a15.471,15.471,0,0,1-.4,3.4Zm5.1-10.7a15.349,15.349,0,0,0-4.8,8.4h23.8c0-.4.1-.9.1-1.5,0-3.1-.9-5.6-2.8-7.3-1.9-1.8-4.4-2.6-7.6-2.6A12.182,12.182,0,0,0,2150.8,1076.4Z" fill="#443c84"/>
      <path id="Path_356" data-name="Path 356" d="M2176.3,1101.4a2.193,2.193,0,0,1-.7-1.7,2.56,2.56,0,0,1,.8-1.9,2.41,2.41,0,0,1,1.8-.7,2.39,2.39,0,0,1,2.4,2.4,2.744,2.744,0,0,1-2.6,2.6A2.007,2.007,0,0,1,2176.3,1101.4Z" fill="#443c84"/>
    </g>
  </g>
</svg>
