<svg id="cocinero" xmlns="http://www.w3.org/2000/svg" width="155" height="154" viewBox="0 0 155 154">
  <path id="Shape" d="M106.751,90.052,77.537,69.429,48.323,90.037a10.172,10.172,0,0,1-14.269-2.569A10.035,10.035,0,0,1,37,73.321L61.189,57.894,35.774,39.946a23.477,23.477,0,0,1-24.793-1.524A24.547,24.547,0,0,1,.778,24.468a18.929,18.929,0,0,1,2.49-16A19.128,19.128,0,0,1,17.249.182,24.79,24.79,0,0,1,34.088,4.359a23.211,23.211,0,0,1,10.7,22.272L77.537,47.493l32.739-20.875A23.316,23.316,0,0,1,120.971,4.341c10.638-7.126,24.483-5.287,30.844,4.116S154.71,31.3,144.1,38.43A23.477,23.477,0,0,1,119.3,39.948L93.869,57.905l24.215,15.413a10.071,10.071,0,0,1-1,17.714,10.2,10.2,0,0,1-10.329-.98Z" transform="translate(0 62)" fill="#fff"/>
  <path id="Shape-2" data-name="Shape" d="M79.581,86.971l1.436-7.2H31.865L33.3,86.991,28.274,88l-7.3-36.636A23.161,23.161,0,0,1,23.091,5.146a22.757,22.757,0,0,1,14.284,4.979,23.014,23.014,0,0,1,38.132,0A22.755,22.755,0,0,1,89.791,5.146a23.161,23.161,0,0,1,2.121,46.229L84.609,88Z" transform="translate(21)" fill="#fff"/>
</svg>
