<svg xmlns="http://www.w3.org/2000/svg" width="52" height="46" viewBox="0 0 52 46">
  <g id="coffee-cup" transform="translate(-0.289 -0.294)">
    <path id="Shape" d="M0,10.875V0H41.333a10.788,10.788,0,0,1,0,21.574H36.751A19.856,19.856,0,0,1,19.9,31,20.037,20.037,0,0,1,0,10.875Z" transform="translate(0.289 15.294)" fill="#29388c"/>
    <path id="Path" d="M0,12H3a2.439,2.439,0,0,1,.342-1.33A5.355,5.355,0,0,0,4,8a5.358,5.358,0,0,0-.658-2.67A2.439,2.439,0,0,1,3,4a2.441,2.441,0,0,1,.342-1.33A5.355,5.355,0,0,0,4,0H1A2.438,2.438,0,0,1,.658,1.33,5.36,5.36,0,0,0,0,4,5.362,5.362,0,0,0,.658,6.67,2.436,2.436,0,0,1,1,8,2.436,2.436,0,0,1,.658,9.33,5.364,5.364,0,0,0,0,12Z" transform="translate(9.289 0.294)" fill="#29388c"/>
    <path id="Path-2" data-name="Path" d="M0,12H3a2.436,2.436,0,0,1,.342-1.33A5.359,5.359,0,0,0,4,8a5.363,5.363,0,0,0-.658-2.67A2.436,2.436,0,0,1,3,4a2.437,2.437,0,0,1,.342-1.33A5.36,5.36,0,0,0,4,0H1A2.442,2.442,0,0,1,.658,1.33,5.36,5.36,0,0,0,0,4,5.367,5.367,0,0,0,.658,6.67,2.436,2.436,0,0,1,1,8,2.439,2.439,0,0,1,.658,9.33,5.36,5.36,0,0,0,0,12Z" transform="translate(17.289 0.294)" fill="#29388c"/>
    <path id="Path-3" data-name="Path" d="M0,12H3a2.436,2.436,0,0,1,.342-1.33A5.359,5.359,0,0,0,4,8a5.363,5.363,0,0,0-.658-2.67A2.436,2.436,0,0,1,3,4a2.437,2.437,0,0,1,.342-1.33A5.36,5.36,0,0,0,4,0H1A2.442,2.442,0,0,1,.658,1.33,5.36,5.36,0,0,0,0,4,5.367,5.367,0,0,0,.658,6.67,2.436,2.436,0,0,1,1,8,2.439,2.439,0,0,1,.658,9.33,5.36,5.36,0,0,0,0,12Z" transform="translate(26.289 0.294)" fill="#29388c"/>
  </g>
</svg>
