<?xml version="1.0" encoding="UTF-8"?>
<svg width="80px" height="66px" viewBox="0 0 80 66" version="1.1" xmlns="http://www.w3.org/2000/svg" xmlns:xlink="http://www.w3.org/1999/xlink">
    <title>Group 3</title>
    <defs>
        <polygon id="path-1" points="0 0 80 0 80 65.7627119 0 65.7627119"></polygon>
    </defs>
    <g id="Page-1" stroke="none" stroke-width="1" fill="none" fill-rule="evenodd">
        <g id="Web" transform="translate(-860.000000, -2233.000000)">
            <g id="Group-19" transform="translate(167.000000, 2063.000000)">
                <g id="Group-15">
                    <g id="Group-3" transform="translate(693.000000, 170.000000)">
                        <mask id="mask-2" fill="white">
                            <use xlink:href="#path-1"></use>
                        </mask>
                        <g id="Clip-2"></g>
                        <path d="M28.1630476,32.3024454 L28.0088779,37.057709 L37.5345474,37.2059968 L37.5345474,46.5255092 L42.3138102,46.6788237 L42.4654526,37.2059968 L51.8369524,37.2059968 L51.9911221,37.057709 L51.9911221,32.4532465 L42.4654526,32.3024454 L42.4654526,22.982933 L37.6861898,22.8296185 L37.5345474,32.3024454 L28.1630476,32.3024454 Z M42.3138102,48.8930875 L37.6861898,48.8930875 C36.3744832,48.8930875 35.3079317,47.8324526 35.3079317,46.5255092 L35.3079317,39.4202606 L28.1630476,39.4202606 C26.8488136,39.4202606 25.7847895,38.3596257 25.7847895,37.057709 L25.7847895,32.4532465 C25.7847895,31.1488164 26.8488136,30.0881815 28.1630476,30.0881815 L35.3079317,30.0881815 L35.3079317,22.982933 C35.3079317,21.6759895 36.3744832,20.617868 37.6861898,20.617868 L42.3138102,20.617868 C43.6255168,20.617868 44.6920683,21.6759895 44.6920683,22.982933 L44.6920683,30.0881815 L51.8369524,30.0881815 C53.1511864,30.0881815 54.2177379,31.1488164 54.2177379,32.4532465 L54.2177379,37.057709 C54.2177379,38.3596257 53.1511864,39.4202606 51.8369524,39.4202606 L44.6920683,39.4202606 L44.6920683,46.5255092 C44.6920683,47.8324526 43.6255168,48.8930875 42.3138102,48.8930875 L42.3138102,48.8930875 Z M19.6230536,2.53178087 C15.121802,2.53178087 10.6306598,4.25342758 7.23387021,7.68164086 C3.97103142,10.9791598 2.19176069,15.339827 2.22662617,19.9643962 C2.26252714,24.5889655 4.1049822,28.9219858 7.41584108,32.1667243 L38.8411994,62.95027 C39.6676504,63.7595696 40.9995761,63.7520296 41.8108629,62.9301632 L72.7661298,31.6791339 C76.0289686,28.3841283 77.8107667,24.0234611 77.7734488,19.3988918 C77.7374729,14.7743226 75.8950178,10.4413023 72.5816315,7.19405041 C65.7425597,0.498478418 54.7029936,0.581419062 47.9599619,7.37752517 C41.2927514,13.7061476 40.4106981,13.6508539 39.9406067,13.6583939 C39.5311723,13.6408005 38.7729603,13.6106402 31.8985052,7.5358664 C28.4865514,4.19562046 24.0484841,2.53178087 19.6230536,2.53178087 L19.6230536,2.53178087 Z M40.3171853,65.7627119 C39.217778,65.7627119 38.1183707,65.350522 37.2767554,64.5261423 L5.85645182,33.7425966 C2.11846687,30.0831548 0.0409661019,25.1971969 -1.51212593e-14,19.9819897 C-0.0373824671,14.7642692 1.96682448,9.84312431 5.64920722,6.13090215 C9.32906259,2.41113994 14.2448035,0.345163894 19.4891028,0.307463602 L19.6407452,0.307463602 C24.8294424,0.307463602 29.7148548,2.29803906 33.4149291,5.92229387 C35.9069191,8.11896426 38.9524038,10.6574506 40.0088458,11.3385693 C41.0627604,10.667504 43.9995681,8.07623726 46.4005726,5.80165293 C50.0551543,2.10702424 54.9708951,0.0410481995 60.2177219,0.000834553904 C65.4190559,-0.0469191502 70.4080906,1.95622307 74.1410208,5.61817817 C77.8815331,9.27761992 79.9590339,14.1660912 80,19.3812984 C80.0373825,24.5990189 78.0331755,29.5176504 74.3507928,33.2323859 L43.3955259,64.4834153 C42.5513832,65.3379552 41.4342843,65.7627119 40.3171853,65.7627119 L40.3171853,65.7627119 Z" id="Fill-1" fill="#FFFFFF" mask="url(#mask-2)"></path>
                    </g>
                </g>
            </g>
        </g>
    </g>
</svg>