<svg id="Group_3" data-name="Group 3" xmlns="http://www.w3.org/2000/svg" width="265" height="180" viewBox="0 0 265 180">
  <g id="standing-up-man-" transform="translate(229 93)">
    <ellipse id="Oval" cx="7.091" cy="7.158" rx="7.091" ry="7.158" transform="translate(10.909 0)" fill="#fff"/>
    <path id="Path" d="M20.36.265a12.743,12.743,0,0,0-5.484.068C2.954,1.765-.916,15.909.177,26.693c.474,4.662,7.645,4.711,7.166,0-.4-3.93-.228-9.861,1.811-14.077v15.37c0,.181.018.351.025.525,0,.083-.024.153-.024.238,0,12.2-.021,24.388-.512,36.575-.218,5.417,7.977,5.4,8.194,0,.385-9.551.482-19.108.5-28.666a9.25,9.25,0,0,0,1.165,0c.024,9.558.118,19.114.5,28.662.218,5.4,8.413,5.417,8.194,0-.492-12.187-.509-24.378-.509-36.575a4.712,4.712,0,0,0-.124-1.053c-.011-5.3-.208-10.6-.148-15.887,2.441,4.235,2.663,10.695,2.24,14.881-.48,4.708,6.692,4.661,7.166,0C36.941,15.682,32.884,1.172,20.36.265Z" transform="translate(0 17.62)" fill="#fff"/>
  </g>
  <g id="standing-up-man-_copy_5" data-name="standing-up-man- copy 5" transform="translate(229)">
    <ellipse id="Oval-2" data-name="Oval" cx="7.091" cy="7.158" rx="7.091" ry="7.158" transform="translate(10.909 0)" fill="#fff"/>
    <path id="Path-2" data-name="Path" d="M20.36.265a12.743,12.743,0,0,0-5.484.068C2.954,1.765-.916,15.909.177,26.693c.474,4.662,7.645,4.711,7.166,0-.4-3.93-.228-9.861,1.811-14.077v15.37c0,.181.018.351.025.525,0,.083-.024.153-.024.238,0,12.2-.021,24.388-.512,36.575-.218,5.417,7.977,5.4,8.194,0,.385-9.551.482-19.108.5-28.666a9.25,9.25,0,0,0,1.165,0c.024,9.558.118,19.114.5,28.662.218,5.4,8.413,5.417,8.194,0-.492-12.187-.509-24.378-.509-36.575a4.712,4.712,0,0,0-.124-1.053c-.011-5.3-.208-10.6-.148-15.887,2.441,4.235,2.663,10.695,2.24,14.881-.48,4.708,6.692,4.661,7.166,0C36.941,15.682,32.884,1.172,20.36.265Z" transform="translate(0 17.62)" fill="#fff"/>
  </g>
  <g id="standing-up-man-_copy" data-name="standing-up-man- copy" transform="translate(172 93)">
    <ellipse id="Oval-3" data-name="Oval" cx="7.091" cy="7.158" rx="7.091" ry="7.158" transform="translate(10.909 0)" fill="#fff"/>
    <path id="Path-3" data-name="Path" d="M20.36.265a12.743,12.743,0,0,0-5.484.068C2.954,1.765-.916,15.909.177,26.693c.474,4.662,7.645,4.711,7.166,0-.4-3.93-.228-9.861,1.811-14.077v15.37c0,.181.018.351.025.525,0,.083-.024.153-.024.238,0,12.2-.021,24.388-.512,36.575-.218,5.417,7.977,5.4,8.194,0,.385-9.551.482-19.108.5-28.666a9.25,9.25,0,0,0,1.165,0c.024,9.558.118,19.114.5,28.662.218,5.4,8.413,5.417,8.194,0-.492-12.187-.509-24.378-.509-36.575a4.712,4.712,0,0,0-.124-1.053c-.011-5.3-.208-10.6-.148-15.887,2.441,4.235,2.663,10.695,2.24,14.881-.48,4.708,6.692,4.661,7.166,0C36.941,15.682,32.884,1.172,20.36.265Z" transform="translate(0 17.62)" fill="#fff"/>
  </g>
  <g id="standing-up-man-_copy_6" data-name="standing-up-man- copy 6" transform="translate(172)">
    <ellipse id="Oval-4" data-name="Oval" cx="7.091" cy="7.158" rx="7.091" ry="7.158" transform="translate(10.909 0)" fill="#c1c6c0"/>
    <path id="Path-4" data-name="Path" d="M20.36.265a12.743,12.743,0,0,0-5.484.068C2.954,1.765-.916,15.909.177,26.693c.474,4.662,7.645,4.711,7.166,0-.4-3.93-.228-9.861,1.811-14.077v15.37c0,.181.018.351.025.525,0,.083-.024.153-.024.238,0,12.2-.021,24.388-.512,36.575-.218,5.417,7.977,5.4,8.194,0,.385-9.551.482-19.108.5-28.666a9.25,9.25,0,0,0,1.165,0c.024,9.558.118,19.114.5,28.662.218,5.4,8.413,5.417,8.194,0-.492-12.187-.509-24.378-.509-36.575a4.712,4.712,0,0,0-.124-1.053c-.011-5.3-.208-10.6-.148-15.887,2.441,4.235,2.663,10.695,2.24,14.881-.48,4.708,6.692,4.661,7.166,0C36.941,15.682,32.884,1.172,20.36.265Z" transform="translate(0 17.62)" fill="#c1c6c0"/>
  </g>
  <g id="standing-up-man-_copy_2" data-name="standing-up-man- copy 2" transform="translate(114 93)">
    <ellipse id="Oval-5" data-name="Oval" cx="7.091" cy="7.158" rx="7.091" ry="7.158" transform="translate(10.909 0)" fill="#fff"/>
    <path id="Path-5" data-name="Path" d="M20.36.265a12.743,12.743,0,0,0-5.484.068C2.954,1.765-.916,15.909.177,26.693c.474,4.662,7.645,4.711,7.166,0-.4-3.93-.228-9.861,1.811-14.077v15.37c0,.181.018.351.025.525,0,.083-.024.153-.024.238,0,12.2-.021,24.388-.512,36.575-.218,5.417,7.977,5.4,8.194,0,.385-9.551.482-19.108.5-28.666a9.25,9.25,0,0,0,1.165,0c.024,9.558.118,19.114.5,28.662.218,5.4,8.413,5.417,8.194,0-.492-12.187-.509-24.378-.509-36.575a4.712,4.712,0,0,0-.124-1.053c-.011-5.3-.208-10.6-.148-15.887,2.441,4.235,2.663,10.695,2.24,14.881-.48,4.708,6.692,4.661,7.166,0C36.941,15.682,32.884,1.172,20.36.265Z" transform="translate(0 17.62)" fill="#fff"/>
  </g>
  <g id="standing-up-man-_copy_7" data-name="standing-up-man- copy 7" transform="translate(114)">
    <ellipse id="Oval-6" data-name="Oval" cx="7.091" cy="7.158" rx="7.091" ry="7.158" transform="translate(10.909 0)" fill="#c1c6c0"/>
    <path id="Path-6" data-name="Path" d="M20.36.265a12.743,12.743,0,0,0-5.484.068C2.954,1.765-.916,15.909.177,26.693c.474,4.662,7.645,4.711,7.166,0-.4-3.93-.228-9.861,1.811-14.077v15.37c0,.181.018.351.025.525,0,.083-.024.153-.024.238,0,12.2-.021,24.388-.512,36.575-.218,5.417,7.977,5.4,8.194,0,.385-9.551.482-19.108.5-28.666a9.25,9.25,0,0,0,1.165,0c.024,9.558.118,19.114.5,28.662.218,5.4,8.413,5.417,8.194,0-.492-12.187-.509-24.378-.509-36.575a4.712,4.712,0,0,0-.124-1.053c-.011-5.3-.208-10.6-.148-15.887,2.441,4.235,2.663,10.695,2.24,14.881-.48,4.708,6.692,4.661,7.166,0C36.941,15.682,32.884,1.172,20.36.265Z" transform="translate(0 17.62)" fill="#c1c6c0"/>
  </g>
  <g id="standing-up-man-_copy_3" data-name="standing-up-man- copy 3" transform="translate(57 93)">
    <ellipse id="Oval-7" data-name="Oval" cx="7.091" cy="7.158" rx="7.091" ry="7.158" transform="translate(10.909 0)" fill="#fff"/>
    <path id="Path-7" data-name="Path" d="M20.36.265a12.743,12.743,0,0,0-5.484.068C2.954,1.765-.916,15.909.177,26.693c.474,4.662,7.645,4.711,7.166,0-.4-3.93-.228-9.861,1.811-14.077v15.37c0,.181.018.351.025.525,0,.083-.024.153-.024.238,0,12.2-.021,24.388-.512,36.575-.218,5.417,7.977,5.4,8.194,0,.385-9.551.482-19.108.5-28.666a9.25,9.25,0,0,0,1.165,0c.024,9.558.118,19.114.5,28.662.218,5.4,8.413,5.417,8.194,0-.492-12.187-.509-24.378-.509-36.575a4.712,4.712,0,0,0-.124-1.053c-.011-5.3-.208-10.6-.148-15.887,2.441,4.235,2.663,10.695,2.24,14.881-.48,4.708,6.692,4.661,7.166,0C36.941,15.682,32.884,1.172,20.36.265Z" transform="translate(0 17.62)" fill="#fff"/>
  </g>
  <g id="standing-up-man-_copy_8" data-name="standing-up-man- copy 8" transform="translate(57)">
    <ellipse id="Oval-8" data-name="Oval" cx="7.091" cy="7.158" rx="7.091" ry="7.158" transform="translate(10.909 0)" fill="#c1c6c0"/>
    <path id="Path-8" data-name="Path" d="M20.36.265a12.743,12.743,0,0,0-5.484.068C2.954,1.765-.916,15.909.177,26.693c.474,4.662,7.645,4.711,7.166,0-.4-3.93-.228-9.861,1.811-14.077v15.37c0,.181.018.351.025.525,0,.083-.024.153-.024.238,0,12.2-.021,24.388-.512,36.575-.218,5.417,7.977,5.4,8.194,0,.385-9.551.482-19.108.5-28.666a9.25,9.25,0,0,0,1.165,0c.024,9.558.118,19.114.5,28.662.218,5.4,8.413,5.417,8.194,0-.492-12.187-.509-24.378-.509-36.575a4.712,4.712,0,0,0-.124-1.053c-.011-5.3-.208-10.6-.148-15.887,2.441,4.235,2.663,10.695,2.24,14.881-.48,4.708,6.692,4.661,7.166,0C36.941,15.682,32.884,1.172,20.36.265Z" transform="translate(0 17.62)" fill="#c1c6c0"/>
  </g>
  <g id="standing-up-man-_copy_4" data-name="standing-up-man- copy 4" transform="translate(0 93)">
    <ellipse id="Oval-9" data-name="Oval" cx="7.091" cy="7.158" rx="7.091" ry="7.158" transform="translate(10.909 0)" fill="#fff"/>
    <path id="Path-9" data-name="Path" d="M20.36.265a12.743,12.743,0,0,0-5.484.068C2.954,1.765-.916,15.909.177,26.693c.474,4.662,7.645,4.711,7.166,0-.4-3.93-.228-9.861,1.811-14.077v15.37c0,.181.018.351.025.525,0,.083-.024.153-.024.238,0,12.2-.021,24.388-.512,36.575-.218,5.417,7.977,5.4,8.194,0,.385-9.551.482-19.108.5-28.666a9.25,9.25,0,0,0,1.165,0c.024,9.558.118,19.114.5,28.662.218,5.4,8.413,5.417,8.194,0-.492-12.187-.509-24.378-.509-36.575a4.712,4.712,0,0,0-.124-1.053c-.011-5.3-.208-10.6-.148-15.887,2.441,4.235,2.663,10.695,2.24,14.881-.48,4.708,6.692,4.661,7.166,0C36.941,15.682,32.884,1.172,20.36.265Z" transform="translate(0 17.62)" fill="#fff"/>
  </g>
  <g id="standing-up-man-_copy_9" data-name="standing-up-man- copy 9">
    <ellipse id="Oval-10" data-name="Oval" cx="7.091" cy="7.158" rx="7.091" ry="7.158" transform="translate(10.909 0)" fill="#c1c6c0"/>
    <path id="Path-10" data-name="Path" d="M20.36.265a12.743,12.743,0,0,0-5.484.068C2.954,1.765-.916,15.909.177,26.693c.474,4.662,7.645,4.711,7.166,0-.4-3.93-.228-9.861,1.811-14.077v15.37c0,.181.018.351.025.525,0,.083-.024.153-.024.238,0,12.2-.021,24.388-.512,36.575-.218,5.417,7.977,5.4,8.194,0,.385-9.551.482-19.108.5-28.666a9.25,9.25,0,0,0,1.165,0c.024,9.558.118,19.114.5,28.662.218,5.4,8.413,5.417,8.194,0-.492-12.187-.509-24.378-.509-36.575a4.712,4.712,0,0,0-.124-1.053c-.011-5.3-.208-10.6-.148-15.887,2.441,4.235,2.663,10.695,2.24,14.881-.48,4.708,6.692,4.661,7.166,0C36.941,15.682,32.884,1.172,20.36.265Z" transform="translate(0 17.62)" fill="#c1c6c0"/>
  </g>
</svg>
