<svg id="hot" xmlns="http://www.w3.org/2000/svg" width="52.287" height="56" viewBox="0 0 52.287 56">
  <path id="Path" d="M6.3,24.455V1.784a1.8,1.8,0,0,0-3.6,0V24.455A4.453,4.453,0,0,0,4.5,33a4.453,4.453,0,0,0,1.8-8.545Z" transform="translate(6 17)" fill="#29388c"/>
  <path id="Shape" d="M0,45.5a10.406,10.406,0,0,1,3.5-7.827V7a7,7,0,1,1,14,0V37.673A10.4,10.4,0,0,1,21,45.5a10.5,10.5,0,0,1-21,0Z" fill="#29388c"/>
  <g id="Group_10" data-name="Group 10" transform="translate(26)">
    <path id="Shape-2" data-name="Shape" d="M0,6.487A6.45,6.45,0,0,1,6.4,0a6.45,6.45,0,0,1,6.4,6.487,6.45,6.45,0,0,1-6.4,6.488A6.451,6.451,0,0,1,0,6.487Z" transform="translate(6.603 6.986)" fill="#29388c"/>
    <path id="Path-2" data-name="Path" d="M1.476,4.491A1.42,1.42,0,0,0,2.953,3.135V1.356A1.42,1.42,0,0,0,1.476,0,1.42,1.42,0,0,0,0,1.356v1.78A1.42,1.42,0,0,0,1.476,4.491Z" transform="translate(12.016)" fill="#29388c"/>
    <path id="Path-3" data-name="Path" d="M1.476,0A1.42,1.42,0,0,0,0,1.356v1.78A1.42,1.42,0,0,0,1.476,4.491,1.42,1.42,0,0,0,2.953,3.135V1.356A1.42,1.42,0,0,0,1.476,0Z" transform="translate(12.016 21.458)" fill="#29388c"/>
    <path id="Path-4" data-name="Path" d="M4.429,1.5A1.424,1.424,0,0,0,3.092,0H1.337A1.424,1.424,0,0,0,0,1.5a1.424,1.424,0,0,0,1.337,1.5H3.092A1.424,1.424,0,0,0,4.429,1.5Z" transform="translate(-0.287 11.478)" fill="#29388c"/>
    <path id="Path-5" data-name="Path" d="M3.092,0H1.337A1.424,1.424,0,0,0,0,1.5a1.424,1.424,0,0,0,1.337,1.5H3.092A1.424,1.424,0,0,0,4.429,1.5,1.424,1.424,0,0,0,3.092,0Z" transform="translate(21.858 11.478)" fill="#29388c"/>
    <path id="Path-6" data-name="Path" d="M1.423,3.142a1.172,1.172,0,0,0,1.675,0,1.213,1.213,0,0,0,0-1.7L2.021.352a1.172,1.172,0,0,0-1.675,0,1.213,1.213,0,0,0,0,1.7Z" transform="translate(4.142 3.992)" fill="#29388c"/>
    <path id="Path-7" data-name="Path" d="M2.021.352a1.172,1.172,0,0,0-1.674,0,1.213,1.213,0,0,0,0,1.7L1.423,3.141a1.171,1.171,0,0,0,.837.352A1.2,1.2,0,0,0,3.1,1.443Z" transform="translate(19.397 18.963)" fill="#29388c"/>
    <path id="Path-8" data-name="Path" d="M1.423.352.347,1.443a1.213,1.213,0,0,0,0,1.7,1.172,1.172,0,0,0,1.675,0L3.1,2.05a1.213,1.213,0,0,0,0-1.7A1.172,1.172,0,0,0,1.423.352Z" transform="translate(4.142 18.963)" fill="#29388c"/>
    <path id="Path-9" data-name="Path" d="M1.185,3.493a1.171,1.171,0,0,0,.837-.352L3.1,2.05a1.213,1.213,0,0,0,0-1.7,1.172,1.172,0,0,0-1.674,0L.348,1.443a1.2,1.2,0,0,0,.837,2.05Z" transform="translate(19.397 3.992)" fill="#29388c"/>
  </g>
  <path id="Shape-3" data-name="Shape" d="M17.985,21.381l-1.034-1.7-.378,1.34a1.3,1.3,0,0,1-1.259.917,1.253,1.253,0,0,1-1.26-1.558l1.053-3.73-.8-1.32a4.758,4.758,0,0,1-2.113,0l-.8,1.32,1.053,3.73a1.254,1.254,0,0,1-1.261,1.558,1.3,1.3,0,0,1-1.258-.917l-.379-1.34-1.034,1.7A1.317,1.317,0,0,1,7.376,22a1.239,1.239,0,0,1-1.128-1.856l1.034-1.7L5.87,18.8a1.311,1.311,0,0,1-1.6-.875,1.23,1.23,0,0,1,.922-1.515l3.932-1,.8-1.322a4.285,4.285,0,0,1-1.059-1.735H7.266L4.388,15.088a1.339,1.339,0,0,1-.922.363,1.232,1.232,0,0,1-.923-2.112l1.034-.981H1.509a1.239,1.239,0,1,1,0-2.474H3.578L2.543,8.9a1.193,1.193,0,0,1,0-1.75,1.354,1.354,0,0,1,1.844,0L7.266,9.883H8.873A4.283,4.283,0,0,1,9.932,8.148l-.8-1.322-3.932-1a1.231,1.231,0,0,1-.922-1.515,1.312,1.312,0,0,1,1.6-.875L7.283,3.8,6.249,2.1A1.2,1.2,0,0,1,6.726.406,1.344,1.344,0,0,1,8.507.859l1.034,1.7.379-1.34a1.313,1.313,0,0,1,1.6-.875,1.233,1.233,0,0,1,.922,1.516l-1.053,3.73.8,1.32a4.785,4.785,0,0,1,2.113,0l.8-1.32-1.053-3.73A1.232,1.232,0,0,1,14.975.343a1.313,1.313,0,0,1,1.6.875l.378,1.34L17.985.86A1.344,1.344,0,0,1,19.767.406a1.2,1.2,0,0,1,.477,1.69L19.21,3.8l1.413-.359a1.312,1.312,0,0,1,1.6.875A1.231,1.231,0,0,1,21.3,5.826l-3.932,1L16.56,8.148a4.281,4.281,0,0,1,1.059,1.735h1.607L22.1,7.152a1.354,1.354,0,0,1,1.844,0,1.193,1.193,0,0,1,0,1.75l-1.034.981h2.068a1.239,1.239,0,1,1,0,2.474H22.915l1.034.981a1.232,1.232,0,0,1-.923,2.112,1.335,1.335,0,0,1-.922-.363l-2.878-2.731H17.619a4.283,4.283,0,0,1-1.058,1.735l.8,1.322,3.932,1a1.232,1.232,0,0,1,.922,1.516,1.312,1.312,0,0,1-1.6.874l-1.413-.359,1.034,1.7A1.24,1.24,0,0,1,19.116,22,1.32,1.32,0,0,1,17.985,21.381Z" transform="translate(26 28)" fill="#29388c"/>
</svg>
