<svg id="estetoscopio_copy_3" data-name="estetoscopio copy 3" xmlns="http://www.w3.org/2000/svg" width="112" height="129" viewBox="0 0 112 129">
  <path id="Path" d="M70.313,0h-15V9.152H65.625V26.39c0,15.14-12.617,27.458-28.125,27.458S9.375,41.53,9.375,26.39V9.152h10V0H4.687A4.633,4.633,0,0,0,0,4.576V26.39C0,46.577,16.822,63,37.5,63S75,46.577,75,26.39V4.576A4.633,4.633,0,0,0,70.313,0Z" transform="translate(0 6)" fill="#fff"/>
  <path id="Path-2" data-name="Path" d="M56.571,8.379V30.414a23.573,23.573,0,0,1-47.143,0V0H0V30.414A32.832,32.832,0,0,0,33,63,32.833,32.833,0,0,0,66,30.414V8.379Z" transform="translate(33 66)" fill="#fff"/>
  <path id="Shape" d="M0,17.5A17.5,17.5,0,1,1,17.5,35,17.519,17.519,0,0,1,0,17.5Z" transform="translate(77 42)" fill="#fff"/>
  <path id="Path-3" data-name="Path" d="M5,0A4.811,4.811,0,0,0,0,4.6V14.4A4.811,4.811,0,0,0,5,19a4.811,4.811,0,0,0,5-4.6V4.6A4.811,4.811,0,0,0,5,0Z" transform="translate(13)" fill="#fff"/>
  <path id="Path-4" data-name="Path" d="M5,0A4.811,4.811,0,0,0,0,4.6V14.4A4.811,4.811,0,0,0,5,19a4.811,4.811,0,0,0,5-4.6V4.6A4.811,4.811,0,0,0,5,0Z" transform="translate(52)" fill="#fff"/>
</svg>
