<svg xmlns="http://www.w3.org/2000/svg" width="48" height="50" viewBox="0 0 48 50">
  <g id="refresh" transform="translate(-0.283 -0.751)">
    <path id="Path" d="M42.167,0a1.817,1.817,0,0,0-1.833,1.8V8.375A24.1,24.1,0,0,0,6.7,8.91,23.133,23.133,0,0,0,0,25.2,1.817,1.817,0,0,0,1.833,27a1.817,1.817,0,0,0,1.833-1.8A19.986,19.986,0,0,1,23.837,5.4a20.339,20.339,0,0,1,14.872,6.431l-8.122,2.659a1.8,1.8,0,0,0-1.162,2.279,1.843,1.843,0,0,0,2.321,1.141l11-3.6A1.8,1.8,0,0,0,44,12.6V1.8A1.817,1.817,0,0,0,42.167,0Z" transform="translate(0.283 0.751)" fill="#29388c"/>
    <path id="Path-2" data-name="Path" d="M42.167,0a1.817,1.817,0,0,0-1.833,1.8A19.986,19.986,0,0,1,20.163,21.6,20.339,20.339,0,0,1,5.291,15.165l8.122-2.659a1.8,1.8,0,0,0,1.162-2.279,1.843,1.843,0,0,0-2.321-1.141l-11,3.6A1.8,1.8,0,0,0,0,14.4V25.2A1.817,1.817,0,0,0,1.833,27a1.817,1.817,0,0,0,1.833-1.8V18.625A24.1,24.1,0,0,0,37.3,18.09,23.133,23.133,0,0,0,44,1.8,1.817,1.817,0,0,0,42.167,0Z" transform="translate(4.283 23.751)" fill="#29388c"/>
  </g>
</svg>
